<?xml version="1.0" encoding="UTF-8"?>
<svg xmlns="http://www.w3.org/2000/svg" xmlns:xlink="http://www.w3.org/1999/xlink" viewBox="0 0 257.98 275.62">
  <defs>
    <style>
      .cls-1 {
        fill: #5f8aed;
      }

      .cls-2, .cls-3 {
        fill: #fff;
      }

      .cls-4 {
        fill: url(#Degradado_sin_nombre_21);
      }

      .cls-5 {
        fill: url(#Degradado_sin_nombre_18);
      }

      .cls-6 {
        fill: #ed5f9d;
      }

      .cls-7 {
        isolation: isolate;
      }

      .cls-8 {
        fill: #a85fed;
      }

      .cls-9 {
        fill: #edab5f;
      }

      .cls-10 {
        fill: url(#Degradado_sin_nombre_6);
        mix-blend-mode: screen;
        opacity: .93;
      }

      .cls-11 {
        fill: #e6e6e6;
      }

      .cls-12 {
        fill: url(#Degradado_sin_nombre_3);
      }

      .cls-13 {
        fill: url(#Degradado_sin_nombre_19);
      }

      .cls-14 {
        fill: url(#Degradado_sin_nombre_22);
      }

      .cls-15 {
        fill: url(#Degradado_sin_nombre_20);
      }

      .cls-16 {
        fill: #6ab889;
      }

      .cls-17 {
        fill: url(#Degradado_sin_nombre_17);
      }

      .cls-3 {
        opacity: .35;
      }

      .cls-18 {
        fill: url(#Degradado_sin_nombre_323);
      }

      .cls-19 {
        fill: url(#Degradado_sin_nombre_4);
      }

      .cls-20 {
        fill: url(#Degradado_sin_nombre_573);
        mix-blend-mode: overlay;
        opacity: .4;
      }

      .cls-21 {
        mix-blend-mode: multiply;
      }

      .cls-22 {
        fill: url(#Degradado_sin_nombre_7);
      }

      .cls-23 {
        fill: url(#Degradado_sin_nombre_312);
        mix-blend-mode: color-burn;
        opacity: .5;
      }
    </style>
    <linearGradient id="Degradado_sin_nombre_19" data-name="Degradado sin nombre 19" x1="15.17" y1="86.98" x2="97.4" y2="20.45" gradientUnits="userSpaceOnUse">
      <stop offset="0" stop-color="#000"/>
      <stop offset=".2" stop-color="#5b5b5b"/>
      <stop offset=".62" stop-color="#5b5b5b"/>
      <stop offset=".67" stop-color="#4c4c4c"/>
      <stop offset=".76" stop-color="#363636"/>
      <stop offset="1" stop-color="#000"/>
    </linearGradient>
    <linearGradient id="Degradado_sin_nombre_22" data-name="Degradado sin nombre 22" x1="12.32" y1="85.42" x2="101.12" y2="16.11" gradientUnits="userSpaceOnUse">
      <stop offset="0" stop-color="#d5d5d5"/>
      <stop offset=".07" stop-color="#acacac"/>
      <stop offset=".18" stop-color="#717171"/>
      <stop offset=".24" stop-color="#5b5b5b"/>
      <stop offset=".53" stop-color="#d5d5d5"/>
      <stop offset=".86" stop-color="#5b5b5b"/>
      <stop offset="1" stop-color="#d5d5d5"/>
    </linearGradient>
    <linearGradient id="Degradado_sin_nombre_21" data-name="Degradado sin nombre 21" x1="25.23" y1="81.6" x2="93.15" y2="29.71" gradientUnits="userSpaceOnUse">
      <stop offset="0" stop-color="#000"/>
      <stop offset=".16" stop-color="#5b5b5b"/>
      <stop offset=".59" stop-color="#5b5b5b"/>
      <stop offset=".67" stop-color="#4c4c4c"/>
      <stop offset=".83" stop-color="#363636"/>
      <stop offset="1" stop-color="#000"/>
    </linearGradient>
    <linearGradient id="Degradado_sin_nombre_17" data-name="Degradado sin nombre 17" x1="0" y1="36.49" x2="91.3" y2="36.49" gradientUnits="userSpaceOnUse">
      <stop offset="0" stop-color="#d5d5d5"/>
      <stop offset=".13" stop-color="#acacac"/>
      <stop offset=".34" stop-color="#717171"/>
      <stop offset=".44" stop-color="#5b5b5b"/>
      <stop offset="1" stop-color="#d5d5d5"/>
    </linearGradient>
    <linearGradient id="Degradado_sin_nombre_18" data-name="Degradado sin nombre 18" x1="2.45" y1="74.75" x2="92.88" y2="3.9" gradientUnits="userSpaceOnUse">
      <stop offset=".06" stop-color="#b3b3b3"/>
      <stop offset=".08" stop-color="#c2c2c2"/>
      <stop offset=".11" stop-color="#dcdcdc"/>
      <stop offset=".14" stop-color="#efefef"/>
      <stop offset=".17" stop-color="#fbfbfb"/>
      <stop offset=".21" stop-color="#fff"/>
      <stop offset=".24" stop-color="#e3e3e3"/>
      <stop offset=".35" stop-color="#818181"/>
      <stop offset=".4" stop-color="#5b5b5b"/>
      <stop offset=".46" stop-color="#353535"/>
      <stop offset=".54" stop-color="#0e0e0e"/>
      <stop offset=".58" stop-color="#000"/>
      <stop offset=".74" stop-color="#fff"/>
      <stop offset=".86" stop-color="#fff"/>
      <stop offset=".88" stop-color="#fbfbfb"/>
      <stop offset=".9" stop-color="#f1f1f1"/>
      <stop offset=".92" stop-color="#dfdfdf"/>
      <stop offset=".94" stop-color="#c7c7c7"/>
      <stop offset=".95" stop-color="#a7a7a7"/>
      <stop offset=".97" stop-color="#818181"/>
      <stop offset=".99" stop-color="#5b5b5b"/>
    </linearGradient>
    <linearGradient id="Degradado_sin_nombre_20" data-name="Degradado sin nombre 20" x1="91.2" y1="22.87" x2="20.58" y2="85.1" gradientUnits="userSpaceOnUse">
      <stop offset="0" stop-color="#000"/>
      <stop offset=".17" stop-color="#151515"/>
      <stop offset=".41" stop-color="#2d2d2d"/>
      <stop offset=".56" stop-color="#363636"/>
      <stop offset="1" stop-color="#000"/>
    </linearGradient>
    <linearGradient id="Degradado_sin_nombre_4" data-name="Degradado sin nombre 4" x1="286.98" y1="175.71" x2="177.48" y2="262.04" gradientUnits="userSpaceOnUse">
      <stop offset=".02" stop-color="#b5bdb6"/>
      <stop offset=".04" stop-color="#cdd5ce"/>
      <stop offset=".07" stop-color="#e0e7e0"/>
      <stop offset=".1" stop-color="#eef4ed"/>
      <stop offset=".14" stop-color="#f6fcf5"/>
      <stop offset=".22" stop-color="#f9fff8"/>
      <stop offset="1" stop-color="#b5bdb6"/>
    </linearGradient>
    <linearGradient id="Degradado_sin_nombre_3" data-name="Degradado sin nombre 3" x1="148.81" y1="265.9" x2="255.58" y2="177.94" gradientUnits="userSpaceOnUse">
      <stop offset=".02" stop-color="#eef4ed"/>
      <stop offset=".12" stop-color="#e9eee6"/>
      <stop offset=".34" stop-color="#e8ece4"/>
      <stop offset=".68" stop-color="#cdd6cb"/>
      <stop offset="1" stop-color="#fff"/>
    </linearGradient>
    <linearGradient id="Degradado_sin_nombre_7" data-name="Degradado sin nombre 7" x1="20.08" y1="125.24" x2="133.01" y2="30.66" gradientUnits="userSpaceOnUse">
      <stop offset=".02" stop-color="#e6e6de"/>
      <stop offset=".34" stop-color="#e8e7df"/>
      <stop offset=".72" stop-color="#babab0"/>
      <stop offset="1" stop-color="#f5f4ed"/>
    </linearGradient>
    <linearGradient id="Degradado_sin_nombre_6" data-name="Degradado sin nombre 6" x1="8.67" y1="130.59" x2="127.84" y2="30.79" gradientUnits="userSpaceOnUse">
      <stop offset="0" stop-color="#fff"/>
      <stop offset=".02" stop-color="#f9f9f9" stop-opacity=".98"/>
      <stop offset=".06" stop-color="#eaeaea" stop-opacity=".92"/>
      <stop offset=".09" stop-color="#d1d1d1" stop-opacity=".82"/>
      <stop offset=".13" stop-color="#aeaeae" stop-opacity=".68"/>
      <stop offset=".16" stop-color="#818181" stop-opacity=".51"/>
      <stop offset=".2" stop-color="#4a4a4a" stop-opacity=".29"/>
      <stop offset=".24" stop-color="#0a0a0a" stop-opacity=".04"/>
      <stop offset=".25" stop-color="#000" stop-opacity="0"/>
      <stop offset=".31" stop-color="#545454" stop-opacity=".23"/>
      <stop offset=".38" stop-color="#adadad" stop-opacity=".47"/>
      <stop offset=".43" stop-color="#e4e4e4" stop-opacity=".62"/>
      <stop offset=".45" stop-color="#fafafa" stop-opacity=".68"/>
      <stop offset=".47" stop-color="#fafafa" stop-opacity=".74"/>
      <stop offset=".51" stop-color="#fcfcfc" stop-opacity=".85"/>
      <stop offset=".55" stop-color="#fdfdfd" stop-opacity=".93"/>
      <stop offset=".58" stop-color="#fefefe" stop-opacity=".98"/>
      <stop offset=".61" stop-color="#fff"/>
      <stop offset=".64" stop-color="#f7f7f7" stop-opacity=".97"/>
      <stop offset=".69" stop-color="#e1e1e1" stop-opacity=".89"/>
      <stop offset=".74" stop-color="#bebebe" stop-opacity=".75"/>
      <stop offset=".81" stop-color="#8d8d8d" stop-opacity=".56"/>
      <stop offset=".88" stop-color="#4f4f4f" stop-opacity=".31"/>
      <stop offset=".95" stop-color="#040404" stop-opacity=".02"/>
      <stop offset=".96" stop-color="#000" stop-opacity="0"/>
    </linearGradient>
    <linearGradient id="Degradado_sin_nombre_323" data-name="Degradado sin nombre 323" x1="187.27" y1="104.32" x2="76.57" y2="193.16" gradientUnits="userSpaceOnUse">
      <stop offset=".03" stop-color="#fff"/>
      <stop offset=".08" stop-color="#d8d8d8"/>
      <stop offset=".13" stop-color="#b9b9b9"/>
      <stop offset=".18" stop-color="#a3a3a3"/>
      <stop offset=".22" stop-color="#959595"/>
      <stop offset=".27" stop-color="#919191"/>
      <stop offset=".34" stop-color="#b1b1b1"/>
      <stop offset=".43" stop-color="#d3d3d3"/>
      <stop offset=".51" stop-color="#ebebeb"/>
      <stop offset=".59" stop-color="#f9f9f9"/>
      <stop offset=".66" stop-color="#fff"/>
      <stop offset=".85" stop-color="#d5d5d5"/>
      <stop offset=".9" stop-color="#bcbcbc"/>
      <stop offset="1" stop-color="#919191"/>
    </linearGradient>
    <linearGradient id="Degradado_sin_nombre_312" data-name="Degradado sin nombre 312" x1="177.43" y1="252.23" x2="31.94" y2="105.35" gradientUnits="userSpaceOnUse">
      <stop offset="0" stop-color="#000" stop-opacity="0"/>
      <stop offset="1" stop-color="#5b5b5b"/>
    </linearGradient>
    <linearGradient id="Degradado_sin_nombre_573" data-name="Degradado sin nombre 573" x1="241.77" y1="202.29" x2="115.02" y2="62.04" gradientUnits="userSpaceOnUse">
      <stop offset="0" stop-color="#fff" stop-opacity="0"/>
      <stop offset="1" stop-color="#fff"/>
    </linearGradient>
  </defs>
  <g class="cls-7">
    <g id="BACKGROUND">
      <g>
        <path class="cls-13" d="M98.16,35.29c1.84-3.37,3.04-6.46,3.36-9.05,.37-3.05-.46-5.15-2.28-6.33-1.84-1.19-4.68-1.45-8.33-.8-3.66,.65-8.13,2.2-13.19,4.63-5.07,2.44-10.73,5.75-16.74,9.9-6.02,4.16-11.81,8.75-17.11,13.49-5.3,4.73-10.11,9.6-14.17,14.31-4.05,4.7-7.36,9.24-9.69,13.34-2.31,4.08-3.65,7.71-3.77,10.62-.12,2.89,.96,4.8,3.01,5.78,2.04,.97,5.05,1.03,8.79,.22,1.23-.27,2.57-.66,3.95-1.11-.62-.32-1.15-.67-1.59-1.02-.08-.06-.16-.12-.23-.19-.62-.52-1.06-1-1.35-1.32l-3.53-4.3c-.18-.22-.34-.46-.47-.72s-.24-.54-.33-.85c-.08-.3-.14-.63-.18-.98-.03-.35-.04-.72-.02-1.11,.12-2.38,1.22-5.33,3.11-8.65,1.9-3.33,4.59-7.01,7.88-10.82,3.3-3.82,7.2-7.76,11.49-11.59,4.3-3.83,8.98-7.55,13.86-10.92,3.95-2.73,7.71-5.01,11.18-6.84,3.47-1.82,6.65-3.18,9.45-4.07,2.79-.88,5.2-1.29,7.14-1.21,1.93,.08,3.39,.65,4.28,1.71,.54,.64,1.16,1.39,1.79,2.13l1.79,2.13c.09,.11,.19,.25,.3,.4,.05,.07,.1,.13,.16,.22,.11,.15,.22,.33,.34,.51,.29,.46,.58,1.01,.82,1.64,.03,.07,.05,.15,.08,.23,.06,.18,.14,.35,.19,.55,0,.02,0,.04,.01,.06Z"/>
        <path class="cls-14" d="M31.98,90.29c-1.38,.45-2.72,.85-3.95,1.11-3.74,.81-6.74,.75-8.79-.22-2.05-.98-3.14-2.89-3.01-5.78,.13-2.91,1.46-6.54,3.77-10.62,2.32-4.1,5.63-8.63,9.69-13.34,4.07-4.71,8.87-9.58,14.17-14.31,5.31-4.74,11.09-9.33,17.11-13.49,6.01-4.15,11.66-7.46,16.74-9.9,5.05-2.43,9.52-3.98,13.19-4.63,3.65-.64,6.49-.39,8.33,.8,1.83,1.18,2.66,3.28,2.28,6.33-.32,2.59-1.52,5.67-3.36,9.05,.04,.16,.08,.32,.12,.49,.01,.05,.03,.1,.04,.15,.57-.96,1.02-1.76,1.33-2.37,.92-1.76,1.57-3.26,2.06-4.59,.1-.26,.19-.51,.27-.76,.21-.62,.4-1.2,.54-1.73,.09-.35,.17-.67,.23-.99,.11-.51,.2-.99,.26-1.4,.04-.32,.08-.6,.1-.87,.03-.33,.06-.64,.07-.9,.02-.32,.01-.72-.01-1.14-.01-.21-.02-.42-.05-.65,0-.02,0-.03,0-.05-.04-.33-.09-.68-.15-1.01,0-.01,0-.02,0-.03-.02-.12-.06-.22-.08-.33-.05-.22-.1-.45-.16-.66-.02-.08-.05-.14-.08-.21-.07-.21-.14-.4-.21-.58-.05-.13-.1-.27-.15-.39-.07-.16-.15-.29-.22-.43-.11-.21-.21-.4-.32-.58-.03-.05-.07-.1-.1-.15-.23-.36-.47-.68-.69-.97-1.19-1.41-3.11-2.17-5.66-2.28-2.56-.12-5.74,.41-9.43,1.56-3.7,1.16-7.91,2.95-12.5,5.35-4.6,2.41-9.59,5.42-14.81,9.03-6.49,4.48-12.74,9.43-18.46,14.54-5.72,5.11-10.89,10.36-15.27,15.44-4.36,5.07-7.92,9.97-10.41,14.39-2.48,4.4-3.9,8.31-4.02,11.45-.02,.5,0,.98,.04,1.43,.05,.45,.13,.87,.24,1.26,.11,.39,.26,.76,.43,1.1,.17,.34,.38,.65,.61,.94,.42,.51,.9,.96,1.41,1.37,.04,.03,.07,.05,.11,.08,.51,.39,1.05,.73,1.65,1.02,0,0,.02,0,.03,.01,.61,.3,1.27,.54,1.97,.73,.01,0,.02,0,.03,0,.63,.17,1.3,.27,2,.35,.09,.01,.17,.04,.27,.05,.09,0,.18,0,.27,.01,.38,.03,.77,.05,1.16,.05,.07,0,.14,0,.21,0,.5,0,1.02-.02,1.54-.06,.09,0,.17-.01,.26-.02,2.08-.17,4.25-.63,6.4-1.24,.8-.23,1.6-.48,2.38-.74,.39-.13,.78-.27,1.17-.41-.2-.09-.4-.18-.59-.27Z"/>
        <path class="cls-4" d="M98.54,37.54c-.01-.15-.02-.31-.04-.46-.03-.24-.06-.46-.1-.68-.02-.09-.03-.19-.05-.28-.01-.07-.03-.13-.04-.19-.01-.05-.03-.1-.04-.15-.09-.39-.2-.75-.32-1.09-.03-.08-.05-.15-.08-.23-.25-.65-.54-1.19-.82-1.64-.12-.19-.23-.36-.34-.51-.05-.08-.11-.15-.16-.22-.11-.15-.22-.29-.3-.4l-3.58-4.26c-.89-1.07-2.35-1.63-4.28-1.71-1.94-.08-4.35,.33-7.14,1.21-2.8,.88-5.98,2.25-9.45,4.07-3.48,1.82-7.23,4.11-11.18,6.84-4.87,3.37-9.56,7.09-13.86,10.92-4.29,3.83-8.19,7.77-11.49,11.59-3.29,3.81-5.98,7.49-7.88,10.82-1.89,3.31-2.99,6.27-3.11,8.65-.02,.39-.01,.76,.02,1.11,.03,.35,.09,.67,.18,.98,.08,.3,.19,.59,.33,.85s.29,.5,.47,.72l3.53,4.3c.4,.49,.86,.92,1.35,1.32,.08,.06,.16,.13,.23,.19,1.03,.79,2.21,1.39,3.54,1.77,.03,0,.06,.02,.08,.02,.25,.07,.53,.09,.8,.15,.13-.2,.26-.39,.39-.59,.03-.05,.06-.1,.1-.15,.38-.56,.77-1.11,1.16-1.66,.23-.33,.45-.65,.69-.98,.13-.18,.27-.37,.41-.55,.32-.44,.64-.87,.95-1.28,.01-.02,.03-.04,.04-.05,.11-.14,.2-.27,.3-.41,.04-.06,.1-.12,.14-.18,.05-.07,.1-.13,.15-.19,.83-1.08,1.56-1.99,2.07-2.61,.47-.55,1.01-1.22,1.55-1.86,.37-.45,.75-.88,1.08-1.26,.23-.26,.43-.48,.64-.72,.51-.58,1.05-1.18,1.61-1.79,1.31-1.45,2.19-2.39,3.25-3.46,.1-.1,.21-.21,.31-.31,.97-1,2.02-2.04,3.1-3.09,.44-.43,.9-.88,1.38-1.33,.04-.04,.07-.07,.11-.1,2.09-2,4.5-4.2,7.47-6.72,.21-.18,.41-.33,.62-.51,1.03-.86,2.09-1.73,3.18-2.61,.76-.61,1.48-1.17,2.21-1.74,.44-.34,.87-.68,1.32-1.03,.81-.62,1.59-1.21,2.37-1.78,.43-.32,.87-.64,1.31-.96,.6-.44,1.19-.86,1.76-1.26,.41-.29,.8-.58,1.22-.88,2.7-1.89,6.24-4.21,10.33-6.58,.17-.1,.38-.22,.53-.32,.06-.04,.15-.09,.28-.16,.82-.48,3-1.72,5.9-3.17,.64-.32,1.33-.65,2.03-.99,1.2-.57,2.47-1.15,3.8-1.71,0-.24-.02-.46-.03-.68Z"/>
        <path class="cls-17" d="M.19,71.82c.07,.2,.16,.4,.27,.6,.11,.19,.24,.38,.38,.56,.09-3.17,1.48-7.11,3.93-11.53,2.46-4.44,5.99-9.35,10.33-14.43,4.35-5.1,9.51-10.35,15.21-15.45,5.71-5.1,11.94-10.04,18.43-14.5,5.23-3.59,10.21-6.59,14.82-8.98,4.6-2.38,8.82-4.14,12.53-5.28,3.7-1.13,6.9-1.63,9.48-1.48,1.92,.11,3.5,.57,4.68,1.41,.39,.28,.74,.6,1.04,.95-.05-.06-.13-.15-.18-.21-.03-.03-.06-.05-.09-.08-.41-.44-.86-.84-1.34-1.2-.03-.03-.07-.05-.1-.07-.49-.35-1-.66-1.55-.92-.08-.04-.18-.07-.26-.11-.44-.2-.9-.36-1.38-.5-.17-.05-.34-.11-.52-.15-.6-.15-1.23-.27-1.88-.34-.03,0-.05-.01-.07-.01-.04,0-.07,0-.11,0-1.45-.14-2.89-.1-4.28,.04-.13,.01-.25,.03-.38,.04-.38,.05-.76,.09-1.13,.15-.04,0-.09,.01-.13,.02-.44,.07-.89,.15-1.32,.24-.02,0-.04,.01-.07,.02-.28,.06-.55,.12-.82,.19-.46,.11-.91,.22-1.35,.34-.59,.16-1.18,.32-1.74,.49-.97,.29-2,.64-3.06,1.04-.14,.05-.29,.11-.44,.17-.82,.31-1.67,.66-2.53,1.03-.32,.14-.64,.27-.96,.41-.99,.44-1.99,.91-3.02,1.41-.25,.12-.49,.24-.74,.37-2.32,1.16-4.73,2.46-7.17,3.9-.14,.08-.28,.16-.41,.24-1.09,.65-2.19,1.32-3.29,2.02-.32,.2-.64,.41-.96,.61-.94,.61-1.88,1.23-2.82,1.86-.85,.57-1.68,1.16-2.52,1.76-.14,.1-.28,.2-.42,.3-.56,.4-1.12,.78-1.68,1.19-.98,.72-2.4,1.77-4.13,3.1,0,0,0,0,0,0-2.61,2.02-5.95,4.71-9.66,8.04-.03,.03-.06,.05-.09,.08-.38,.34-.75,.68-1.14,1.03-1.3,1.19-2.63,2.43-4,3.76-.03,.03-.06,.05-.08,.08-3.77,3.68-7.72,7.9-11.54,12.61-.05,.07-.11,.13-.16,.2-.05,.06-.09,.12-.14,.18-.6,.75-1.16,1.46-1.67,2.15-.06,.08-.12,.16-.18,.24-.12,.16-.23,.31-.34,.47-1.15,1.57-2.1,2.98-2.96,4.29-.23,.35-.47,.72-.69,1.06,0,0,0,0,0,.01-.16,.25-.33,.51-.49,.79-.12,.19-.23,.39-.34,.58-.17,.29-.33,.57-.49,.86-.07,.12-.13,.24-.2,.36-.62,1.13-1.15,2.18-1.43,2.75-.16,.32-.46,.98-.8,1.78-.08,.19-.16,.38-.24,.58-.19,.47-.38,.97-.55,1.49,0,0,0,0,0,.01-.14,.41-.27,.82-.38,1.22-.08,.3-.16,.57-.22,.83-.02,.08-.04,.15-.06,.23-.05,.22-.1,.43-.15,.63-.01,.06-.02,.11-.03,.17-.04,.21-.08,.41-.11,.59,0,.05-.02,.11-.03,.17-.01,.08-.02,.17-.04,.25-.09,.66-.14,1.28-.19,2.05,0,.21,0,.42,.04,.63,.03,.21,.08,.42,.15,.62Z"/>
        <path class="cls-5" d="M91.3,3.69s0,0,0,0c-.3-.36-.65-.68-1.04-.95-1.18-.83-2.75-1.3-4.68-1.41-2.58-.14-5.78,.36-9.48,1.48-3.72,1.13-7.94,2.9-12.53,5.28-4.61,2.39-9.59,5.39-14.82,8.98-6.49,4.46-12.72,9.4-18.43,14.5-5.7,5.1-10.86,10.35-15.21,15.45-4.34,5.08-7.87,9.99-10.33,14.43-2.45,4.42-3.84,8.36-3.93,11.53-.01,.51,0,.99,.06,1.44,.05,.45,.14,.88,.25,1.28,.12,.4,.26,.77,.44,1.11,.18,.34,.39,.66,.63,.95l9.49,11.58c-.23-.29-.44-.6-.61-.94-.17-.34-.32-.71-.43-1.1-.11-.39-.19-.81-.24-1.26-.05-.45-.06-.92-.04-1.43,.12-3.14,1.54-7.06,4.02-11.45,2.49-4.42,6.05-9.31,10.41-14.39,4.38-5.09,9.55-10.34,15.27-15.44,5.72-5.11,11.96-10.06,18.46-14.54,5.23-3.61,10.21-6.62,14.81-9.03,4.59-2.4,8.8-4.19,12.5-5.35,3.69-1.15,6.87-1.68,9.43-1.56,2.55,.12,4.47,.87,5.66,2.28-3.22-3.82-6.43-7.64-9.65-11.46Z"/>
        <path class="cls-15" d="M92.67,27.43c-.89-1.07-2.35-1.63-4.28-1.71-1.94-.08-4.35,.33-7.14,1.21-2.8,.88-5.98,2.25-9.45,4.07-3.48,1.82-7.23,4.11-11.18,6.84-4.87,3.37-9.56,7.09-13.86,10.92-4.29,3.83-8.19,7.77-11.49,11.59-3.29,3.81-5.98,7.49-7.88,10.82-1.89,3.31-2.99,6.27-3.11,8.65-.02,.39-.01,.76,.02,1.11,.03,.35,.09,.67,.18,.98,.08,.3,.19,.59,.33,.85s.29,.5,.47,.72l3.53,4.3c-.18-.22-.33-.46-.47-.72-.13-.26-.24-.54-.32-.84-.08-.3-.14-.63-.17-.97s-.04-.71-.02-1.1c.13-2.37,1.24-5.32,3.14-8.63,1.91-3.32,4.6-7,7.9-10.81,3.31-3.82,7.21-7.76,11.5-11.59,4.3-3.84,8.99-7.56,13.86-10.93,3.95-2.73,7.71-5.02,11.18-6.85,3.47-1.83,6.64-3.19,9.44-4.09,2.79-.89,5.19-1.3,7.12-1.23,1.92,.07,3.37,.63,4.26,1.69l-3.58-4.26Z"/>
      </g>
      <path class="cls-19" d="M233.05,228.66c3.84-3.95,7.13-7.72,9.64-11.06,2.52-3.36,4.27-6.31,5-8.6,.73-2.3,.37-3.73-.92-4.33-1.3-.6-3.53-.37-6.53,.64-3.01,1.02-6.79,2.82-11.16,5.35-4.39,2.54-9.36,5.81-14.73,9.74-5.38,3.94-10.65,8.17-15.55,12.44-4.9,4.26-9.42,8.55-13.34,12.62-3.91,4.06-7.2,7.89-9.65,11.26-2.44,3.35-4.04,6.23-4.57,8.41-.53,2.17,.04,3.43,1.52,3.86,1.47,.43,3.85,.04,6.94-1.09,3.07-1.13,6.86-3,11.17-5.55,4.3-2.54,9.12-5.74,14.31-9.56,5.18-3.81,10.23-7.87,14.94-11.97,4.72-4.09,9.1-8.23,12.93-12.17Z"/>
      <path class="cls-12" d="M257.96,186.02c-.02-.36-.02-.69-.04-1.02-.07-1.16-.2-2.16-.33-3.05-.13-.69-.24-1.31-.38-1.87-.04-.25-.11-.51-.16-.74-.11-.45-.33-1.29-.73-2.45-.29-.73-.62-1.63-1.09-2.61-.22-.47-.45-.96-.71-1.47-.07-.13-.18-.29-.27-.45-.45-.82-1.02-1.69-1.54-2.45-.04-.09-.11-.2-.18-.29-.4-.58-1.02-1.31-1.45-1.87-1.11-1.29-3.16-1.76-6.08-1.43-2.36,.27-5.3,1.09-8.73,2.43-.76,.31-1.56,.62-2.38,.98-4.5,1.94-9.69,4.65-15.43,8.11-2.45,1.47-4.99,3.05-7.62,4.81-3.59,2.34-7.33,4.92-11.18,7.73-8.4,6.1-16.61,12.67-24.23,19.33-3.74,3.25-7.33,6.52-10.71,9.75-3.54,3.38-6.86,6.7-9.93,9.95-6.01,6.35-11.02,12.34-14.72,17.59-.85,1.2-1.6,2.36-2.32,3.47-2.32,3.74-3.83,7.01-4.34,9.62-.11,.51-.18,1.02-.2,1.47-.02,.47,0,.89,.07,1.27,.07,.4,.16,.76,.29,1.09,.13,.31,.31,.6,.53,.87,.78,.94,1.38,1.58,1.92,2.14,.76,.76,1.4,1.31,2.25,2.03,0,0,.02,.02,.04,.04,.85,.71,2.69,2,3.9,2.67,.18,.09,.33,.16,.51,.27,1.16,.6,2.27,1.14,3.38,1.58,.09,.02,.18,.07,.27,.11h.02c1.34,.51,2.67,.91,4.16,1.22,.91,.2,1.87,.38,2.92,.51h.02s.02,0,.02,.02c.47,.04,.96,.09,1.47,.13,.29,.02,.58,.04,.89,.07h.11c1.29,.04,2.67,.02,4.12-.09,.71-.04,1.45-.11,2.2-.22h.16c.16-.02,.31-.07,.47-.09,.49-.07,.98-.16,1.45-.25,.38-.07,.73-.13,1.11-.22,.2-.04,.42-.09,.62-.16,.78-.18,1.51-.36,2.2-.58,.31-.09,.62-.16,.91-.25,.11-.04,.2-.07,.29-.09,.56-.18,1.05-.33,1.54-.49,.04-.02,.13-.04,.18-.07,.29-.09,.56-.2,.85-.29,.27-.09,.51-.18,.78-.27,.58-.22,1.16-.47,1.76-.71,.16-.07,.33-.13,.51-.22,.6-.27,1.2-.51,1.8-.78,.2-.11,.4-.2,.62-.31,.51-.22,1-.47,1.49-.69,.07-.04,.16-.09,.25-.13,.85-.4,1.6-.78,2.23-1.09,.38-.2,1.74-.89,3.94-2.14,0-.02,.02-.02,.02-.02,.31-.18,.65-.36,.98-.56,1.25-.73,2.69-1.58,4.39-2.63,.71-.42,1.43-.89,2.14-1.36,2.85-1.8,5.75-3.79,8.73-5.9,.67-.49,1.34-.96,2.03-1.47,.07-.04,.13-.11,.22-.16,1.56-1.14,3.14-2.36,4.74-3.58,1.96-1.51,3.96-3.1,5.99-4.74,1-.82,2-1.65,3.01-2.49,.73-.62,1.74-1.45,2.87-2.45,.16-.11,.29-.24,.45-.38,.76-.65,1.6-1.4,2.49-2.2,.13-.11,.24-.2,.38-.31,1.83-1.65,3.87-3.52,6.01-5.59,.98-.94,1.87-1.8,2.69-2.63,.13-.11,.24-.24,.38-.36,.27-.27,.53-.53,.78-.78,.42-.42,.82-.85,1.2-1.22,.07-.07,.13-.13,.2-.2,.38-.38,.73-.76,1.07-1.11,1.74-1.8,3.07-3.27,4.25-4.56,1.2-1.34,2.41-2.76,3.59-4.19,.87-1.07,1.74-2.14,2.54-3.21,.67-.85,1.27-1.67,1.85-2.49,1.16-1.6,2.18-3.12,3.01-4.48,.36-.62,.69-1.16,.98-1.67,1.4-2.47,2.03-3.92,2.87-5.92,.27-.62,.6-1.54,.89-2.45,.02-.07,.04-.13,.07-.18,.38-1.16,.71-2.34,.85-3.07,.04-.18,.07-.33,.09-.51,.07-.29,.13-.58,.18-.87,.16-.91,.29-1.83,.4-2.83,.02-.29,.07-.6,.09-.91,.04-.76,.09-1.54,.09-2.45,0-.18-.02-.33-.02-.51Zm-10.27,22.98c-.73,2.29-2.47,5.23-4.99,8.6s-5.81,7.13-9.66,11.07c-3.83,3.94-8.19,8.06-12.92,12.16-4.72,4.1-9.78,8.17-14.94,11.98-5.19,3.81-10.02,7.01-14.32,9.55-4.3,2.54-8.08,4.41-11.16,5.54-3.1,1.14-5.46,1.51-6.95,1.09-1.47-.45-2.05-1.69-1.51-3.85,.53-2.18,2.14-5.08,4.56-8.42,2.45-3.36,5.75-7.19,9.66-11.27,1.96-2.03,4.08-4.12,6.3-6.24,2.23-2.12,4.59-4.25,7.04-6.39,4.9-4.25,10.15-8.48,15.54-12.43,2.65-1.96,5.23-3.74,7.66-5.37,2.49-1.65,4.85-3.1,7.06-4.39,4.39-2.52,8.17-4.32,11.18-5.34,1.87-.62,3.43-.94,4.65-.96,.76-.02,1.38,.09,1.87,.33,1.29,.6,1.65,2.03,.91,4.32Z"/>
      <path class="cls-22" d="M147.3,44.99s-.06-.05-.09-.08c-2.14-2.49-3.99-3.95-4.01-3.96-.02-.01-.04-.03-.06-.04-.58-.49-1.25-.99-1.8-1.39-.72-.51-1.45-.97-2.18-1.42-.07-.04-.14-.09-.2-.13-.74-.47-1.78-1.02-2.58-1.37-.03-.01-.07-.03-.11-.05-.42-.18-.88-.39-1.39-.6-.3-.13-.59-.27-.89-.38-.17-.06-.33-.11-.5-.17-.57-.21-1.2-.43-1.88-.63-.13-.04-.25-.08-.38-.11-.56-.16-1.16-.32-1.8-.47-.25-.06-.48-.12-.74-.18-.19-.04-.39-.07-.59-.11-.98-.19-2.04-.35-3.19-.47-.41-.04-.8-.07-1.2-.1-.81-.06-1.64-.11-2.53-.13-.16,0-.3-.02-.47-.02-1.28-.02-2.9,.05-4.82,.27-2.04,.2-6.02,.8-11.33,2.53-.03,0-.06,.02-.09,.03h-.01c-.13,.04-.25,.09-.38,.13-.9,.3-1.79,.62-2.68,.95-.07,.03-.15,.06-.22,.09-.88,.34-1.75,.69-2.61,1.06-1.33,.56-2.6,1.14-3.8,1.71-.7,.34-1.39,.67-2.03,.99-2.9,1.45-5.07,2.69-5.9,3.17-.12,.07-.21,.13-.28,.16-.16,.09-.36,.22-.53,.32-2.54,1.5-6.48,3.88-11.55,7.46-.57,.41-1.16,.83-1.76,1.26-.43,.31-.87,.64-1.31,.96-.77,.57-1.55,1.16-2.37,1.78-.43,.33-.88,.68-1.32,1.03-.73,.57-1.45,1.13-2.21,1.74-1.03,.83-2.09,1.7-3.18,2.61-.21,.18-.4,.33-.62,.51-2.97,2.51-5.38,4.71-7.47,6.72-.04,.04-.07,.07-.11,.1-.47,.45-.93,.9-1.38,1.33-1.11,1.08-2.13,2.11-3.1,3.09-.1,.1-.21,.21-.31,.31-1.06,1.07-1.94,2.02-3.25,3.46-.47,.52-1,1.11-1.61,1.79-.21,.23-.41,.46-.64,.72-.33,.37-.71,.81-1.08,1.26-.54,.64-1.09,1.31-1.55,1.86-.52,.61-1.25,1.53-2.07,2.61-.05,.07-.1,.13-.15,.19-.14,.19-.29,.39-.44,.59-.01,.02-.03,.04-.04,.05-.31,.41-.63,.84-.95,1.28-.36,.5-.73,1.01-1.1,1.52-.39,.55-.78,1.11-1.16,1.66-.03,.05-.06,.1-.1,.15-.13,.2-.26,.39-.39,.59,0,.01-.02,.03-.03,.04-.13,.2-.27,.4-.4,.6-.08,.12-.14,.24-.21,.35-.86,1.34-1.61,2.59-2.26,3.75-.08,.15-.17,.3-.25,.44-.86,1.55-1.56,2.94-2.11,4.12,0,.01-.01,.02-.02,.03-.05,.11-.09,.21-.14,.32-.12,.26-.24,.53-.34,.76-.02,.04-.03,.07-.04,.1-1.49,3.42-2.23,6.1-2.37,6.65-.03,.1-.05,.23-.08,.34-.38,1.5-.73,3.36-1,4.91-.03,.18-.07,.37-.09,.54-.14,.86-.19,2.03-.27,2.9-.05,1.14-.05,2.17-.03,3.09,0,.09,0,.19,0,.28,0,0,0,0,0,0,.02,.47,.04,.91,.07,1.31,0,.04,0,.07,0,.11,0,.07,.01,.12,.02,.18,.02,.3,.05,.6,.07,.85,.09,.81,.2,1.57,.31,2.25,0,0,0,.02,0,.02,0,.01,0,.02,0,.04,.33,1.89,.71,3.17,.72,3.19,.19,.6,.4,1.32,.63,1.99,.02,.08,.04,.14,.07,.22,0,.02,.81,2.43,2.26,5.01,.03,.05,.07,.11,.1,.16,0,.02,.02,.04,.03,.05,.38,.74,.78,1.36,1.38,2.21,.09,.13,.22,.3,.32,.44,0-.04,5.23-21.37,19.74-38.29,21.94-25.59,63.9-58.31,97.28-53.78-.25-.51-.53-.98-.87-1.4Z"/>
      <path class="cls-10" d="M30.46,126.4c-.12-.47-.27-1.15-.41-1.98,0-.04-.02-.08-.03-.13-.1-.57-.19-1.2-.26-1.88l-.1-1.17c-.01-.18-.05-1.22-.05-1.22-.02-.82-.03-1.74,.02-2.75l.06-.81c.04-.53,.07-1.1,.15-1.56l.09-.52c.22-1.27,.56-3.1,.93-4.58,0-.03,.06-.23,.06-.26,.12-.47,.8-2.91,2.16-6.03,.02-.06,.07-.16,.09-.22,0,0,.47-1.03,.49-1.09,.47-1.01,1.14-2.3,1.88-3.64l.25-.43c.61-1.08,1.32-2.26,2.12-3.52,.04-.05,.95-1.46,.95-1.46,.47-.7,.85-1.24,1.22-1.76,.35-.49,.7-.98,1.05-1.46,0,0,.96-1.29,.98-1.32l-.02,.03s.57-.76,.58-.76c.77-1.01,1.46-1.87,1.94-2.44l1.55-1.86c.35-.42,.69-.82,.99-1.15l2.24-2.5c1.24-1.38,2.08-2.28,3.1-3.3,0,0,.31-.31,.32-.32,.96-.97,1.97-1.98,3.05-3.04,0,0,1.5-1.45,1.52-1.47,2.32-2.22,4.63-4.3,7.2-6.46l.6-.49c1.07-.89,2.1-1.75,3.11-2.56,.69-.56,1.35-1.07,2.02-1.59l1.42-1.11c.8-.62,1.56-1.19,2.32-1.74l1.28-.95c.58-.42,1.15-.83,1.71-1.23,4.71-3.33,8.48-5.63,11.24-7.26l.78-.46c.77-.45,2.87-1.64,5.65-3.03,.62-.31,1.28-.63,1.95-.95,1.15-.54,2.37-1.1,3.64-1.64,.8-.34,1.62-.68,2.46-1l.21-.08c.83-.32,1.66-.61,2.49-.89,.05-.02,.52-.17,.57-.2,4.85-1.58,8.53-2.12,10.28-2.29,1.46-.17,2.79-.25,4.01-.25,0,0,.67,.02,.71,.02,.83,.02,1.57,.07,2.3,.12,.38,.03,.72,.05,1.07,.09,1.02,.11,1.95,.25,2.82,.42l.85,.18,.3,.07c.55,.13,1.08,.26,1.56,.41,0,0,.38,.11,.39,.11,.53,.16,1.08,.35,1.58,.54l.43,.15s1.71,.73,2.1,.9c.76,.34,1.6,.78,2.11,1.1,.02,.01,.07,.05,.13,.08-19.1,2.03-54.77,15.34-89.18,55.47-8.48,9.89-13.9,21.08-17.05,29.13Z"/>
      <path class="cls-18" d="M134.09,264.8c-.21-.26-.38-.55-.52-.87-.14-.32-.23-.68-.29-1.07-.06-.39-.08-.82-.06-1.27,.02-.46,.08-.95,.19-1.48,.67-3.39,3-7.88,6.66-13.1,3.69-5.26,8.71-11.24,14.72-17.58,6.03-6.36,13.04-13.07,20.65-19.71,7.62-6.65,15.82-13.23,24.22-19.33,6.72-4.88,13.04-9.08,18.81-12.54,5.75-3.45,10.93-6.16,15.42-8.09,4.46-1.92,8.22-3.08,11.13-3.42,2.9-.34,4.96,.12,6.06,1.42L148.17,46.39c-33.38-4.53-75.34,28.19-97.28,53.78-14.52,16.94-19.74,38.3-19.74,38.3,0,0,15.89,19.61,32.84,40.41,9.94,12.21,21.46,26.23,27.09,33.2,14.17,17.56,43.54,53.34,43.01,52.72Z"/>
      <path class="cls-23" d="M191.78,239.22c-2.23,2.12-4.34,4.21-6.3,6.24-3.92,4.08-7.22,7.91-9.66,11.27-20.04,6.21-38.06-6.24-38.06-6.24L35.27,126.4c-6.37-6.37-4.34-16.86-4.34-16.86,5.68-12.29,16.23-27.12,16.23-27.12l117.56,137.04c3.32,7.28,27.06,19.75,27.06,19.75Z"/>
      <path class="cls-20" d="M244.91,204.34c-1.22,.02-2.78,.33-4.65,.96-3.01,1.02-6.79,2.83-11.18,5.34-2.2,1.29-4.57,2.74-7.06,4.39,2.83-12.8-9.69-30.35-11.18-32.38-.11-.13-.16-.2-.16-.2L96.69,43.96c18.51-7.64,27.75-6.1,27.75-6.1l111.83,130.9c8.91,14.45,8.64,35.59,8.64,35.59Z"/>
      <g>
        <g>
          <path class="cls-1" d="M131.89,107.83c6.1-6.59,5.69-16.88-.9-22.97-6.59-6.1-16.88-5.69-22.97,.9l-12.9,13.96,23.88,22.07,12.9-13.96Z"/>
          <path class="cls-11" d="M83.11,136.65c6.59,6.1,16.88,5.69,22.97-.9l12.9-13.96-23.88-22.07-12.9,13.96c-6.1,6.59-5.69,16.88,.9,22.97Z"/>
          <g class="cls-21">
            <rect class="cls-11" x="105.45" y="95.2" width="1.91" height="32.52" transform="translate(-47.67 113.93) rotate(-47.25)"/>
          </g>
          <rect class="cls-3" x="108.91" y="93.77" width="8.75" height="41.85" rx="3" ry="3" transform="translate(107.95 -46.43) rotate(42.75)"/>
          <rect class="cls-2" x="117.96" y="101.4" width="5.12" height="12.23" rx="1.76" ry="1.76" transform="translate(105 -53.24) rotate(42.75)"/>
        </g>
        <g class="cls-21">
          <path class="cls-11" d="M89.74,120.64l12.9-13.96,12.9-13.96c4.88-5.28,12.44-6.58,18.64-3.77-.82-1.49-1.88-2.88-3.2-4.1-6.59-6.1-16.88-5.69-22.97,.9l-12.9,13.96-12.9,13.96c-6.1,6.59-5.69,16.88,.9,22.97,1.32,1.22,2.79,2.16,4.33,2.87-3.29-5.97-2.58-13.6,2.29-18.88Z"/>
        </g>
      </g>
      <g>
        <g>
          <path class="cls-9" d="M164.53,166.18c6.59,6.1,16.88,5.69,22.97-.9,6.1-6.59,5.69-16.88-.9-22.97l-13.96-12.9-22.07,23.88,13.96,12.9Z"/>
          <path class="cls-11" d="M135.71,117.4c-6.1,6.59-5.69,16.88,.9,22.97l13.96,12.9,22.07-23.88-13.96-12.9c-6.59-6.1-16.88-5.69-22.97,.9Z"/>
          <g class="cls-21">
            <rect class="cls-11" x="144.65" y="139.74" width="32.52" height="1.91" transform="translate(-51.63 163.34) rotate(-47.25)"/>
          </g>
          <path class="cls-3" d="M156.29,126.65h2.75c1.66,0,3,1.35,3,3v35.84c0,1.66-1.35,3-3,3h-2.75c-1.66,0-3-1.35-3-3v-35.84c0-1.66,1.35-3,3-3Z" transform="translate(373.05 131.98) rotate(132.75)"/>
          <rect class="cls-2" x="162.29" y="148.69" width="5.12" height="12.23" rx="1.76" ry="1.76" transform="translate(390.41 138.83) rotate(132.75)"/>
        </g>
        <g class="cls-21">
          <path class="cls-11" d="M151.72,124.03l13.96,12.9,13.96,12.9c5.28,4.88,6.58,12.44,3.77,18.64,1.49-.82,2.88-1.88,4.1-3.2,6.1-6.59,5.69-16.88-.9-22.97l-13.96-12.9-13.96-12.9c-6.59-6.1-16.88-5.69-22.97,.9-1.22,1.32-2.16,2.79-2.87,4.33,5.97-3.29,13.6-2.58,18.88,2.29Z"/>
        </g>
      </g>
      <g>
        <g>
          <path class="cls-6" d="M192.3,183.93c5.23-7.3,3.54-17.46-3.76-22.68-7.3-5.23-17.46-3.54-22.68,3.76l-11.06,15.46,26.44,18.92,11.06-15.46Z"/>
          <path class="cls-11" d="M147.49,218.62c7.3,5.22,17.46,3.54,22.68-3.76l11.06-15.46-26.44-18.92-11.06,15.46c-5.22,7.3-3.54,17.46,3.76,22.68Z"/>
          <g class="cls-21">
            <rect class="cls-11" x="166.5" y="174.45" width="1.91" height="32.52" transform="translate(-85.08 215.92) rotate(-54.42)"/>
          </g>
          <rect class="cls-3" x="170.31" y="172.14" width="8.75" height="41.85" rx="3" ry="3" transform="translate(144.98 -65.6) rotate(35.59)"/>
          <rect class="cls-2" x="178.41" y="178.92" width="5.12" height="12.23" rx="1.76" ry="1.76" transform="translate(141.46 -70.75) rotate(35.58)"/>
        </g>
        <g class="cls-21">
          <path class="cls-11" d="M152.07,201.9l11.06-15.46,11.06-15.46c4.18-5.84,11.52-8.08,18.02-6.06-1-1.38-2.22-2.62-3.68-3.67-7.3-5.23-17.46-3.54-22.68,3.76l-11.06,15.46-11.06,15.46c-5.22,7.3-3.54,17.46,3.76,22.68,1.46,1.04,3.03,1.8,4.66,2.3-4.01-5.51-4.26-13.17-.08-19.02Z"/>
        </g>
      </g>
      <g>
        <g>
          <path class="cls-16" d="M131.84,190.49c8.76,1.99,17.47-3.49,19.46-12.24,1.99-8.76-3.49-17.47-12.24-19.46l-18.54-4.22-7.22,31.7,18.54,4.22Z"/>
          <path class="cls-11" d="M82.52,162.59c-1.99,8.76,3.49,17.47,12.24,19.46l18.54,4.22,7.22-31.7-18.54-4.22c-8.76-1.99-17.47,3.49-19.46,12.24Z"/>
          <g class="cls-21">
            <rect class="cls-11" x="99.72" y="169.25" width="32.52" height="1.91" transform="translate(-75.72 245.51) rotate(-77.17)"/>
          </g>
          <path class="cls-3" d="M115.23,156.86h2.75c1.66,0,3,1.35,3,3v35.84c0,1.66-1.35,3-3,3h-2.75c-1.66,0-3-1.35-3-3v-35.84c0-1.66,1.35-3,3-3Z" transform="translate(315.84 103.56) rotate(102.83)"/>
          <rect class="cls-2" x="123.88" y="174.35" width="5.12" height="12.23" rx="1.76" ry="1.76" transform="translate(330.47 97.25) rotate(102.83)"/>
        </g>
        <g class="cls-21">
          <path class="cls-11" d="M99.71,160.34l18.54,4.22,18.54,4.22c7.01,1.6,11.9,7.5,12.56,14.28,.88-1.45,1.56-3.06,1.96-4.81,1.99-8.76-3.49-17.47-12.24-19.46l-18.54-4.22-18.54-4.22c-8.76-1.99-17.47,3.49-19.46,12.24-.4,1.75-.49,3.49-.32,5.19,3.53-5.83,10.5-9.02,17.51-7.43Z"/>
        </g>
      </g>
      <g>
        <g>
          <path class="cls-8" d="M179.39,101.48c-5.23-7.3-15.38-8.98-22.68-3.76-7.3,5.23-8.98,15.38-3.76,22.68l11.06,15.46,26.44-18.92-11.06-15.46Z"/>
          <path class="cls-11" d="M197.76,155.08c7.3-5.23,8.98-15.38,3.76-22.68l-11.06-15.46-26.44,18.92,11.06,15.46c5.23,7.3,15.38,8.98,22.68,3.76Z"/>
          <g class="cls-21">
            <rect class="cls-11" x="161.53" y="126.22" width="32.52" height="1.91" transform="translate(-40.81 127.22) rotate(-35.59)"/>
          </g>
          <rect class="cls-3" x="177.97" y="100.17" width="8.75" height="41.85" rx="3" ry="3" transform="translate(-36.41 128.74) rotate(-35.59)"/>
          <rect class="cls-2" x="174.22" y="106.45" width="5.12" height="12.23" rx="1.76" ry="1.76" transform="translate(-32.49 123.91) rotate(-35.59)"/>
        </g>
        <g class="cls-21">
          <path class="cls-11" d="M183.41,145.35l-11.06-15.46-11.06-15.46c-4.18-5.84-3.93-13.51,.08-19.02-1.62,.5-3.2,1.26-4.66,2.3-7.3,5.23-8.98,15.38-3.76,22.68l11.06,15.46,11.06,15.46c5.23,7.3,15.38,8.98,22.68,3.76,1.46-1.04,2.68-2.29,3.68-3.67-6.51,2.01-13.84-.22-18.03-6.06Z"/>
        </g>
      </g>
    </g>
  </g>
</svg>