<?xml version="1.0" encoding="utf-8"?>
<!DOCTYPE svg PUBLIC "-//W3C//DTD SVG 1.1//EN" "http://www.w3.org/Graphics/SVG/1.1/DTD/svg11.dtd">
<svg version="1.1" id="Layer_1" xmlns="http://www.w3.org/2000/svg" xmlns:xlink="http://www.w3.org/1999/xlink" x="0px" y="0px"
	 viewBox="0 0 1920 1357" enable-background="new 0 0 1920 1357" xml:space="preserve">
<g>
	<g id="_x23_f7c4cdff">
		<path fill="#F7C4CD" stroke="#F7C4CD" stroke-width="0.0938" d="M0,0h139.77c-0.42,21-0.39,42.01-1.09,62.99
			c-0.53,307-0.46,614-0.44,921c-0.12,38.66,0.04,77.35-0.03,116.02c0.01,5.55,0.22,11.12-0.49,16.65
			c-45.91-0.02-91.81,0.64-137.72,0.64V0z"/>
		<path fill="#F7C4CD" stroke="#F7C4CD" stroke-width="0.0938" d="M1758.13,0H1920v1357h-160.3101
			c0.02-138.34,0.02-276.6801,0.04-415.03c-0.09-222,0.2001-443.99-0.2999-665.99c-0.2201-30.68,0.1499-61.39-0.4801-92.05
			c0.6901-6.99-0.5499-13.96-0.1899-20.95C1758.6,108.65,1758.8101,54.32,1758.13,0z"/>
	</g>
	<g id="_x23_010000ff">
		<path fill="#010000" stroke="#010000" stroke-width="0.0938" d="M139.77,0h3.44c0.11,29.34,1.15,58.68,1.01,88.02
			c0.18,173.67,0.57,347.34,0.56,521c0.06,249.33,0.08,498.65,0.06,747.98h-6.62c0-53.34,0-106.6899,0-160.03
			c0.04-4.39,0.06-8.7899-0.4-13.15c-9.69,6.54-19.14,13.4301-28.82,20c-1.7,1.4501-4.75,2.4501-4.43,5.1801
			c-0.02,10.16,0.16,20.33,0.18,30.5c0.91,11.12,0.43,22.29,0.64,33.45c0.13,28.01,0.27,56.03,0.36,84.05h-6.4
			c0.18-24.66,0.36-49.33,0.44-73.99c0.66-24.4,0.57-48.8201,0.83-73.23C67.06,1233.0699,33.59,1256.5,0,1279.75v-8.05
			c41.86-29.46,84.26-58.1799,126.37-87.2899c3.79-2.86,8.26-4.9401,11.53-8.42c0.74-14.3099,0.1-28.72,0.29-43.0599
			c-7.28,3.58-13.73,8.58-20.68,12.75C78.45,1170.34,39.06,1194.5,0,1219.16v-6.9301c33.94-21.8099,68.04-43.39,102.03-65.13
			c11.83-7.35,23.47-15.02,35.53-22c0.13-0.97,0.26-1.9199,0.39-2.86c-45.97-0.74-91.96-0.46-137.95-0.71v-4.23
			c45.91,0,91.81-0.66,137.72-0.64c0.71-5.53,0.5-11.1,0.49-16.65c0.07-38.67-0.09-77.36,0.03-116.02c-0.02-307-0.09-614,0.44-921
			C139.38,42.01,139.35,21,139.77,0z"/>
		<path fill="#010000" stroke="#010000" stroke-width="0.0938" d="M855.17,184.57c25.59-0.7,51.2-0.2,76.8-0.38
			c74.33-0.05,148.66-0.09,222.98-0.12c20.14,0.07,40.29-0.17,60.4301,0.13c-3.3101,7.7-8.05,14.66-12.13,21.95
			c-4.38,7.81-9.12,15.41-13.26,23.35c-26.3199,0.44-52.66,0.08-78.99,0.2c-71.34,0.05-142.68-0.02-214.02-0.46
			c-3.97-0.31-7.94-0.57-11.92-0.48c-5.55-0.23-11.12,0.11-16.65-0.38c-5.7599-6.73-6.65-15.86-8.8799-24.08
			C858.12,197.71,855.92,191.28,855.17,184.57 M859.97,189.56c1.07,4.53,2.4901,8.96,3.7,13.45c1.83,7.13,4.67,14.1,4.79,21.56
			c9.21-0.26,18.42-0.12,27.63-0.32c4.27-0.81,8.6299-0.39,12.95-0.5c92.73-0.44,185.47-0.39,278.2-0.26
			c0.66-1.1,1.35-2.18,2.05-3.26c5.76-9.98,11.73-19.83,17.64-29.73c-89.28-0.33-178.5801-0.14-267.85-0.47
			C912.71,189.61,886.33,190.1,859.97,189.56z"/>
		<path fill="#010000" stroke="#010000" stroke-width="0.0938" d="M1378.01,372.95c0.79-4.47-0.61-8.89-0.52-13.36
			c18.5,0.48,37.01,0.08,55.52,0.22c58.66-0.01,117.3199,0,175.99,0c6.48,0.12,12.98-0.33,19.46,0.31
			c0.26,2.42,0.9401,4.78,2.37,6.79c-0.64-0.5-1.9199-1.49-2.5599-1.99c0.09,1.08,0.27,3.24,0.35,4.32
			c-0.89-1.59-1.8-3.19-2.65-4.79c-79.46-0.38-158.9299-0.08-238.4-0.15c0.2001,0.22,0.6001,0.67,0.8,0.89
			c-1.91-0.84-3.96-1.25-5.96-1.7l0.0299,0.84c-0.25,24.02-0.11,48.05-0.0699,72.08c7.03-4.01,13.9-8.31,20.99-12.24l1.03-0.56
			c0.4399-0.24,1.33-0.7,1.77-0.94c54.6-0.02,109.21,0,163.8099-0.01c25.1901,0.12,50.38-0.23,75.5701,0.2
			c0.51,0.02,1.52,0.05,2.02,0.07c0.0099,1.45,0.0499,2.9,0.1,4.36c-6.9301,5-13.87,10-20.5701,15.31
			c-82.89,0.23-165.7799,0.05-248.6699,0.09c-0.11-4.24-1.24-8.51-0.16-12.71c-1.16-7.6,0.75-15.24-0.3201-22.87
			c0.54-5.38-0.3199-10.73-0.1699-16.12C1378.47,384.98,1377.39,378.96,1378.01,372.95 M1405.6,427.52
			c-6.0499,3.66-12.27,7.05-18.16,10.98c23.8501,0.31,47.7101,0.04,71.5601,0.13c55.3199-0.07,110.66,0.14,165.97-0.1
			c5.9-3.5,11.0901-8.21,16.8301-12.02c-77.26-0.13-154.53,0-231.79-0.07C1408.4399,426.37,1406.89,426.6,1405.6,427.52z"/>
		<path fill="#010000" stroke="#010000" stroke-width="0.0938" d="M1574.65,373.07c-0.62-1.05-0.26-2.33-0.35-3.47
			c14.25-0.24,28.51-0.07,42.76-0.1c1.9199-0.47,2.8899,1.18,3.85,2.52c2.38,4.43,6.26,8.23,6.98,13.4
			c-3.15,1.4-6.61,0.94-9.9301,1.01c-11.71-0.04-23.4099,0.3-35.11,0.13C1580.65,381.74,1577.42,377.53,1574.65,373.07
			 M1580.08,373.55c1.77,3.05,3.66,6.04,5.63,8.98c12.17-0.18,24.3401-0.15,36.52-0.32c-1.6-3.02-3.4199-5.92-5.39-8.7
			C1604.58,373.57,1592.33,373.48,1580.08,373.55z"/>
		<path fill="#010000" stroke="#010000" stroke-width="0.0938" d="M780.37,980.92c1.07,0.28,2.16,0.58,3.25,0.89
			c-0.17,7.73,0.83,15.43,0.66,23.16c0.09,26.6801,0.24,53.36,0.41,80.03c-0.08,6.46,1.26,12.9399-0.05,19.36
			c-2.08-0.01-4.16,0.03-6.22,0.08c0.01-0.5399,0.02-1.61,0.03-2.1399c0.39-23.3501-0.23-46.7101,0.89-70.03
			c0.5-5.0701,0.77-10.16,0.68-15.24C779.91,1004.99,781.37,992.95,780.37,980.92z"/>
	</g>
	<g id="_x23_ebb2bbff">
		<path fill="#EBB2BB" stroke="#EBB2BB" stroke-width="0.0938" d="M143.21,0h54.51c-0.1,58.02-0.4,116.03-0.48,174.05
			c-0.08,9.34,0.19,18.68-0.42,28c-0.39,142.66-0.28,285.32-0.33,427.99c-0.08,242.32-0.04,484.6401-0.04,726.96h-51.61
			c0.02-249.33,0-498.65-0.06-747.98c0.01-173.66-0.38-347.33-0.56-521C144.36,58.68,143.32,29.34,143.21,0z"/>
		<path fill="#EBB2BB" stroke="#EBB2BB" stroke-width="0.0938" d="M1716.34,0h38.4401c-0.63,29.33-0.4301,58.68-0.61,88.02
			c-0.66,49.98-0.37,99.97-0.61,149.96c-0.1801,53.99-0.3601,107.97-0.4301,161.96c-0.55,25.7-0.24,51.4-0.33,77.11
			c-0.02,293.31-0.01,586.6301,0.0499,879.95H1717.53c0.23-215.33,0.09-430.65,0.12-645.98c-0.04-218.68-0.14-437.36-0.36-656.04
			C1716.15,36.68,1716.79,18.32,1716.34,0z"/>
		<path fill="#EBB2BB" stroke="#EBB2BB" stroke-width="0.0938" d="M117.51,1145.6801c6.95-4.17,13.4-9.17,20.68-12.75
			c-0.19,14.34,0.45,28.75-0.29,43.0599c-3.27,3.48-7.74,5.5601-11.53,8.42C84.26,1213.52,41.86,1242.24,0,1271.7V1219.16
			C39.06,1194.5,78.45,1170.34,117.51,1145.6801z"/>
		<path fill="#EBB2BB" stroke="#EBB2BB" stroke-width="0.0938" d="M0,1279.75c33.59-23.25,67.06-46.6801,100.62-69.97
			c-0.26,24.4099-0.17,48.83-0.83,73.23c-0.08,24.66-0.26,49.33-0.44,73.99H0V1279.75z"/>
	</g>
	<g id="_x23_020000ff">
		<path fill="#020000" stroke="#020000" stroke-width="0.0938" d="M197.72,0h3.9c0.28,20.67-0.37,41.36,0.64,62
			c0.14,29.63-0.01,59.26,0.32,88.88c4.91,2.52,9.6,5.45,14.34,8.27c78.93,47.26,158.23,93.89,237.05,141.32
			c23.36,0.05,46.72-0.22,70.09-0.18c19.96-1.12,39.98-0.38,59.96-0.7c105.32-0.37,210.64-0.12,315.96-0.18
			c235.6801-0.03,471.36-0.05,707.04,0c21.35-0.09,42.73,0.11,64.09-0.08c13.6-5.15,26.75-11.57,40.1801-17.22
			c0.13-81.37-0.02-162.74,0.38-244.11c-0.17-12.68,0.8999-25.32,0.75-38h3.9199c0.4501,18.32-0.1899,36.68,0.9501,54.98
			c0.22,218.68,0.3199,437.36,0.36,656.04c-0.03,215.33,0.11,430.65-0.12,645.98h-6.23c-0.8201-15.9399-0.4301-31.9-0.53-47.85
			c-27.25-0.7101-54.53-0.23-81.79-0.49c-31.41,0.0399-62.83-0.55-94.24-0.12c-0.28-0.39-0.85-1.17-1.13-1.55
			c-0.34-10.34-1.27-20.65-0.95-30.99c0.22-16-0.1901-32.02,0.5699-48c-0.2-2.3,0.46-5.04-1.16-6.91
			c-49.35-53.37-98.73-106.7-148.0599-160.08c-26.16-28.53-52.26-57.12-78.4-85.67c-1.61-1.52-3.0499-3.89-5.5599-3.6
			c-13.03-0.21-26.0701-0.26-39.1101-0.3c-1.4099-0.09-2.86,0.03-4.1799-0.43c-1.86-0.38-1.25-2.67-1.5-4.02
			c-0.03-19.54,0.11-39.08,0.09-58.61c-11.11,0.16-22.22,0.31-33.33,0.49c-15.35,1.15-30.72-0.25-46.0801-0.26
			c-11.22-0.17-22.45-0.26-33.6399-1.14c-6.5701-9.9399-13.9301-19.33-20.76-29.09c-2.4601-3.73-5.8401-6.66-8.7201-10.02
			c-13.62,0-27.24,0.22-40.85,0.37c-18.28,1.43-36.6699,0.12-54.95,1.56c-12.73,0.08-25.46,0.33-38.19,0.35
			c-0.4-0.75-1.22-2.26-1.63-3.01c0.27-1.12,0.53-2.22,0.81-3.32c-0.31,0.06-0.91,0.19-1.22,0.26c-0.55-0.36-1.66-1.09-2.21-1.45
			c0.3-0.27,0.9-0.81,1.2-1.08c-32.28-6.2-64.48-12.79-96.78-18.85c-2.86-0.65-5.73-1.22-8.59-1.81c-0.03,3.36,0.02,6.73,0.09,10.11
			c-7.45,1.38-15.03,0.74-22.54,0.83c-6.15-0.07-12.35,0.33-18.41-0.89c-0.29-5.64-0.19-11.39-1.87-16.83
			c-44.59,11.06-89.34,21.52-133.96,32.46c-1.45,0.44-2.77,1.17-4.0699,1.93c-0.5,0.29-1.5,0.88-2,1.17
			c-1.12-0.29-2.23-0.53-3.34-0.77c1.44,6.41,3.51,12.66,5.25,18.99c2.36,1.12,4.72,2.32,7.31,2.88c8.72,2.02,17.44,4.01,26.15,6.09
			c-1.03,0.64-2.07,1.26-3.11,1.87C695.6,905.61,671.34,912.15,647,918.43c-6.4,1.63-12.74,3.54-19.24,4.75
			c9.61,3.36,19.61,5.45,29.39,8.28c29.67,7.83,59.34,15.65,88.98,23.55c-0.6,0.42-1.82,1.24-2.43,1.65
			c-20.56-5.5699-41.12-11.1-61.74-16.45c-18.32-4.81-36.61-9.78-54.94-14.54c2.38,7.54,4.3,15.3,7.84,22.42
			c41.4,11.22,82.87,22.2,124.25,33.5099c4.07,1.09,8.13,2.31,12.31,2.9901c0.06-0.79,0.18-2.3701,0.25-3.16
			c0.68,1.14,1.39,2.33,2.06,3.51c-0.88,12.98,0.26,26.04,0.01,39.05c1.21,26.23,0.68,52.51,0.87,78.76l1.3,0.3199
			c-0.54,0.16-1.62,0.4701-2.16,0.63c-2.01-0.0199-4.02-0.23-6.01-0.36c-0.21-23.7999-0.1-47.6,0.52-71.38
			c0.43-15.1199-0.04-30.27,1.08-45.35c-22.31-6.22-44.73-12.03-67.03-18.29c-0.16,22.03,0.19,44.06,0.02,66.09
			c-2.33,0.2-4.66,0.37-6.98,0.47c0.21-20.31,0.1-40.62,0.28-60.93c0-2.95,0.15-5.95-0.69-8.8c-1.94,5.12-0.56,10.55-0.71,15.84
			c-0.03,14.01,0.01,28.01,0.02,42.02c0.02,3.9399-0.26,7.96,0.76,11.83c-2.21-0.2799-4.47-0.5399-6.45-1.58
			c-1.27-1.0701-0.87-2.83-0.99-4.25c0.11-15.34,0.1-30.67,0.15-46c0.0601-6.09-0.3-12.2,0.63-18.24
			c-14.54-4.06-29.12-7.96-43.72-11.77c1.11,11.65,0.49,23.38,0.81,35.06c0.19,16.31,0.25,32.61,0.39,48.92
			c0.51,8.4,0.37,16.8301,0.52,25.25c-2.08,0.77-4.1,1.8-6.31,2.14c-3.49-0.33-6.58-2.17-9.5099-3.95
			c-0.4-22.4701,0.0699-44.9501,0.21-67.4301c0.94-13.98,0.56-28.01,0.91-42.01c0.33-4.49-1.61-8.62-2.9301-12.79
			c-1.55-4.7-3.09-9.41-4.47-14.16c0.87-0.8101,1.73-1.61,2.61-2.41c20.49-5.54,41.08-10.76,61.6-16.25
			c-0.11-4.76,0.54-9.52,0.14-14.26c-1.19-5.01-2.93-9.87-4.23-14.85c-75.12,0.74-150.25,0.74-225.36-0.2
			c-2.91,0.07-6.05-0.41-8.67,1.12c-22.32,11.98-44.57,24.11-67.04,35.81c-0.82,7.31-0.37,14.67-0.47,22.01
			c-0.08,15.2,0.11,30.4-0.07,45.6c-59.87,37.96-119.53,76.23-179.39,114.2101c-0.07,87.3899,0,174.7899-0.03,262.1899h-6.89
			c0-242.3199-0.04-484.64,0.04-726.96c0.05-142.67-0.06-285.33,0.33-427.99c0.61-9.32,0.34-18.66,0.42-28
			C197.32,116.03,197.62,58.02,197.72,0 M202.54,157.92c-0.06,56.71,0.21,113.42,0.2,170.13c0.18,1.31,0.35,2.61,0.52,3.92
			c-0.09,4.41-0.02,8.83,0.08,13.25c21.31,7.06,42.49,14.51,63.81,21.57c1.28,0.46,2.57,0.93,3.85,1.42
			c0.53,0.13,1.58,0.38,2.11,0.51c0.99,0.4,1.99,0.79,3,1.16c0.99,0.33,1.98,0.64,2.98,0.94c18.67,6.33,37.34,12.7,56.02,19.02
			c0.98,0.32,1.98,0.63,2.98,0.94c1.27,0.5,2.55,0.99,3.82,1.52c0.55,0.09,1.63,0.29,2.17,0.39c1.27,0.53,2.55,1.05,3.82,1.6
			c0.53,0.11,1.58,0.34,2.11,0.46c3.25,1.23,6.57,2.28,9.85,3.43c7.66,2.51,15.25,5.25,22.93,7.71
			c0.14,136.37-0.01,272.74,0.05,409.12c0,28.67-0.02,57.34,0,86c0,2.05-0.01,4.11,0.01,6.18c10.29-4.96,20.2-10.69,30.37-15.91
			c11.76-6.33,23.59-12.52,35.34-18.85c-0.01-128.81,0.05-257.61,0.21-386.41c0.02-6.02-0.2-12.05,0.41-18.05
			c0.58-6.69-1.05-13.39,0.03-20.05c0.06-3.67,0.07-7.34-0.29-10.99c0.61-13.96,0.19-27.96,0.33-41.93
			c0.01-30.08,0.02-60.16,0.08-90.24c-0.74-1.26-1.47-2.52-2.19-3.78c-9.03-4.95-17.84-10.31-26.73-15.5
			c-54.86-32.08-109.62-64.33-164.42-96.5C238.14,178.69,220.54,167.95,202.54,157.92 M1688.02,297.17
			c-5.5701,2.33-11.0601,4.85-16.67,7.1c0.01,110.56,0.23,221.13,0.3201,331.7c0.23,23.34-0.38,46.71,0.58,70.03
			c0.0699,42.25-0.0699,84.5,0.26,126.75c12.75,7.74,25.41,15.61,38.13,23.4c0.16-143.72,0-287.4301,0.16-431.15
			c-0.0701-6.32-0.1101-12.65,0.3999-18.95c-0.36-7.01-0.76-14.05-0.13-21.05c0.0601-10.66,0.25-21.33,0.14-32
			c0.0701-18,0.03-36,0.0601-54c-0.01-3.87,0.24-7.79-0.5601-11.61C1703.1899,290.77,1695.61,293.98,1688.02,297.17 M455,304.41
			c-0.48,31.87,0.19,63.76,0.16,95.64c0.17,157.18,0.32,314.36,0.32,471.54c17.41,0,34.83,0.2,52.25,0.16
			c-2.62-25.51-4.91-51.09-5.18-76.75c-0.54-47.84,1.43-95.96,10.53-143.03c-0.23-1.68-0.38-3.36-0.49-5.04
			c7.55-19.05,5.0699-40.12,2.31-59.9c-1.1-8.3101-3.07-16.48-4.36-24.77c-2.48-15.01-4.09-30.15-5.19-45.32
			c-2.89-40.41-3.85-80.99-1.84-121.47c2.08,0.51,4.15,1.1,6.24,1.63l-1.23-0.1c-1.01,23.66-1.37,47.36-0.53,71.02
			c0.97,30.06,2.49,60.16,6.96,89.94c1.75,11.75,4.5,23.33,5.88,35.15c0.49,3.69,0.61,7.45,1.66,11.05
			c3.92,0.15,7.77,0.9901,11.52,2.16c5.72,0.54,11.43-0.07,17.06-1.09c7.02-1.88,13.78-4.79,21.03-5.7
			c5.9-33.17,9.09-66.8,9.7-100.48c0.94-10.66,0.52-21.37,0.69-32.06c-0.19-9,0.16-18.03-0.65-27.02
			c-0.38-8.31-0.03-16.65-0.77-24.94c-0.68-6.07-0.11-12.25-1.52-18.23c1.64-0.3,3.27-0.69,4.91-1.04c0.06,1.72,0.18,3.43,0.36,5.15
			l0.61,1.38c-0.02,0.35-0.05,1.05-0.07,1.39c156.29-0.11,312.59-0.06,468.89-0.17c-0.1899-0.68-0.55-2.03-0.74-2.7
			c0.24-0.52,0.71-1.56,0.95-2.08c-0.27-0.48-0.8099-1.45-1.0699-1.94c2.01-0.54,4.09-0.63,6.12-0.04
			c-1.26,18.05-1.27,36.18-1.15,54.27c0.25,9.99,0.04,20,0.8201,29.97c1,28.52,2.9099,57.08,7.59,85.27
			c1.77,9.91,3.91,19.77,4.85,29.82c0.1801,0.99,0.0601,2.53,1.36,2.86c5.25,2.03,10.4401,4.31,15.99,5.41
			c12.17,1.19,23.0701-4.8199,34.5-7.67c7.36-40.44,9.1801-81.65,9.8-122.67c0.26-11.02-0.5801-22.01-0.63-33.02
			c-0.29-14.73-0.8101-29.46-2.23-44.12c1.5499-0.31,3.08-0.72,4.64-1.1c-0.1001,3.71-0.04,7.44,0.46,11.13
			c0.87,6.32,0.4,12.72,0.83,19.08c0.27,3.18-0.4299,6.63,1.1901,9.55c0.11,17.52,1.48,35.01,0.58,52.54
			c-0.87,8.58-0.16,17.24-0.86,25.84c-0.96,6.67-0.42,13.44-1.08,20.14c-1.54,20.67-3.6901,41.34-7.26,61.79
			c-0.54,2.35,1.22,4.8199-0.2001,7.02c-2.86,5.29-3.7999,11.3-5.1699,17.08c-0.7001,8.87,2.3199,17.56,4.59,26.03
			c0.2,4.27,0.62,8.54,1.61,12.72c7.05-0.47,14.17,0.04,21.2-0.89c6.01-0.49,12.0701-0.38,18.0601,0.46
			c13.4,0.25,26.76,1.52,40.17,1.51l0.6899,0.48c11.73,0.54,23.4501-1.39,35.17-0.66c14.84,3.37,29.34,8.0099,43.95,12.25
			c1.5,0.5,3.1901,0.86,4.24,2.19c1.24,4.1899,0.92,8.6299,0.97,12.95c0.0601,20.99-0.0599,41.98,0.1201,62.96
			c18.3099-7.98,37.33-14.39,56.8199-18.78l0.67-0.37c6.08-1.15,12.08-2.78,18.22-3.68c56.6799-10.44,115.0699-10.96,172.03-2.31
			c29.0699,4.47,57.73,12.04,84.9099,23.37c13.55,5.79,26.0801,13.69,37.6801,22.75c1.28-5.53,0.42-11.26,0.67-16.88
			c0.1499-138.02,0.23-276.04,0.47-414.05c-0.04-6.01-0.0701-12.01,0.02-18.02c0.3199-5.45,1.0499-11-0.16-16.4
			c-22.2001,0.21-44.4,0.04-66.6,0.1c-255.3501,0.03-510.6901,0.01-766.03,0c-104.99,0.03-209.98,0.06-314.96-0.56
			C497.05,304.31,476.01,304.79,455,304.41 M203.31,349.76c-0.07,193.7,0,387.4,0.08,581.1c7.81-3.39,15.64-6.75,23.47-10.12
			c4.69-1.97,9.38-3.95,14.05-5.99c12.08-5.14,24.12-10.38,36.19-15.52c0.63-0.27,1.89-0.8,2.52-1.07
			c0.12-174.2599,0.03-348.5099,0.04-522.77c-1.52-0.53-3.04-1.05-4.55-1.57c-1.02-0.38-2.02-0.76-3.02-1.16
			c-0.55-0.1-1.64-0.29-2.19-0.38c-1.24-0.54-2.49-1.04-3.73-1.54c-1.01-0.31-2.02-0.63-3.02-0.96c-2-0.66-3.99-1.34-5.98-2.02
			C239.15,361.97,221.41,355.29,203.31,349.76 M283.82,377.05c0.19,24.98-0.02,49.93,0,74.93c0.92,14.67-0.45,29.34,0.04,44.03
			c-0.2,6,0.72,12.01-0.1,17.99c0.1,4,0.67,8,0.29,12.02c-0.86,9.32,0.85,18.66-0.27,27.98c0.46,7.67,0.18,15.33,0.08,23.01
			c-0.05,7.67,0.75,15.35-0.04,23.02c0.36,7.3199,0,14.6299-0.03,21.96c0.98,9.32-0.53,18.64,0.39,27.95
			c-0.53,9.34-0.5,18.72,0.01,28.06c-0.48,8.65-0.53,17.32-0.07,25.98c-0.81,6.67,0.64,13.36-0.33,20.03
			c-0.12,10,0.28,19.99,0.36,29.99c-1,8.66,0.74,17.35-0.35,26.01c-0.31,8,0.66,16.01-0.04,23.99c0.73,7.72-0.02,15.43,0.01,23.17
			l0.45,0.67c-0.12,7.72-0.66,15.44-0.25,23.17c0.56,5.34-0.44,10.68-0.13,16.04c0.94,9.62-0.43,19.27-0.01,28.92
			c1.76-0.53,3.5-1.14,5.23-1.75c0.51-0.25,1.53-0.73,2.05-0.98c1.93-0.83,3.88-1.65,5.82-2.48c14.41-6.11,28.74-12.41,43.15-18.52
			c12.88-5.46,25.7-11.03,38.58-16.47c0.06-148.96,0.05-297.91,0-446.87c-11.6-3.86-23.14-7.91-34.75-11.75
			c-0.99-0.36-1.99-0.72-2.98-1.07c-1-0.33-2-0.65-3-0.96c-1.26-0.46-2.53-0.89-3.79-1.35c-1.02-0.32-2.03-0.65-3.03-0.98
			c-1.01-0.32-2.01-0.65-3-0.97c-0.99-0.35-1.98-0.7-2.96-1.04C311.33,386.35,297.73,381.18,283.82,377.05 M585.59,410.43
			c1.84,10.4,0.23,21.06,1.61,31.52c0.36,13.67,0.3,27.35,0.23,41.03c-0.11,6.01,0.18,12.06-0.62,18.04
			c-0.81,33.49-3.86,66.94-9.77,99.94c-0.53,5.83-2.97,11.25-3.57,17.07c-0.75,8.45,1.58,16.78,3.88,24.83
			c74.77-0.19,149.54-0.14,224.31-0.3c0.14-23.88,0-47.77,0.14-71.65c0.41-4.29,0.58-8.6,0.34-12.9c0.36-49.2,0.17-98.4,0.43-147.6
			C730.24,410.39,657.91,410.13,585.59,410.43 M821.3,410.4c0.32,63.2,0.44,126.41,0.5,189.61c0.92,14.13,0.18,28.33,0.52,42.49
			c80.59-0.24,161.19-0.18,241.78-0.21c2.86,0.75,2.12-2.68,2.7001-4.38c2.3899-6.72,1.97-13.92,1.6899-20.93
			c-0.33-5.38-5.09-10.84-1.9299-16.12c0.5-5.68-0.78-11.29-1.65-16.86c-1.26-7.34-2.75-14.65-3.92-22
			c-3.64-22.84-5.27-45.94-6.48-69.02c-1.33-27.5-1.73-55.06-0.8101-82.58C976.23,410.37,898.77,410.38,821.3,410.4 M806.56,410.43
			c0.11,15.86,0.13,31.71,0.17,47.57c0.37,5.34,0.86,10.71,0.2,16.05c0.69,15.96,0.17,31.97,0.35,47.95
			c0.1,104.95,0.41,209.9,0.46,314.85c2.89-0.13,5.72-0.78,8.52-1.53c-0.89-11.76-0.19-23.57-0.41-35.35
			c0.12-32.65-0.31-65.31,0.3-97.9399c0.22-82.01,0.52-164.02,0.66-246.03c0.6-15.18,0.39-30.39,0.51-45.58
			C813.73,410.36,810.14,410.36,806.56,410.43 M1106.33,607.44c-5.9399,1.71-12.2,1.51-18.3099,1.34
			c-5.25-0.05-9.9501-2.67-14.8201-4.27c-0.0399,5.84,0.39,11.68,1.0701,17.48c0.16,9.72-1.84,19.28-4.0701,28.68
			c6.13-0.32,11.7001-3.2,17.7001-4.18c8.6799-1.49,17.72-1.22,26.1899,1.25c2.8101,0.85,5.75,1,8.67,1.06
			c-0.6-6.45-4.17-12.23-4.36-18.75c-0.3101-5.02-1.29-10.08-0.24-15.08c0.51-4.6,2.6-8.7599,4.61-12.85
			C1117.08,603.23,1111.92,605.99,1106.33,607.44 M537.97,611.49c-4.93-0.03-9.61-1.81-14.47-2.32c0.73,13.68-2.45,27.15-5.02,40.5
			c5.84,0.89,11.5-1.19,17.24-1.89c8.22-0.9301,16.5601-1.71,24.8101-0.5601c3.74,0.4901,7.61,0.55,11.1899-0.8
			c-0.53-5.57-2.0699-10.96-3.05-16.45c-0.85-8.34-0.89-16.99,2.17-24.92c-1.98,0.27-3.9301,0.58-5.88,0.96
			C556.35,609.24,547.24,611.72,537.97,611.49 M577.4,648.45c0.52,3.04,1.0699,6.1,1.5099,9.17
			c74.2401-0.12,148.48-0.37,222.73-0.25c0.04-2.91,0.03-5.81,0.01-8.71C726.9,648.56,652.15,648.5,577.4,648.45 M822.19,648.54
			c-0.01,3.01-2,8.3,2.14,9.28c0.12-3.03,0.12-6.05,0.1-9.07C823.87,648.7,822.75,648.59,822.19,648.54 M830.33,648.69
			c-0.08,2.89-0.07,5.79-0.01,8.69c77.49-0.01,154.99-0.08,232.48,0.03c0.6699-2.67,1.2-5.3799,1.83-8.06
			c-4.84-0.89-9.77-0.55-14.65-0.58C976.76,648.77,903.54,648.79,830.33,648.69 M1075,655.31c-2.16,0.09-4.3101,0.12-6.45,0.15
			c-8.0601,41.99-10.24,84.86-10.26,127.54c0.1499,26.62,1.22,53.26,4.27,79.72c18.2,0.04,36.36-0.9399,54.5499-1.08
			c0.62,0.35,1.85,1.07,2.47,1.42c-0.33,1.43-0.6699,2.87-1.01,4.31c2.7301,4.59,6.12,8.74,9.2401,13.07
			c2.7799-17.07,3.7899-34.4,5.1499-51.64c0.9501-9.26,0.4301-18.6,1.24-27.86c0.5901-25.67-0.13-51.34-1.6899-76.95
			c-1.5-23.59-4.2-47.13-8.98-70.29c-7.74,0.79-14.89-3.12-22.5701-3.09C1092.04,650.09,1083.35,652.48,1075,655.31 M561.96,652.41
			c-6.65-0.41-13.31-0.36-19.95-0.1c-8.24,0.07-16.14,3.01-24.38,3.09c-4.6,23.94-7.23,48.22-8.62,72.54
			c-1.83,33.98-2.2,68.1,0.09,102.07c0.84,13.92,2.6,27.77,3.55,41.68c8.41,1.43,16.92-0.01,25.37,0.13
			c13.44-0.17,26.88-0.12,40.32-0.28c1.12-12.16,2.5-24.29,3.33-36.47c2.25-27.61,2.12-55.35,1.63-83.04
			c-0.38-4.98-0.78-9.97-0.71-14.97c-1.27-28.72-4.13-57.43-9.9901-85.62C569.19,652.7,565.53,652.63,561.96,652.41 M1130.27,661.52
			c0.66,3.05,0.28,7,3.33,8.86c5.09,3.03,9.5801,7.14,15.29,9.08c1.36-0.09,2.73-0.19,4.13-0.29c6.26-1.12,12.6699-0.64,19.01-0.78
			c39-0.2,78.01,0.11,117-0.41c-1.5901-0.23-3.17-0.41-4.73-0.56l0.38-0.84c-14.0801-3.37-28.04-7.27-41.7301-11.99
			c-16.4099-3.42-33.2999-2.19-49.95-1.97c-15.65,0.2-31.35,2.2-46.96,0.26C1140.78,662.44,1135.49,662.39,1130.27,661.52
			 M580.13,663.35c4.64,27,6.97,54.34,7.66,81.7c0.7401,3.61,0.52,7.31,0.6,10.97c0.25,18.32,0.27,36.65-0.16,54.97
			c-0.9,6.64-0.56,13.36-1.03,20.03c-1.31,13.46-2.36,26.99-3.76,40.46c10.86-0.06,21.72-0.08,32.58-0.28
			c3.61-0.66,7.29-0.46,10.95-0.51c18.19-0.17,36.3701-0.39,54.5601-0.39c0.03-0.64,0.1-1.91,0.14-2.55
			c6.76-1.61,13.53-3.21,20.29-4.86c27.65-6.7,55.3-13.41,82.97-20.04c5.52-1.15,10.95-2.7599,16.51-3.79
			c-0.03-58.44,0.21-116.88,0.18-175.32C727.79,663.89,653.96,663.52,580.13,663.35 M822.53,833.84c1.6899-0.4301,3.4-0.81,5.05-1.4
			c1.05-1.25,0.56-2.98,0.72-4.44c0.02-14.72,0.27-29.43,0.43-44.14c0.49-0.3,1.47-0.89,1.95-1.18c11.72-0.84,23.52-1.94,35.25-0.81
			c2.4,0.4,3.49,2.81,3.43,5.06c0.4,17.41,0.37,34.82,0.48,52.24c8.35,1.74,16.7599,3.18,25.09,5.04c1.36,0.19,2.75,0.39,4.13,0.6
			c12.29,2.59,24.65,4.81,36.96,7.3c14.89,2.85,29.74,5.92,44.64,8.76c-0.09,1.25-0.17,2.52-0.24,3.8
			c8.5-0.53,17.06,0.08,25.54-0.84c17.14-0.5,34.35,0.11,51.46-1.17c-1.88-16.5-2.9801-33.0699-3.67-49.65
			c-1.54-49.84-0.05-99.96,8.04-149.23C982,663.72,902.2,663.73,822.4,663.77C822.51,720.46,822.56,777.15,822.53,833.84
			 M1132.1899,671.63c2.6801,19.72,4.9801,39.52,5.66,59.42c1.11,8.26,0.52,16.65,0.9601,24.97c1.1,9.52,0.36,19.18,0.6499,28.76
			c-0.3099,6.73,0.4701,13.56-0.6599,20.24c-0.3601,7,0.22,14.09-0.8201,21.04c-0.4399,5.32-0.3199,10.67-0.79,16
			c-1,7.59-1.1899,15.29-2.34,22.87c-0.33,6.01-0.99,12.01-2.03,17.95c-0.21,1.59-0.98,3.5,0.37,4.86c2.7401,3.74,5.3,7.63,8.4,11.1
			c-0.0299-16.6201,0.26-33.25-0.4299-49.8701c-0.8301-4.96-0.3401-10-0.52-14.99c-0.15-16.87,0.25-33.74-0.0601-50.6
			c0.38-16.77,0.01-33.58,0.16-50.37c0.08-1.67,0.27-3.32,0.49-4.96c0.0701-16.68-0.02-33.37,0.1801-50.05
			c-0.55-0.32-1.66-0.96-2.2101-1.28C1136.84,675.05,1134.47,673.38,1132.1899,671.63 M1146.3101,683.41
			c-0.0801,4.63,0.3099,9.25,0.3799,13.89c2.67,1.44,5.26,3.23,8.26,3.94c3.8,0.33,7.63-0.06,11.4401,0.39
			c-1.71,2.97-6.34-0.48-7.42,2.95l1.2101-0.19c3.2999,1.91,7.2799,2.97,9.8099,6.02c3.0601,0.08,6.13,0.06,9.21-0.06
			c-2.74-1.46-5.51-2.83-8.2699-4.2c-1.1001-0.5-2.1901-0.96-3.28-1.38c0.4299-2.34,0.7899-4.69,1.11-7.04c4.1,0,8.2-0.18,12.3,0.02
			c3.7899,0.24,7.0199,2.86,10.8799,2.81c5.6801-0.04,11.3701,0.21,17.0601,0.01c0.9301-0.87,1.3101-2.82,2.84-2.78
			c8.05-0.27,16.11-0.07,24.17-0.06c1.12,0.42,2.28,0.85,3.4299,1.27c0.0701-4.85,0.1101-9.7,0.13-14.54
			c-23.8899,0.04-47.7699-0.06-71.6499-0.1C1160.6899,684.53,1153.54,683.04,1146.3101,683.41 M1244.58,701.16
			c1.88,0.57,3.76,1.1801,5.66,1.7401c0.05,1.33,0.15,2.7,0.25,4.06c4.63,1.35,9.29,2.7599,13.62,4.92
			c0.51,16.23-0.21,32.51,0.36,48.73c1.6801,1.28,3.5601,2.34,5.54,3.14c6.1899-3.54,11.9-7.97,18.51-10.81
			c0.16-22.78,0.1-45.56,0.09-68.34c-14.76,0.01-29.5-0.11-44.25-0.12C1244.34,690.04,1244.27,695.61,1244.58,701.16
			 M1213.74,699.89c0.28,0.14,0.83,0.41,1.1,0.55l-0.13,2.22c-2.35-0.0099-4.6799,0-7,0.26c-1.61-0.46-3.2999-0.71-4.96-0.61
			c-2.8101-0.42-5.64-0.6-8.47-0.64c0.23,0.59,0.6799,1.76,0.9,2.35l-0.62,0.98c-2.41-1.22-4.9801-2.08-7.42-3.19
			c-1.65-0.73-3.29-1.42-4.9301-2.11c-2.97,0.05-5.95,0.04-8.8999-0.01c0.0499,0.35,0.1699,1.05,0.23,1.4
			c4.26,1.73,8.34,3.86,12.5599,5.72c2.8301,1.29,5.67,2.61,8.48,4c0-1.69-0.0199-3.36-0.01-5.02
			c0.4901-0.04,1.4901-0.11,1.9901-0.15c-0.0601,18.78,0.0599,37.55-0.0701,56.32c0.14,2.27-0.5599,5.53,2.53,5.99
			c0.27-20.82-0.03-41.65,0.1699-62.47c0.4901-0.02,1.4701-0.06,1.9601-0.08c0.11,20.65-0.11,41.3,0.12,61.94c1,0.03,3,0.08,4,0.11
			c0.52-0.3,1.5599-0.9,2.08-1.19l-0.02,1.1c4.9501,0.02,9.91,0.02,14.87,0v0.6c0.53-0.15,1.5901-0.44,2.1101-0.58
			c4.09-0.03,8.1799,0.01,12.2799-0.04l-0.0299-0.6201l0.1299,1.76c0.4401-0.5,1.3201-1.49,1.76-1.99v0.89
			c3.0901,0,6.2001,0,9.3101-0.1c0.67-20.57-0.08-41.14,0.38-61.72l-0.0601-0.91c-1.14,0-2.2699,0-3.37,0.02
			c-0.59-1.41-1.14-2.93-2.98-2.76c-0.86-0.5-1.72-0.97-2.5699-1.43c-2.28-0.24-4.5801-0.18-6.8401,0.02
			c1.4901,0.5,2.9901,0.94,4.51,1.42l0.36,0.24c-0.11,0.51-0.3199,1.51-0.4299,2.02c-1.23-0.47-2.4401-0.92-3.65-1.36
			c-1.89-0.68-3.76-1.39-5.63-2.04C1223.1,699.05,1218.3101,699.76,1213.74,699.89 M1146.48,700.05
			c-0.01,1.78,0.46,3.45,2.1901,4.29c5.1599,2.43,10.08,6.35,16.2,4.86c-2.22-1.15-4.39-2.32-6.58-3.48
			C1154.35,703.83,1150.61,701.52,1146.48,700.05 M1170.28,703.54c4.52,2.19,9.0599,4.38,13.59,6.56c2.03,1.01,4.3,2.08,6.62,1.23
			c-1.77-0.94-3.5699-1.77-5.34-2.63C1180.14,707.16,1175.76,702.73,1170.28,703.54 M1146.74,705.92c0.01,2.29-0.13,4.62,0.16,6.91
			c3.09,2.1,6.4199,3.84,9.58,5.87c0.01-2.61,0.01-5.21,0.01-7.8C1153.3101,709.09,1150.16,707.21,1146.74,705.92 M1250.26,708.92
			c-0.04,1.15-0.0701,2.31-0.0701,3.48c3,0,6.02,0,9.04-0.17C1256.3,710.96,1253.3,709.86,1250.26,708.92 M1158.61,711.37
			c-0.0499,18.66-0.02,37.33-0.01,56c2.9-0.01,5.8101-0.01,8.73-0.01c0.02-18.65-0.0199-37.3,0.02-55.95
			C1164.4301,711.34,1161.51,711.33,1158.61,711.37 M1169.3101,712.4c0.0499,18.38-0.2301,36.77,0.1599,55.15
			c4.7001-0.1,9.41-0.11,14.12,0.08c1.39-7.13,0.42-14.43,0.6901-21.63c-0.23-11.21,0.51-22.45-0.4501-33.62
			C1178.98,712.39,1174.14,712.4,1169.3101,712.4 M1186.21,734.03c-0.02,1.3-0.02,2.61,0,3.93c0.04,6.68,0.04,13.36,0.01,20.04
			c0,3.13,0,6.26,0.11,9.39c2.7301-0.04,5.4701-0.03,8.2201-0.02c0.1-17.86,0.0699-35.73,0.01-53.59
			c-2.76,0.02-5.5,0.03-8.2401,0.0099C1186.11,720.54,1186.3101,727.28,1186.21,734.03 M1250.22,714.38
			c0.0601,17.67-0.2899,35.35,0.17,53.01c3.61-0.1,7.23,0.1,10.85-0.19c1.53-1.26,0.9-3.44,1.11-5.15
			c-0.1899-15.72,0.15-31.45-0.15-47.17C1258.34,713.76,1254.1801,714.57,1250.22,714.38 M1146.62,715.27
			c0.05,1.32,0.09,2.66,0.29,3.99c2.09,0.29,4.21,0.17,6.34,0.19C1151.11,717.92,1148.9,716.53,1146.62,715.27 M1147.13,721.31
			c-0.8,4.86-0.51,9.79-0.51,14.69c0.1801,10.56-0.4301,21.14,0.39,31.68c3.03-0.05,6.08-0.11,9.13-0.2
			c0.37-0.94,0.76-1.87,1.16-2.79c-0.38-2.55-0.6801-5.12-0.66-7.69c0.1-11.95,0.0499-23.89,0.01-35.84
			C1153.47,720.93,1150.29,720.99,1147.13,721.31 M1426.0699,725.27c-12.3899,0.5-24.73,1.99-36.98,3.87
			c-26.25,3.59-52.1799,9.87-77.0299,19.08c-3.1201,1.14-6.1801,2.39-9.25,3.6c-2.5801,1.11-5.14,2.23-7.6801,3.41
			c-12.0601,5.58-23.0699,13.16-33.54,21.26c-1.26,4.38-0.86,8.99-0.95,13.49c-0.1801,12.94-0.34,25.87-0.46,38.81
			c9.9299-0.19,19.87-0.5,29.8099-0.52c8.34,0.15,16.65-0.75,24.99-0.49c105.34-0.1,210.6801-0.07,316.02-0.25
			c3.0601-0.23,5.87,1.43,8.9399,1.27c8.51-0.07,17.03,0,25.55-0.17c-0.11-16.89,0.03-33.79-0.29-50.67
			c-2.7699-3.01-6.4299-4.98-9.63-7.47c-8.9199-6.47-18.3899-12.2-28.47-16.7c-2.09-0.88-4.16-1.78-6.23-2.63
			c-1.67-0.67-3.33-1.31-4.99-1.92c-1.27-0.49-2.52-0.96-3.75-1.44c-29.41-10.64-60.17-17.38-91.24-20.63
			c-2.9501-0.69-5.99-0.71-8.97-0.94c-4.9-1.16-10.01-0.3-14.91-1.4c-7.3201-0.57-14.71,0.03-21.98-1.01
			c-7.74-0.08-15.49-0.3-23.2101,0.06C1443.27,724.96,1434.5699,723.86,1426.0699,725.27 M1147.26,769.47
			c0.01,4.08,0,8.16,0.02,12.2401c10.5499-0.26,21.1-0.41,31.6599-0.46c25.8501-1.01,51.75-0.85,77.63-0.77
			c0.13-2.57,0.53-5.1,0.9401-7.63c1.58-1.08,3.15-2.18,4.71-3.31c-6.72-0.45-13.4399,0.04-20.15-0.06
			C1210.46,769.47,1178.86,769.48,1147.26,769.47 M1147.3,785.3c0.0699,11.4-0.0801,22.82,0.23,34.23
			c14.1699,0.41,28.36,0,42.5399,0.2c2.4701-0.19,4.25,1.75,5.88,3.32c4.17,4.26,8.5601,8.31,12.76,12.56
			c10.55,0.64,21.17,0.9,31.7201,0.15c-0.12-16.39,0.0399-32.77,0.0499-49.16C1209.41,786.79,1178.36,785.85,1147.3,785.3
			 M832.42,786.25c-0.2,15.29,1.49,30.52,0.82,45.81c-0.83,5.12-0.77,10.35,0.22,15.46c10.06-0.13,20.11-0.17,30.17-0.13
			c0.97-5.75,0.6-11.58,0.76-17.37c0.1-14.27,0.35-28.53,0.38-42.8C853.95,787.87,843.21,786.72,832.42,786.25 M1245.71,786.6
			c0.9601,16.37,0.36,32.79,0.6001,49.1801c3.09,0,6.1799,0.27,9.2599,0.62c0.2001-16.62,1.17-33.22,1.0901-49.85
			C1253,786.55,1249.35,786.54,1245.71,786.6 M1150.62,821.75c1.6901,2.79,3.79,5.29,5.95,7.73c4.7101,5.24,8.76,11.1,13.9301,15.92
			c6.67-0.15,13.34-0.08,20.01-0.04c0.17-7.89,0.15-15.78,0-23.66C1177.21,821.77,1163.91,821.68,1150.62,821.75 M1192.72,823.48
			c-0.0599,6.92-0.1899,13.84,0.02,20.76c0.27,0.24,0.8,0.73,1.0601,0.98c6.9299,0.3,13.88-0.08,20.8199,0.17
			c-0.01-0.42-0.04-1.25-0.05-1.67C1206.97,837.31,1200.46,829.7,1192.72,823.48 M1147.5,822.22
			c0.05,16.61,0.89,33.19,1.0601,49.8101c-0.1901,1.72,1.11,3.06,1.9399,4.45c5.78,8.32,11.21,16.89,17.1,25.14
			c0.2001-18.63,0.23-37.28-0.02-55.91C1160.72,838.03,1154.46,829.82,1147.5,822.22 M1259.83,833.29
			c78.02,60.13,155.51,120.93,233.3101,181.34c13.79,10.54,27.21,21.6,41.3199,31.7c0.1001-12.64-0.21-25.28-0.0499-37.92
			c5.75-1.3799,11.71-0.46,17.5599-0.69c8.67,0.22,17.38-0.43,26.04,0.4c44.21,0.42,88.4299,0.32,132.65,0.52
			c0.01-49.22,0.08-98.43-0.03-147.65c-14.37-8.73-28.49-17.95-43.0699-26.27c-51.8501-0.67-103.76-0.28-155.63-0.4399
			c-55.9801-0.05-111.9601-0.0601-167.9401-0.09C1315.9399,834.18,1287.89,833.54,1259.83,833.29 M1211.78,838.33
			c2.51,2.48,5.0699,4.93,7.6799,7.33c-0.01,2.3-0.0299,4.6-0.0299,6.91c12.0299,0.11,24.0599,0.07,36.09,0.01
			c0-4.78-0.05-9.56-0.03-14.33C1240.92,838.27,1226.35,838.19,1211.78,838.33 M1260.51,838.67c-0.08,27.23,0.09,54.47,0.0599,81.71
			c32.6101,34.42,65.03,69,97.4401,103.6c49.89,53.12,99.17,106.8,148.8,160.16c2.11,2.24,3.8899,4.88,6.45,6.67
			c6.25,7.4099,12.78,14.6499,19.83,21.3099c0.41-25.65,0.3301-51.3199,0.3-76.97c0.23-26.0601,0.23-52.12,0.38-78.1801
			c0.6-2.9199-2.37-4.28-4.14-5.9199C1454.1899,991.23,1378.45,931.8,1302.98,872.01C1288.74,861.01,1274.96,849.39,1260.51,838.67
			 M1170.26,847.41c-0.0701,18.4901,0.01,36.98-0.04,55.47c15.72-0.04,31.4501-0.87,47.1801-0.42c0-18.37-0.01-36.7401,0-55.11
			C1201.6801,847.36,1185.97,847.26,1170.26,847.41 M1219.49,902.47c11.96,0.15,23.92,0.47,35.88,0.84
			c-0.01-16.19,0.09-32.39,0.08-48.59c-11.98-0.04-23.97,0-35.95-0.02C1219.4399,870.62,1219.47,886.54,1219.49,902.47
			 M367.09,865.2c-2.37,0.97-4.74,1.95-7.07,3.01c-4.66,1.97-9.32,3.96-13.97,5.96c-11.67,4.95-23.26,10.09-34.95,15
			c-2.34,1.01-4.69,2.01-7.03,3.03c-4.02,1.67-8.01,3.41-12.03,5.1c-12.04,5.15-24.06,10.39-36.1,15.55
			c-2.62,1.11-5.25,2.21-7.86,3.36c-14.03,5.98-28.11,11.85-42.01,18.14c-0.64,0.13-1.92,0.38-2.56,0.51
			c-0.31,24.41-0.16,48.83-0.08,73.24c1.49-0.78,2.99-1.52,4.47-2.29c11.06-5.88,22.08-11.81,33.17-17.63
			c4.6-2.46,9.27-4.81,13.85-7.32c10.44-5.49,20.77-11.19,31.29-16.54c1.54-0.86,3.11-1.68,4.66-2.52c1.31-0.71,2.63-1.41,3.94-2.1
			c9.8-5.07,19.43-10.46,29.25-15.5c0.48-0.27,1.44-0.8,1.92-1.07c4.01-2.07,8-4.16,11.99-6.26c0.49-0.27,1.48-0.8,1.98-1.07
			c9.76-5.14,19.44-10.43,29.23-15.51c1.58-0.83,3.14-1.67,4.71-2.5c0.48-0.27,1.44-0.81,1.92-1.08c0.96-0.4901,1.91-0.96,2.88-1.42
			c-0.04-18.36,0.09-36.72-0.05-55.08C374.8,861.9,370.95,863.56,367.09,865.2 M1147.42,875.84
			c-0.0801,9.2599,0.1599,18.52,0.2999,27.78c5.98-0.21,11.97-0.28,17.9601-0.45C1159.96,893.82,1153.61,884.88,1147.42,875.84
			 M693.5,903.91c1.04-0.24,2.09-0.45,3.15-0.67c0.05-3.35,1.03-6.87,0.37-10.14c-0.94-0.3-2.82-0.9-3.76-1.2
			C693.08,895.9,693.3,899.9,693.5,903.91 M700.56,894.1c0.07,2.58,0.15,5.17,0.25,7.76c5.52-0.96,10.84-2.79,16.29-4.05
			C711.67,896.27,706.2,894.68,700.56,894.1 M376.15,921.27c-9.39,4.89-18.69,9.97-28.06,14.9c-1.73,0.88-3.44,1.8-5.17,2.68
			c-1.91,1.06-3.84,2.1-5.77,3.14c-2.42,1.21-4.83,2.47-7.22,3.74c-10.8,5.63-21.4,11.65-32.32,17.05l-0.26,0.37
			c-13.44,6.8-26.63,14.08-39.95,21.12c-2.23,1.1-4.43,2.27-6.62,3.44c-1.29,0.68-2.57,1.37-3.86,2.06
			c-12.28,6.44-24.48,13.04-36.75,19.51c-2.27,1.1899-4.52,2.39-6.79,3.5699c-0.01,25.7001-0.12,51.39,0.05,77.09
			c30.21-19.2799,60.45-38.5099,90.66-57.7899c24.05-15.28,48.03-30.67,72.11-45.91c4.14-2.67,8.29-5.33,12.48-7.92
			c0-19.45,0.07-38.89-0.04-58.33C377.8,920.4,376.98,920.83,376.15,921.27 M1260.53,927.29c0.33,13.3-0.13,26.61,0.28,39.91
			c12.5,0.4,25.0299,0.28,37.5399,0.3c-12.01-13.41-24.2899-26.56-36.1799-40.06C1261.76,927.4,1260.9399,927.32,1260.53,927.29
			 M635.38,950.39c0.11,10.87,0.27,21.75,0.32,32.63c0.03,3.64-0.16,7.31,0.51,10.92c0.28,22.17,0.59,44.35,0.23,66.52
			c0.76,0.3,2.28,0.9,3.04,1.2001c0.22-4.89,0.21-9.78,0.27-14.66c1.04-21.3101,0.38-42.69,0.77-64.03
			c0.36-10.3199-0.47-20.73,1.13-30.97C639.55,951.49,637.46,950.93,635.38,950.39 M1538.61,1086.98
			c0.12,28.67,0.21,57.34,0.22,86.01c-0.0699,3.6901,0.36,7.37,0.36,11.0701c0.0701,30.97,0.2401,61.95,0.3601,92.9199
			c0,9.09,0.0599,18.21-0.9401,27.26c57.39,0.16,114.78,0.36,172.17,0.51c-0.15-97.37,0.01-194.74-0.17-292.11
			c-38.22-0.04-76.4399-0.24-114.67-0.3c-9.97-0.28-20,0.46-29.9199-0.52c-9.1801-0.18-18.36-0.04-27.54-0.15
			C1538.45,1036.78,1539.03,1061.87,1538.61,1086.98z"/>
	</g>
	<g id="_x23_f087b0ff">
		<path fill="#F087B0" stroke="#F087B0" stroke-width="0.0938" d="M201.62,0h1510.8c0.1499,12.68-0.92,25.32-0.75,38
			c-0.4,81.37-0.25,162.74-0.38,244.11c-13.4301,5.65-26.5801,12.07-40.1801,17.22c-21.36,0.19-42.74-0.01-64.09,0.08
			c-235.6801-0.05-471.36-0.03-707.04,0c-105.32,0.06-210.64-0.19-315.96,0.18c-19.98,0.32-40-0.42-59.96,0.7
			c-23.37-0.04-46.73,0.23-70.09,0.18c-78.82-47.43-158.12-94.06-237.05-141.32c-4.74-2.82-9.43-5.75-14.34-8.27
			c-0.33-29.62-0.18-59.25-0.32-88.88C201.25,41.36,201.9,20.67,201.62,0 M855.17,184.57c0.75,6.71,2.95,13.14,4.36,19.73
			c2.23,8.22,3.12,17.35,8.8799,24.08c5.53,0.49,11.1,0.15,16.65,0.38c3.98-0.09,7.95,0.17,11.92,0.48
			c71.34,0.44,142.6801,0.51,214.02,0.46c26.33-0.12,52.67,0.24,78.99-0.2c4.14-7.94,8.88-15.54,13.26-23.35
			c4.08-7.29,8.8199-14.25,12.13-21.95c-20.14-0.3-40.29-0.06-60.4301-0.13c-74.3199,0.03-148.65,0.07-222.98,0.12
			C906.37,184.37,880.76,183.87,855.17,184.57z"/>
	</g>
	<g id="_x23_010101ff">
		<path fill="#010101" stroke="#010101" stroke-width="0.0938" d="M1754.78,0h3.35c0.6801,54.32,0.47,108.65,0.63,162.98
			c-0.36,6.99,0.88,13.96,0.1899,20.95c0.63,30.66,0.26,61.37,0.4801,92.05c0.5,222,0.21,443.99,0.2999,665.99
			c-0.02,138.35-0.02,276.6901-0.04,415.03h-6.84c-0.0599-293.3199-0.0699-586.64-0.0499-879.95c0.09-25.71-0.2201-51.41,0.33-77.11
			c0.0699-53.99,0.25-107.97,0.4301-161.96c0.24-49.99-0.05-99.98,0.61-149.96C1754.35,58.68,1754.15,29.33,1754.78,0z"/>
	</g>
	<g id="_x23_efadc8ff">
		<path fill="#EFADC8" stroke="#EFADC8" stroke-width="0.0938" d="M202.54,157.92c18,10.03,35.6,20.77,53.45,31.06
			c54.8,32.17,109.56,64.42,164.42,96.5c8.89,5.19,17.7,10.55,26.73,15.5c0.72,1.26,1.45,2.52,2.19,3.78
			c-0.06,30.08-0.07,60.16-0.08,90.24c-0.14,13.97,0.28,27.97-0.33,41.93c0.36,3.65,0.35,7.32,0.29,10.99
			c-1.08,6.66,0.55,13.36-0.03,20.05c-0.61,6-0.39,12.03-0.41,18.05c-0.16,128.8-0.22,257.6-0.21,386.41
			c-11.75,6.33-23.58,12.52-35.34,18.85c-10.17,5.22-20.08,10.95-30.37,15.91c-0.02-2.07-0.01-4.13-0.01-6.18
			c-0.02-28.66,0-57.33,0-86c-0.06-136.38,0.09-272.75-0.05-409.12c-7.68-2.46-15.27-5.2-22.93-7.71c-3.28-1.15-6.6-2.2-9.85-3.43
			c-0.53-0.12-1.58-0.35-2.11-0.46c-1.27-0.55-2.55-1.07-3.82-1.6c-0.54-0.1-1.62-0.3-2.17-0.39c-1.27-0.53-2.55-1.02-3.82-1.52
			c-1-0.31-2-0.62-2.98-0.94c-18.68-6.32-37.35-12.69-56.02-19.02c-1-0.3-1.99-0.61-2.98-0.94c-1.01-0.37-2.01-0.76-3-1.16
			c-0.53-0.13-1.58-0.38-2.11-0.51c-1.28-0.49-2.57-0.96-3.85-1.42c-21.32-7.06-42.5-14.51-63.81-21.57
			c-0.1-4.42-0.17-8.84-0.08-13.25c-0.17-1.31-0.34-2.61-0.52-3.92C202.75,271.34,202.48,214.63,202.54,157.92z"/>
		<path fill="#EFADC8" stroke="#EFADC8" stroke-width="0.0938" d="M1688.02,297.17c7.59-3.19,15.1699-6.4,22.6899-9.78
			c0.8,3.82,0.55,7.74,0.5601,11.61c-0.03,18,0.01,36-0.0601,54c0.11,10.67-0.08,21.34-0.14,32c-0.63,7-0.23,14.04,0.13,21.05
			c-0.51,6.3-0.47,12.63-0.3999,18.95c-0.16,143.72,0,287.43-0.16,431.15c-12.72-7.79-25.38-15.66-38.13-23.4
			c-0.33-42.25-0.1901-84.5-0.26-126.75c-0.96-23.32-0.35-46.69-0.58-70.03c-0.0901-110.5699-0.3101-221.14-0.3201-331.7
			C1676.96,302.02,1682.45,299.5,1688.02,297.17z"/>
		<path fill="#EFADC8" stroke="#EFADC8" stroke-width="0.0938" d="M455,304.41c21.01,0.38,42.05-0.1,63.05,0.7
			c104.98,0.62,209.97,0.59,314.96,0.56c255.34,0.01,510.6799,0.03,766.03,0c22.2-0.06,44.3999,0.11,66.6-0.1
			c1.21,5.4,0.48,10.95,0.16,16.4c-0.0901,6.01-0.0601,12.01-0.02,18.02c-0.24,138.01-0.3201,276.03-0.47,414.05
			c-0.25,5.62,0.61,11.35-0.67,16.88c-11.6-9.06-24.13-16.96-37.6801-22.75c-27.1799-11.33-55.84-18.9-84.9099-23.37
			c-56.9601-8.65-115.3501-8.13-172.03,2.31c-6.14,0.9-12.14,2.53-18.22,3.68l-0.67,0.37c-19.49,4.39-38.51,10.8-56.8199,18.78
			c-0.1801-20.98-0.0601-41.97-0.1201-62.96c-0.0499-4.32,0.27-8.76-0.97-12.95c-1.0499-1.33-2.74-1.69-4.24-2.19
			c-14.61-4.2401-29.11-8.88-43.95-12.25c-11.72-0.73-23.4401,1.2-35.17,0.66l-0.6899-0.48c-13.41,0.01-26.77-1.26-40.17-1.51
			c-5.99-0.84-12.05-0.95-18.0601-0.46c-7.0299,0.93-14.1499,0.42-21.2,0.89c-0.99-4.18-1.41-8.45-1.61-12.72
			c-2.27-8.47-5.29-17.16-4.59-26.03c1.37-5.78,2.3099-11.79,5.1699-17.08c1.42-2.2-0.34-4.67,0.2001-7.02
			c3.5699-20.45,5.72-41.1201,7.26-61.79c0.6599-6.7,0.12-13.47,1.08-20.14c0.7-8.6-0.01-17.26,0.86-25.84
			c0.9-17.53-0.47-35.02-0.58-52.54c0.1699-13.65-0.73-27.31-2.05-40.89c-210.65,0.03-421.29,0.09-631.93-0.03l-0.04,0.86
			c-2.01,40.48-1.05,81.06,1.84,121.47c1.1,15.17,2.71,30.31,5.19,45.32c1.29,8.29,3.26,16.46,4.36,24.77
			c2.7599,19.78,5.24,40.85-2.31,59.9c0.11,1.68,0.2599,3.36,0.49,5.04c-9.1,47.07-11.07,95.19-10.53,143.03
			c0.27,25.66,2.56,51.24,5.18,76.75c-17.42,0.04-34.84-0.16-52.25-0.16c0-157.1801-0.15-314.36-0.32-471.54
			C455.19,368.17,454.52,336.28,455,304.41 M1378.01,372.95c-0.62,6.01,0.46,12.03-0.24,18.04c-0.15,5.39,0.71,10.74,0.1699,16.12
			c1.0701,7.63-0.84,15.27,0.3201,22.87c-1.08,4.2,0.05,8.47,0.16,12.71c82.89-0.04,165.7799,0.14,248.6699-0.09
			c6.7001-5.31,13.64-10.31,20.5701-15.31c-0.05-1.46-0.0901-2.91-0.1-4.36c0.36-10.06-1.17-20.09-3.7001-29.81
			c-0.5499-1.76-1.11-3.5-1.63-5.24c-0.38-0.99-0.73-1.99-1.0499-2.98c-2.87-6.26-5.5801-12.93-10.3501-17.99
			c-1.4299-2.01-2.11-4.37-2.37-6.79c-6.48-0.64-12.98-0.19-19.46-0.31c-58.67,0-117.33-0.01-175.99,0
			c-18.51-0.14-37.02,0.26-55.52-0.22C1377.4,364.06,1378.8,368.48,1378.01,372.95z"/>
	</g>
	<g id="_x23_ffffffff">
		<path fill="#FFFFFF" stroke="#FFFFFF" stroke-width="0.0938" d="M859.97,189.56c26.36,0.54,52.7401,0.05,79.11,0.47
			c89.27,0.33,178.57,0.14,267.85,0.47c-5.91,9.9-11.88,19.75-17.64,29.73c-0.7001,1.08-1.39,2.16-2.05,3.26
			c-92.73-0.13-185.47-0.18-278.2,0.26c-4.32,0.11-8.68-0.31-12.95,0.5c-9.21,0.2-18.42,0.06-27.63,0.32
			c-0.12-7.46-2.96-14.43-4.79-21.56C862.46,198.52,861.04,194.09,859.97,189.56z"/>
		<path fill="#FFFFFF" stroke="#FFFFFF" stroke-width="0.0938" d="M1232.3199,700.5c2.26-0.2,4.5601-0.26,6.8401-0.02
			c0.85,0.46,1.71,0.93,2.5699,1.43l1.63,1.77c-1.71-0.21-3.39-0.46-5.0499-0.75l-1.1201-0.77l-0.36-0.24
			C1235.3101,701.44,1233.8101,701,1232.3199,700.5z"/>
		<path fill="#FFFFFF" stroke="#FFFFFF" stroke-width="0.0938" d="M1170.28,703.54c5.48-0.81,9.86,3.62,14.87,5.16
			c1.77,0.86,3.5699,1.69,5.34,2.63c-2.3199,0.85-4.59-0.22-6.62-1.23C1179.34,707.92,1174.8,705.73,1170.28,703.54z"/>
		<path fill="#FFFFFF" stroke="#FFFFFF" stroke-width="0.0938" d="M1147.26,769.47c31.6,0.01,63.2,0,94.8099,0.01
			c6.7101,0.1,13.4301-0.39,20.15,0.06c-1.5599,1.13-3.13,2.23-4.71,3.31c-0.41,2.53-0.8101,5.06-0.9401,7.63
			c-25.88-0.08-51.7799-0.24-77.63,0.77c-10.5599,0.05-21.11,0.2-31.6599,0.46C1147.26,777.63,1147.27,773.55,1147.26,769.47z"/>
	</g>
	<g id="_x23_ffe3e8ff">
		<path fill="#FFE3E8" stroke="#FFE3E8" stroke-width="0.0938" d="M203.31,349.76c18.1,5.53,35.84,12.21,53.86,18
			c1.99,0.68,3.98,1.36,5.98,2.02c1,0.33,2.01,0.65,3.02,0.96c1.24,0.5,2.49,1,3.73,1.54c0.55,0.09,1.64,0.28,2.19,0.38
			c1,0.4,2,0.78,3.02,1.16c1.51,0.52,3.03,1.04,4.55,1.57c-0.01,174.26,0.08,348.51-0.04,522.77c-0.63,0.27-1.89,0.8-2.52,1.07
			c-12.07,5.14-24.11,10.38-36.19,15.52c-4.67,2.04-9.36,4.02-14.05,5.99c-7.83,3.37-15.66,6.73-23.47,10.12
			C203.31,737.16,203.24,543.46,203.31,349.76 M259.49,663.57c-4.29,3.43-4.58,9.44-5.72,14.41c-0.32,4.34-0.27,8.71-0.01,13.07
			c0.64,3.33,1.33,6.66,2.19,9.96c1.17,2.12,2.78,3.95,4.67,5.47c0.9-0.01,2.72-0.03,3.62-0.04c6.61-5.37,6.28-14.71,6.8-22.41
			c-0.48-6.4-0.46-13.33-4.28-18.82C265.25,662.87,261.8,661.54,259.49,663.57z"/>
		<path fill="#FFE3E8" stroke="#FFE3E8" stroke-width="0.0938" d="M283.82,377.05c13.91,4.13,27.51,9.3,41.33,13.73
			c0.98,0.34,1.97,0.69,2.96,1.04c0.99,0.32,1.99,0.65,3,0.97c1,0.33,2.01,0.66,3.03,0.98c1.26,0.46,2.53,0.89,3.79,1.35
			c1,0.31,2,0.63,3,0.96c0.99,0.35,1.99,0.71,2.98,1.07c11.61,3.84,23.15,7.89,34.75,11.75c0.05,148.96,0.06,297.91,0,446.87
			c-12.88,5.44-25.7,11.01-38.58,16.47c-14.41,6.11-28.74,12.41-43.15,18.52c-1.94,0.83-3.89,1.65-5.82,2.48
			c-0.52,0.25-1.54,0.73-2.05,0.98c-1.73,0.61-3.47,1.22-5.23,1.75c-0.42-9.65,0.95-19.3,0.01-28.92
			c-0.31-5.36,0.69-10.7,0.13-16.04c-0.41-7.73,0.13-15.45,0.25-23.17l-0.45-0.67c-0.03-7.74,0.72-15.45-0.01-23.17
			c0.7-7.98-0.27-15.99,0.04-23.99c1.09-8.66-0.65-17.35,0.35-26.01c-0.08-10-0.48-19.99-0.36-29.99
			c0.97-6.67-0.48-13.36,0.33-20.03c-0.46-8.66-0.41-17.33,0.07-25.98c-0.51-9.34-0.54-18.72-0.01-28.06
			c-0.92-9.31,0.59-18.63-0.39-27.95c0.03-7.33,0.39-14.64,0.03-21.96c0.79-7.67-0.01-15.35,0.04-23.02
			c0.1-7.68,0.38-15.34-0.08-23.01c1.12-9.32-0.59-18.66,0.27-27.98c0.38-4.02-0.19-8.02-0.29-12.02c0.82-5.98-0.1-11.99,0.1-17.99
			c-0.49-14.69,0.88-29.36-0.04-44.03C283.8,426.98,284.01,402.03,283.82,377.05 M296.77,667.85c-2.61,9.63-2.82,19.81-0.06,29.4301
			c1.38,2.3799,2.85,6.03,6.27,5.41c3.14,0.2,4.86-3.03,5.88-5.53c3.04-8.52,3.14-17.92,1.48-26.73c-0.84-3.34-1.98-7.31-5.31-8.96
			C300.71,660,298.21,664.62,296.77,667.85z"/>
		<path fill="#FFE3E8" stroke="#FFE3E8" stroke-width="0.0938" d="M367.09,865.2c3.86-1.64,7.71-3.3,11.55-4.99
			c0.14,18.36,0.01,36.72,0.05,55.08c-0.97,0.46-1.92,0.93-2.88,1.42c-0.48,0.27-1.44,0.81-1.92,1.08c-1.57,0.83-3.13,1.67-4.71,2.5
			c-9.79,5.08-19.47,10.37-29.23,15.51c-0.5,0.27-1.49,0.8-1.98,1.07c-3.99,2.1-7.98,4.19-11.99,6.26c-0.48,0.27-1.44,0.8-1.92,1.07
			c-9.82,5.04-19.45,10.43-29.25,15.5c-1.31,0.69-2.63,1.39-3.94,2.1c-1.55,0.84-3.12,1.66-4.66,2.52
			c-10.52,5.35-20.85,11.05-31.29,16.54c-4.58,2.51-9.25,4.86-13.85,7.32c-11.09,5.82-22.11,11.75-33.17,17.63
			c-1.48,0.77-2.98,1.51-4.47,2.29c-0.08-24.41-0.23-48.83,0.08-73.24c0.64-0.13,1.92-0.38,2.56-0.51
			c13.9-6.29,27.98-12.16,42.01-18.14c2.61-1.15,5.24-2.25,7.86-3.36c12.04-5.16,24.06-10.4,36.1-15.55
			c4.02-1.69,8.01-3.43,12.03-5.1c2.34-1.02,4.69-2.02,7.03-3.03c11.69-4.91,23.28-10.05,34.95-15c4.65-2,9.31-3.99,13.97-5.96
			C362.35,867.15,364.72,866.17,367.09,865.2 M286.02,912.07c-4.21,1.82-8.39,4.08-11.27,7.77c-0.31,0.55-0.93,1.64-1.24,2.19
			c-0.71,3.8799,2.82,6.7599,6.44,6.72c8.06,0.19,16.06-3.48,21.6-9.27c0.7-1.94,0.95-3.98,1.04-6.01
			C298.3,908.71,291.38,910.44,286.02,912.07z"/>
		<path fill="#FFE3E8" stroke="#FFE3E8" stroke-width="0.0938" d="M376.15,921.27c0.83-0.44,1.65-0.87,2.49-1.28
			c0.11,19.44,0.04,38.88,0.04,58.33c-4.19,2.59-8.34,5.25-12.48,7.92c-24.08,15.24-48.06,30.63-72.11,45.91
			c-30.21,19.28-60.45,38.51-90.66,57.7899c-0.17-25.7-0.06-51.3899-0.05-77.09c2.27-1.18,4.52-2.38,6.79-3.5699
			c12.27-6.47,24.47-13.07,36.75-19.51c1.29-0.69,2.57-1.38,3.86-2.06c2.19-1.17,4.39-2.34,6.62-3.44
			c13.32-7.04,26.51-14.32,39.95-21.12l0.26-0.37c10.92-5.4,21.52-11.42,32.32-17.05c2.39-1.27,4.8-2.53,7.22-3.74
			c1.93-1.04,3.86-2.08,5.77-3.14c1.73-0.88,3.44-1.8,5.17-2.68C357.46,931.24,366.76,926.16,376.15,921.27 M290.06,975.12
			c-4.83,2.16-10.49,6.03-9.67,12.08c3.47,4.65,9.66,3.61,14.68,3.08c2.37-1.01,4.76-1.97,7.14-2.94c2.63-2.02,5.78-4.03,6.7-7.42
			c0.86-2.42-0.61-5.23-2.91-6.21C300.89,971.33,295,973.16,290.06,975.12z"/>
	</g>
	<g id="_x23_1c1a18ff">
		<path fill="#1C1A18" stroke="#1C1A18" stroke-width="0.0938" d="M1382.41,363.49c2,0.45,4.0499,0.86,5.96,1.7
			c5.39,5.84,9.7,12.68,12.3101,20.21c0.6,3.6,1.3099,7.19,2.25,10.73c2.24,8.66,2.95,17.63,3.23,26.54
			c-0.4401,0.24-1.3301,0.7-1.77,0.94c-1.16-10-2.8201-19.97-5.24-29.75c-0.91-3.85-2.27-7.58-4.04-11.11
			c-2.89-6.98-7.74-12.81-12.67-18.42L1382.41,363.49z"/>
	</g>
	<g id="_x23_ffeff2ff">
		<path fill="#FFEFF2" stroke="#FFEFF2" stroke-width="0.0938" d="M1387.5699,364.3c79.4701,0.07,158.9401-0.23,238.4,0.15
			c0.85,1.6,1.76,3.2,2.65,4.79c3.6801,6.22,7.1,12.63,9.5601,19.45c2.88,10.87,4.8999,21.92,6.5099,33.05
			c-10.21,0.74-20.4399,0.22-30.6599,0.39c-59.35-0.02-118.7101,0.02-178.0601-0.01c-9.61-0.27-19.27,0.58-28.83-0.46
			c-0.76-12.25-1.72-24.78-6.46-36.26c-2.6101-7.53-6.92-14.37-12.3101-20.21C1388.17,364.97,1387.77,364.52,1387.5699,364.3
			 M1574.65,373.07c2.77,4.46,6,8.67,8.2,13.49c11.7001,0.17,23.4-0.17,35.11-0.13c3.3201-0.07,6.78,0.39,9.9301-1.01
			c-0.72-5.17-4.6-8.97-6.98-13.4c-0.9601-1.34-1.9301-2.99-3.85-2.52c-14.25,0.03-28.51-0.14-42.76,0.1
			C1574.39,370.74,1574.03,372.02,1574.65,373.07z"/>
		<path fill="#FFEFF2" stroke="#FFEFF2" stroke-width="0.0938" d="M1382.4399,364.33c4.9301,5.61,9.78,11.44,12.67,18.42
			c4.1901,13.48,6.74,27.39,8.25,41.42c-7.09,3.93-13.96,8.23-20.99,12.24C1382.33,412.38,1382.1899,388.35,1382.4399,364.33z"/>
	</g>
	<g id="_x23_1e181bff">
		<path fill="#1E181B" stroke="#1E181B" stroke-width="0.0938" d="M1628.27,364.92c0.64,0.5,1.9199,1.49,2.5599,1.99
			c4.77,5.06,7.4801,11.73,10.3501,17.99c0.3199,0.99,0.6699,1.99,1.0499,2.98c0.52,1.74,1.0801,3.48,1.63,5.24
			c2.53,9.72,4.0601,19.75,3.7001,29.81c-0.5-0.02-1.51-0.05-2.02-0.07c-0.2101-7.11-1.9601-14.04-3.2101-21
			c-0.7899-4.56-2.25-8.96-4.1499-13.17c-2.4601-6.82-5.88-13.23-9.5601-19.45C1628.54,368.16,1628.36,366,1628.27,364.92z"/>
	</g>
	<g id="_x23_6b6a6bff">
		<path fill="#6B6A6B" stroke="#6B6A6B" stroke-width="0.0938" d="M1580.08,373.55c12.25-0.07,24.5,0.02,36.76-0.04
			c1.9701,2.78,3.79,5.68,5.39,8.7c-12.1799,0.17-24.35,0.14-36.52,0.32C1583.74,379.59,1581.85,376.6,1580.08,373.55z"/>
	</g>
	<g id="_x23_9a9293ff">
		<path fill="#9A9293" stroke="#9A9293" stroke-width="0.0938" d="M1395.11,382.75c1.77,3.53,3.13,7.26,4.04,11.11
			c2.4199,9.78,4.08,19.75,5.24,29.75l-1.03,0.56C1401.85,410.14,1399.3,396.23,1395.11,382.75z"/>
	</g>
	<g id="_x23_6a6264ff">
		<path fill="#6A6264" stroke="#6A6264" stroke-width="0.0938" d="M1400.6801,385.4c4.74,11.48,5.7,24.01,6.46,36.26
			c9.5599,1.04,19.22,0.19,28.83,0.46c59.35,0.03,118.7101-0.01,178.0601,0.01c10.22-0.17,20.45,0.35,30.6599-0.39
			c-1.61-11.13-3.6299-22.18-6.5099-33.05c1.8999,4.21,3.36,8.61,4.1499,13.17c1.25,6.96,3,13.89,3.2101,21
			c-25.1901-0.43-50.38-0.08-75.5701-0.2c-54.6,0.01-109.21-0.01-163.8099,0.01c-0.28-8.91-0.99-17.88-3.23-26.54
			C1401.99,392.59,1401.28,389,1400.6801,385.4z"/>
	</g>
	<g id="_x23_3d1e26ff">
		<path fill="#3D1E26" stroke="#3D1E26" stroke-width="0.0938" d="M503.55,394.61c210.64,0.12,421.28,0.06,631.93,0.03
			c1.3201,13.58,2.22,27.24,2.05,40.89c-1.62-2.92-0.92-6.37-1.1901-9.55c-0.4299-6.36,0.04-12.76-0.83-19.08
			c-0.5-3.69-0.5601-7.42-0.46-11.13c-1.5601,0.38-3.0901,0.79-4.64,1.1c-14.4301,1.08-28.9701,0.15-43.4401,0.46
			c-9.15-0.34-18.38,0.73-27.46-0.58c-2.03-0.59-4.11-0.5-6.12,0.04c-4.74,0.88-9.58,0.41-14.36,0.49
			c-144.66,0.01-289.3101,0.01-433.97,0c-6.37,0.17-12.78-0.38-19.12,0.27c-0.27,0.53-0.8,1.6-1.07,2.14
			c17.59,0.35,35.2-0.18,52.79,0.15c-2.87,0.55-5.7599,1.05-8.68,1.05c-14.72-0.08-29.44-0.2-44.16,0.02
			c-0.18-1.72-0.3-3.43-0.36-5.15c-1.64,0.35-3.27,0.74-4.91,1.04c-6.81,1.06-13.72,0.34-20.57,0.53
			c-16.41-0.15-32.84,0.31-49.23-0.23c-2.09-0.53-4.16-1.12-6.24-1.63L503.55,394.61z"/>
	</g>
	<g id="_x23_ca7c89ff">
		<path fill="#CA7C89" stroke="#CA7C89" stroke-width="0.0938" d="M509.75,397.1c16.39,0.54,32.82,0.08,49.23,0.23
			c6.85-0.19,13.76,0.53,20.57-0.53c1.41,5.98,0.84,12.16,1.52,18.23c0.74,8.29,0.39,16.63,0.77,24.94
			c0.81,8.99,0.46,18.02,0.65,27.02c-0.17,10.69,0.25,21.4-0.69,32.06c-0.61,33.68-3.8,67.31-9.7,100.48
			c-7.25,0.91-14.0099,3.8199-21.03,5.7c-5.63,1.02-11.34,1.63-17.06,1.09c-3.75-1.17-7.6-2.01-11.52-2.16
			c-1.05-3.6-1.17-7.36-1.66-11.05c-1.38-11.82-4.13-23.4-5.88-35.15c-4.47-29.78-5.99-59.88-6.96-89.94
			c-0.84-23.66-0.48-47.36,0.53-71.02L509.75,397.1z"/>
		<path fill="#CA7C89" stroke="#CA7C89" stroke-width="0.0938" d="M1059.51,396.75c9.08,1.31,18.3099,0.24,27.46,0.58
			c14.47-0.31,29.01,0.62,43.4401-0.46c1.4199,14.66,1.9399,29.39,2.23,44.12c0.0499,11.01,0.89,22,0.63,33.02
			c-0.62,41.02-2.4401,82.23-9.8,122.67c-11.4299,2.85-22.33,8.86-34.5,7.67c-5.5499-1.1-10.74-3.38-15.99-5.41
			c-1.2999-0.33-1.1799-1.87-1.36-2.86c-0.9399-10.05-3.08-19.91-4.85-29.82c-4.6801-28.19-6.59-56.75-7.59-85.27
			c-0.78-9.97-0.5701-19.98-0.8201-29.97C1058.24,432.93,1058.25,414.8,1059.51,396.75z"/>
		<path fill="#CA7C89" stroke="#CA7C89" stroke-width="0.0938" d="M1106.33,607.44c5.5901-1.45,10.75-4.21,16.4401-5.32
			c-2.01,4.09-4.1,8.25-4.61,12.85c-1.05,5-0.0701,10.0601,0.24,15.08c0.1899,6.52,3.76,12.3,4.36,18.75
			c-2.92-0.06-5.86-0.21-8.67-1.06c-8.47-2.47-17.51-2.74-26.1899-1.25c-6,0.98-11.5701,3.86-17.7001,4.18
			c2.2301-9.4,4.2301-18.96,4.0701-28.68c-0.6801-5.8-1.11-11.64-1.0701-17.48c4.87,1.6,9.5701,4.22,14.8201,4.27
			C1094.13,608.95,1100.39,609.15,1106.33,607.44z"/>
		<path fill="#CA7C89" stroke="#CA7C89" stroke-width="0.0938" d="M537.97,611.49c9.27,0.23,18.38-2.25,26.9901-5.48
			c1.95-0.38,3.9-0.69,5.88-0.96c-3.06,7.93-3.02,16.58-2.17,24.92c0.98,5.4901,2.52,10.88,3.05,16.45
			c-3.58,1.35-7.45,1.29-11.1899,0.8c-8.25-1.15-16.59-0.37-24.8101,0.5601c-5.74,0.7-11.4,2.78-17.24,1.89
			c2.57-13.35,5.75-26.82,5.02-40.5C528.36,609.68,533.04,611.46,537.97,611.49z"/>
		<path fill="#CA7C89" stroke="#CA7C89" stroke-width="0.0938" d="M1075,655.31c8.35-2.83,17.04-5.22,25.96-4.7
			c7.6801-0.03,14.8301,3.88,22.5701,3.09c4.78,23.16,7.48,46.7,8.98,70.29c1.5599,25.61,2.28,51.28,1.6899,76.95
			c-0.8099,9.26-0.2899,18.6-1.24,27.86c-1.36,17.24-2.37,34.57-5.1499,51.64c-3.1201-4.33-6.51-8.48-9.2401-13.07
			c0.3401-1.44,0.6801-2.88,1.01-4.31c-0.62-0.35-1.85-1.07-2.47-1.42c-18.1899,0.14-36.35,1.12-54.5499,1.08
			c-3.05-26.46-4.1201-53.1-4.27-79.72c0.02-42.68,2.2-85.55,10.26-127.54C1070.6899,655.43,1072.84,655.4,1075,655.31z"/>
		<path fill="#CA7C89" stroke="#CA7C89" stroke-width="0.0938" d="M561.96,652.41c3.57,0.22,7.23,0.29,10.64-0.97
			c5.86,28.19,8.72,56.9,9.9901,85.62c-0.07,5,0.33,9.99,0.71,14.97c0.49,27.6899,0.62,55.43-1.63,83.04
			c-0.83,12.18-2.21,24.31-3.33,36.47c-13.44,0.16-26.88,0.11-40.32,0.28c-8.45-0.14-16.96,1.3-25.37-0.13
			c-0.95-13.91-2.71-27.76-3.55-41.68c-2.29-33.97-1.92-68.09-0.09-102.07c1.39-24.32,4.02-48.6,8.62-72.54
			c8.24-0.08,16.14-3.02,24.38-3.09C548.65,652.05,555.31,652,561.96,652.41z"/>
	</g>
	<g id="_x23_efb7bcff">
		<path fill="#EFB7BC" stroke="#EFB7BC" stroke-width="0.0938" d="M585.94,397.55c6.34-0.65,12.75-0.1,19.12-0.27
			c144.66,0.01,289.31,0.01,433.97,0c4.78-0.08,9.62,0.39,14.36-0.49c0.26,0.49,0.7999,1.46,1.0699,1.94
			c-20.1699-0.08-40.34,0.07-60.4999,0.07c-11.33-0.23-22.64,0.57-33.96,0.37c-107.45,0.19-214.9,0.28-322.34,0.67
			c-17.59-0.33-35.2,0.2-52.79-0.15C585.14,399.15,585.67,398.08,585.94,397.55z"/>
		<path fill="#EFB7BC" stroke="#EFB7BC" stroke-width="0.0938" d="M683.98,401.86c111.34-0.19,222.67-0.52,334.01-0.63
			c11.83-0.26,23.71,0.45,35.52-0.42c0.1899,0.67,0.55,2.02,0.74,2.7c-156.3,0.11-312.6,0.06-468.89,0.17
			c0.02-0.34,0.05-1.04,0.07-1.39C618.28,402.06,651.14,402.49,683.98,401.86z"/>
	</g>
	<g id="_x23_20080bff">
		<path fill="#20080B" stroke="#20080B" stroke-width="0.0938" d="M637.66,399.84c107.44-0.39,214.89-0.48,322.34-0.67
			c11.32,0.2,22.63-0.6,33.96-0.37c20.16,0,40.33-0.15,60.4999-0.07c-0.24,0.52-0.71,1.56-0.95,2.08
			c-11.8101,0.87-23.6901,0.16-35.52,0.42c-111.34,0.11-222.67,0.44-334.01,0.63c-32.84,0.63-65.7,0.2-98.55,0.43l-0.61-1.38
			c14.72-0.22,29.44-0.1,44.16-0.02C631.9,400.89,634.79,400.39,637.66,399.84z"/>
	</g>
	<g id="_x23_a3dbf6ff">
		<path fill="#A3DBF6" stroke="#A3DBF6" stroke-width="0.0938" d="M585.59,410.43c72.3199-0.3,144.65-0.04,216.98-0.02
			c-0.26,49.2-0.07,98.4-0.43,147.6c0.24,4.3,0.07,8.61-0.34,12.9c-0.14,23.88,0,47.77-0.14,71.65
			c-74.77,0.16-149.54,0.11-224.31,0.3c-2.3-8.05-4.63-16.38-3.88-24.83c0.6-5.82,3.04-11.2401,3.57-17.07
			c5.91-33,8.96-66.45,9.77-99.94c0.8-5.98,0.51-12.03,0.62-18.04c0.07-13.68,0.13-27.36-0.23-41.03
			C585.82,431.49,587.43,420.83,585.59,410.43z"/>
		<path fill="#A3DBF6" stroke="#A3DBF6" stroke-width="0.0938" d="M821.3,410.4c77.47-0.02,154.93-0.03,232.4,0
			c-0.9199,27.52-0.5199,55.08,0.8101,82.58c1.21,23.08,2.84,46.18,6.48,69.02c1.17,7.35,2.66,14.66,3.92,22
			c0.87,5.57,2.15,11.18,1.65,16.86c-3.16,5.28,1.6,10.74,1.9299,16.12c0.28,7.01,0.7,14.21-1.6899,20.93
			c-0.5801,1.7,0.1599,5.13-2.7001,4.38c-80.59,0.03-161.19-0.03-241.78,0.21c-0.34-14.16,0.4-28.36-0.52-42.49
			C821.74,536.81,821.62,473.6,821.3,410.4z"/>
		<path fill="#A3DBF6" stroke="#A3DBF6" stroke-width="0.0938" d="M580.13,663.35c73.83,0.17,147.66,0.54,221.49,0.39
			c0.03,58.44-0.21,116.88-0.18,175.32c-5.56,1.03-10.99,2.64-16.51,3.79c-27.67,6.63-55.32,13.34-82.97,20.04
			c-6.76,1.65-13.53,3.25-20.29,4.86c-0.04,0.64-0.11,1.91-0.14,2.55c-18.19,0-36.3701,0.22-54.5601,0.39
			c-3.66,0.05-7.34-0.15-10.95,0.51c-10.86,0.2-21.72,0.22-32.58,0.28c1.4-13.47,2.45-27,3.76-40.46
			c0.47-6.67,0.13-13.39,1.03-20.03c0.43-18.32,0.41-36.65,0.16-54.97c-0.08-3.66,0.14-7.36-0.6-10.97
			C587.1,717.69,584.77,690.35,580.13,663.35z"/>
		<path fill="#A3DBF6" stroke="#A3DBF6" stroke-width="0.0938" d="M822.53,833.84c0.03-56.69-0.02-113.38-0.13-170.07
			c79.8-0.04,159.6-0.05,239.39,0.01c-8.0901,49.27-9.5801,99.39-8.04,149.23c0.6899,16.58,1.79,33.15,3.67,49.65
			c-17.11,1.28-34.3201,0.67-51.46,1.17c-8.48,0.92-17.04,0.31-25.54,0.84c0.07-1.28,0.15-2.55,0.24-3.8
			c-14.9-2.84-29.75-5.91-44.64-8.76c-12.31-2.49-24.67-4.71-36.96-7.3c-1.38-0.21-2.77-0.41-4.13-0.6
			c-8.33-1.86-16.74-3.3-25.09-5.04c-0.11-17.42-0.08-34.83-0.48-52.24c0.06-2.25-1.03-4.66-3.43-5.06
			c-11.73-1.13-23.53-0.03-35.25,0.81c-0.48,0.29-1.46,0.88-1.95,1.18c-0.16,14.71-0.41,29.42-0.43,44.14
			c-0.16,1.46,0.33,3.19-0.72,4.44C825.93,833.03,824.22,833.41,822.53,833.84z"/>
	</g>
	<g id="_x23_feb1b6ff">
		<path fill="#FEB1B6" stroke="#FEB1B6" stroke-width="0.0938" d="M806.56,410.43c3.58-0.07,7.17-0.07,10.76-0.01
			c-0.12,15.19,0.09,30.4-0.51,45.58c-0.14,82.01-0.44,164.02-0.66,246.03c-0.61,32.6299-0.1801,65.29-0.3,97.9399
			c0.22,11.78-0.48,23.59,0.41,35.35c-2.8,0.75-5.63,1.4-8.52,1.53c-0.05-104.95-0.36-209.9-0.46-314.85
			c-0.1801-15.98,0.34-31.99-0.35-47.95c0.66-5.34,0.17-10.71-0.2-16.05C806.69,442.14,806.67,426.29,806.56,410.43z"/>
	</g>
	<g id="_x23_fdeff1ff">
		<path fill="#FDEFF1" stroke="#FDEFF1" stroke-width="0.0938" d="M1405.6,427.52c1.29-0.92,2.84-1.15,4.41-1.08
			c77.26,0.07,154.53-0.06,231.79,0.07c-5.74,3.81-10.9301,8.52-16.8301,12.02c-55.3099,0.24-110.65,0.03-165.97,0.1
			c-23.85-0.09-47.71,0.18-71.5601-0.13C1393.33,434.57,1399.55,431.18,1405.6,427.52 M1409.73,427.95
			c-0.1899,0.56-0.5699,1.68-0.77,2.23c71.37,0.16,142.74,0.09,214.11,0.04c-0.13-1.97-1.13-2.76-3.0099-2.37
			C1549.95,427.92,1479.84,427.71,1409.73,427.95 M1403.3101,434.58c-0.02,0.52-0.0601,1.57-0.0801,2.09
			c73.46-0.04,146.91,0.12,220.37-0.08c-0.0499-0.49-0.15-1.48-0.2-1.97C1550.04,434.51,1476.67,434.58,1403.3101,434.58z"/>
	</g>
	<g id="_x23_0f0909ff">
		<path fill="#0F0909" stroke="#0F0909" stroke-width="0.0938" d="M1409.73,427.95c70.11-0.24,140.22-0.03,210.3301-0.1
			c1.8799-0.39,2.8799,0.4,3.0099,2.37c-71.37,0.05-142.74,0.12-214.11-0.04C1409.16,429.63,1409.54,428.51,1409.73,427.95z"/>
		<path fill="#0F0909" stroke="#0F0909" stroke-width="0.0938" d="M1403.3101,434.58c73.36,0,146.73-0.07,220.09,0.04
			c0.0499,0.49,0.15,1.48,0.2,1.97c-73.46,0.2-146.91,0.04-220.37,0.08C1403.25,436.15,1403.29,435.1,1403.3101,434.58z"/>
	</g>
	<g id="_x23_fdb1b6ff">
		<path fill="#FDB1B6" stroke="#FDB1B6" stroke-width="0.0938" d="M577.4,648.45c74.75,0.05,149.5,0.11,224.25,0.21
			c0.02,2.9,0.03,5.8-0.01,8.71c-74.25-0.12-148.49,0.13-222.73,0.25C578.47,654.55,577.92,651.49,577.4,648.45z"/>
	</g>
	<g id="_x23_c89c9fff">
		<path fill="#C89C9F" stroke="#C89C9F" stroke-width="0.0938" d="M822.19,648.54c0.56,0.05,1.68,0.16,2.24,0.21
			c0.02,3.02,0.02,6.04-0.1,9.07C820.19,656.84,822.18,651.55,822.19,648.54z"/>
	</g>
	<g id="_x23_ffb1b6ff">
		<path fill="#FFB1B6" stroke="#FFB1B6" stroke-width="0.0938" d="M830.33,648.69c73.21,0.1,146.43,0.08,219.65,0.08
			c4.88,0.03,9.8101-0.31,14.65,0.58c-0.63,2.6801-1.16,5.39-1.83,8.06c-77.4901-0.11-154.9901-0.04-232.48-0.03
			C830.26,654.48,830.25,651.58,830.33,648.69z"/>
	</g>
	<g id="_x23_040000ff">
		<path fill="#040000" stroke="#040000" stroke-width="0.0938" d="M296.77,667.85c1.44-3.23,3.94-7.85,8.26-6.38
			c3.33,1.65,4.47,5.6201,5.31,8.96c1.66,8.81,1.56,18.21-1.48,26.73c-1.02,2.5-2.74,5.73-5.88,5.53c-3.42,0.62-4.89-3.03-6.27-5.41
			C293.95,687.66,294.16,677.48,296.77,667.85 M302.49,667.18c-1.1,3.15-2.17,6.37-2.21,9.75c-0.22,6.53-0.46,13.21,1.43,19.55
			c0.5,0.06,1.51,0.2,2.01,0.27c3.28-9.34,3.41-19.63,0.65-29.11C303.9,667.52,302.96,667.29,302.49,667.18z"/>
	</g>
	<g id="_x23_fed2d9ff">
		<path fill="#FED2D9" stroke="#FED2D9" stroke-width="0.0938" d="M1130.27,661.52c5.22,0.87,10.51,0.92,15.77,1.36
			c15.61,1.94,31.3099-0.06,46.96-0.26c16.65-0.22,33.54-1.45,49.95,1.97c13.6901,4.72,27.65,8.62,41.7301,11.99l-0.38,0.84
			c1.5599,0.15,3.1399,0.33,4.73,0.56c-38.99,0.52-78,0.21-117,0.41c-6.3401,0.14-12.75-0.34-19.01,0.78
			c-1.4,0.1-2.77,0.2-4.13,0.29c-5.71-1.94-10.2001-6.05-15.29-9.08C1130.55,668.52,1130.9301,664.57,1130.27,661.52z"/>
	</g>
	<g id="_x23_030100ff">
		<path fill="#030100" stroke="#030100" stroke-width="0.0938" d="M259.49,663.57c2.31-2.03,5.76-0.7,7.27,1.64
			c3.82,5.49,3.8,12.42,4.28,18.82c-0.52,7.7-0.19,17.04-6.8,22.41c-0.9,0.01-2.72,0.03-3.62,0.04c-1.89-1.52-3.5-3.35-4.67-5.47
			c-0.86-3.3-1.55-6.63-2.19-9.96c-0.26-4.36-0.31-8.73,0.01-13.07C254.91,673.01,255.2,667,259.49,663.57 M261.56,668.23
			c-3.62,9.12-3.86,19.41-1.35,28.85c0.3,1.71,1.41,3.08,2.51,4.37c4.35-10.31,4.16-22.37,0.51-32.85
			C262.81,668.51,261.98,668.33,261.56,668.23z"/>
		<path fill="#030100" stroke="#030100" stroke-width="0.0938" d="M290.06,975.12c4.94-1.96,10.83-3.79,15.94-1.41
			c2.3,0.98,3.77,3.79,2.91,6.21c-0.92,3.39-4.07,5.4-6.7,7.42c-2.38,0.97-4.77,1.93-7.14,2.94c-5.02,0.53-11.21,1.5699-14.68-3.08
			C279.57,981.15,285.23,977.28,290.06,975.12 M293.44,979.27c-3.16,1.25-6.72,2.83-7.83,6.34c3.8,0.16,7.75,0.26,11.26-1.44
			c2.75-1.33,6.16-2.78,7.07-5.99C300.43,977.18,296.76,978.05,293.44,979.27z"/>
	</g>
	<g id="_x23_d17082ff">
		<path fill="#D17082" stroke="#D17082" stroke-width="0.0938" d="M302.49,667.18c0.47,0.11,1.41,0.34,1.88,0.46
			c2.76,9.48,2.63,19.77-0.65,29.11c-0.5-0.07-1.51-0.21-2.01-0.27c-1.89-6.34-1.65-13.02-1.43-19.55
			C300.32,673.55,301.39,670.33,302.49,667.18z"/>
	</g>
	<g id="_x23_cc7180ff">
		<path fill="#CC7180" stroke="#CC7180" stroke-width="0.0938" d="M261.56,668.23c0.42,0.1,1.25,0.28,1.67,0.37
			c3.65,10.48,3.84,22.54-0.51,32.85c-1.1-1.29-2.21-2.66-2.51-4.37C257.7,687.64,257.94,677.35,261.56,668.23z"/>
	</g>
	<g id="_x23_fbd3daff">
		<path fill="#FBD3DA" stroke="#FBD3DA" stroke-width="0.0938" d="M1132.1899,671.63c2.28,1.75,4.65,3.42,7.01,5.09
			c0.55,0.32,1.66,0.96,2.2101,1.28c-0.2001,16.68-0.11,33.37-0.1801,50.05c-0.22,1.64-0.41,3.29-0.49,4.96
			c-0.15,16.79,0.22,33.6-0.16,50.37c-0.2799,0.35-0.84,1.05-1.12,1.4c-0.2899-9.58,0.4501-19.2401-0.6499-28.76
			c-0.4401-8.32,0.1499-16.71-0.9601-24.97C1137.17,711.15,1134.87,691.35,1132.1899,671.63z"/>
	</g>
	<g id="_x23_b1717dff">
		<path fill="#B1717D" stroke="#B1717D" stroke-width="0.0938" d="M1146.3101,683.41c7.23-0.37,14.3799,1.1201,21.61,0.95
			c23.88,0.04,47.76,0.14,71.6499,0.1c-0.0199,4.84-0.0599,9.69-0.13,14.54c-1.1499-0.42-2.3099-0.85-3.4299-1.27
			c-8.0601-0.01-16.12-0.21-24.17,0.06c-1.5299-0.04-1.9099,1.91-2.84,2.78c-5.6899,0.2-11.38-0.05-17.0601-0.01
			c-3.86,0.05-7.09-2.57-10.8799-2.81c-4.1001-0.2-8.2001-0.02-12.3-0.02c-0.3201,2.35-0.6801,4.7-1.11,7.04
			c-2.39-1.02-4.99-1-7.47-0.38l-1.2101,0.19c1.0801-3.43,5.7101,0.02,7.42-2.95c-3.8101-0.45-7.64-0.06-11.4401-0.39
			c-3-0.71-5.59-2.5-8.26-3.94C1146.62,692.66,1146.23,688.04,1146.3101,683.41z"/>
	</g>
	<g id="_x23_e59ba8ff">
		<path fill="#E59BA8" stroke="#E59BA8" stroke-width="0.0938" d="M1244.58,701.16c-0.3099-5.55-0.24-11.12-0.22-16.68
			c14.75,0.01,29.49,0.13,44.25,0.12c0.01,22.78,0.0701,45.56-0.09,68.34c-6.61,2.84-12.3201,7.27-18.51,10.81
			c-1.98-0.8-3.86-1.86-5.54-3.14c-0.5699-16.22,0.15-32.5-0.36-48.73c-4.33-2.16-8.99-3.57-13.62-4.92
			c-0.1-1.36-0.2-2.73-0.25-4.06C1248.34,702.34,1246.46,701.73,1244.58,701.16z"/>
	</g>
	<g id="_x23_86de8dff">
		<path fill="#86DE8D" stroke="#86DE8D" stroke-width="0.0938" d="M1213.74,699.89c4.5701-0.13,9.36-0.84,13.74,0.89
			c1.87,0.65,3.74,1.36,5.63,2.04c1.21,0.44,2.42,0.89,3.65,1.36c-0.23,1.54-0.4,3.1-0.52,4.67c-7.13-2.8199-14.4-5.28-21.4-8.41
			C1214.5699,700.3,1214.02,700.03,1213.74,699.89z"/>
	</g>
	<g id="_x23_fbfafcff">
		<path fill="#FBFAFC" stroke="#FBFAFC" stroke-width="0.0938" d="M1146.48,700.05c4.13,1.47,7.87,3.78,11.8101,5.67
			c2.1899,1.16,4.36,2.33,6.58,3.48c-6.12,1.49-11.04-2.43-16.2-4.86C1146.9399,703.5,1146.47,701.83,1146.48,700.05z"/>
	</g>
	<g id="_x23_fcfdfdff">
		<path fill="#FCFDFD" stroke="#FCFDFD" stroke-width="0.0938" d="M1173.54,701.09c-0.0601-0.35-0.1801-1.05-0.23-1.4
			c2.95,0.05,5.9299,0.06,8.8999,0.01c1.64,0.69,3.28,1.38,4.9301,2.11c2.4399,1.11,5.01,1.97,7.42,3.19l0.0099,0.79
			c-0.0099,1.66,0.01,3.33,0.01,5.02c-2.8099-1.39-5.6499-2.71-8.48-4C1181.88,704.95,1177.8,702.82,1173.54,701.09z"/>
	</g>
	<g id="_x23_040700ff">
		<path fill="#040700" stroke="#040700" stroke-width="0.0938" d="M1214.84,700.44c7,3.13,14.27,5.59,21.4,8.41
			c0.12-1.5699,0.29-3.13,0.52-4.67c0.11-0.51,0.3199-1.51,0.4299-2.02l1.1201,0.77c0.35,0.25,1.0399,0.74,1.3799,0.98
			c-0.7,0.7401-1.3899,1.4901-2.0399,2.27c1.46,8.85,0.4199,17.85,0.73,26.77c-0.02,11.18-0.03,22.36,0.0699,33.54
			c-0.4399,0.5-1.3199,1.49-1.76,1.99l-0.1299-1.76c-0.25-18.18-0.04-36.37-0.1001-54.55c-4.0599-0.38-8.13-0.28-12.1799,0.04
			c0.01,18.39-0.02,36.78,0.03,55.17c-0.52,0.14-1.5801,0.43-2.1101,0.58v-0.6c-0.0499-16.67,0-33.33-0.0299-50
			c-4.9301,0.02-9.86-0.01-14.78,0c-0.04,16.3,0.0599,32.6-0.04,48.9c-0.52,0.29-1.5599,0.89-2.08,1.19
			c0-20.7-0.03-41.41-0.01-62.11c-1.38,0-2.76,0.0099-4.11,0.06c-0.49,0.02-1.47,0.06-1.9601,0.08
			c-0.8899,0.04-1.7699,0.09-2.6299,0.16c-0.5,0.04-1.5,0.11-1.9901,0.15l-0.0099-0.79l0.62-0.98c1.7799-0.04,3.58-0.07,5.38-0.11
			c0.5499-0.4,1.6499-1.2,2.1899-1.6c1.66-0.1,3.35,0.15,4.96,0.61c0.5601,0.23,1.66,0.7,2.2201,0.93
			c4.0099,1.81,8.0699,3.52,12.1699,5.14c3.28,1.3,6.88,0.55,10.3201,0.54c-5.9401-2.19-11.9301-4.29-17.7101-6.8701L1214.84,700.44
			 M1207.4301,705.22c-0.05,1.08-0.0601,2.17-0.05,3.27c4.99,2.15,9.96,4.36,14.98,6.47c-0.4-1.3,0.1801-3.31-1.26-4
			C1216.64,708.81,1211.95,707.19,1207.4301,705.22 M1207.47,710.9c-0.0499,1.44-0.0599,2.89-0.0599,4.35
			c3.24-0.04,6.47-0.01,9.72-0.09C1213.96,713.61,1210.74,712.19,1207.47,710.9z"/>
	</g>
	<g id="_x23_2d2e2dff">
		<path fill="#2D2E2D" stroke="#2D2E2D" stroke-width="0.0938" d="M1194.28,701.67c2.83,0.04,5.6599,0.22,8.47,0.64
			c-0.54,0.4-1.64,1.2-2.1899,1.6c-1.8,0.04-3.6001,0.07-5.38,0.11C1194.96,703.43,1194.51,702.26,1194.28,701.67z"/>
	</g>
	<g id="_x23_f8f7faff">
		<path fill="#F8F7FA" stroke="#F8F7FA" stroke-width="0.0938" d="M1207.71,702.92c2.3201-0.26,4.65-0.27,7-0.26
			c5.78,2.58,11.77,4.6801,17.7101,6.8701c-3.4401,0.0099-7.04,0.7599-10.3201-0.54c-4.1-1.62-8.16-3.33-12.1699-5.14
			C1209.37,703.62,1208.27,703.15,1207.71,702.92z"/>
	</g>
	<g id="_x23_555446ff">
		<path fill="#555446" stroke="#555446" stroke-width="0.0938" d="M1241.73,701.91c1.84-0.17,2.39,1.35,2.98,2.76
			c1.1001-0.02,2.23-0.02,3.37-0.02l0.0601,0.91c-2.83-0.11-5.66-0.2-8.46-0.34c-1.77,5.0601-0.9,10.51-1.04,15.76
			c-0.1,15.47,0.23,30.94-0.1901,46.4v-0.89c-0.1-11.18-0.09-22.36-0.0699-33.54c-0.3101-8.92,0.73-17.92-0.73-26.77
			c0.65-0.78,1.34-1.53,2.0399-2.27c-0.34-0.24-1.0299-0.73-1.3799-0.98c1.6599,0.29,3.34,0.54,5.0499,0.75L1241.73,701.91z"/>
		<path fill="#555446" stroke="#555446" stroke-width="0.0938" d="M1169.3101,712.4c4.83,0,9.6699-0.01,14.5199-0.02
			c0.9601,11.17,0.2201,22.41,0.4501,33.62c-0.27,7.2,0.7,14.5-0.6901,21.63c-4.71-0.19-9.4199-0.18-14.12-0.08
			C1169.08,749.17,1169.36,730.78,1169.3101,712.4z"/>
		<path fill="#555446" stroke="#555446" stroke-width="0.0938" d="M835.39,962.53c1.03,6.72-0.07,13.54,0.09,20.31
			C835.53,976.07,834.84,969.29,835.39,962.53z"/>
	</g>
	<g id="_x23_fbfbfdff">
		<path fill="#FBFBFD" stroke="#FBFBFD" stroke-width="0.0938" d="M1160.1801,704.39c2.48-0.62,5.08-0.64,7.47,0.38
			c1.09,0.42,2.1799,0.88,3.28,1.38c2.7599,1.37,5.5299,2.74,8.2699,4.2c-3.08,0.12-6.1499,0.14-9.21,0.06
			C1167.46,707.36,1163.48,706.3,1160.1801,704.39z"/>
	</g>
	<g id="_x23_515049ff">
		<path fill="#515049" stroke="#515049" stroke-width="0.0938" d="M1196.5601,705.64c0.86-0.07,1.74-0.12,2.6299-0.16
			c-0.2,20.82,0.1001,41.65-0.1699,62.47c-3.09-0.46-2.39-3.72-2.53-5.99C1196.62,743.19,1196.5,724.42,1196.5601,705.64z"/>
	</g>
	<g id="_x23_f4fcb2ff">
		<path fill="#F4FCB2" stroke="#F4FCB2" stroke-width="0.0938" d="M1201.15,705.4c1.35-0.05,2.73-0.06,4.11-0.06
			c-0.02,20.7,0.01,41.41,0.01,62.11c-1-0.03-3-0.08-4-0.11C1201.04,746.7,1201.26,726.05,1201.15,705.4z"/>
	</g>
	<g id="_x23_88d68cff">
		<path fill="#88D68C" stroke="#88D68C" stroke-width="0.0938" d="M1207.4301,705.22c4.5199,1.97,9.21,3.59,13.6699,5.7401
			c1.4401,0.69,0.86,2.7,1.26,4c-5.02-2.11-9.99-4.32-14.98-6.47C1207.37,707.39,1207.38,706.3,1207.4301,705.22z"/>
	</g>
	<g id="_x23_f2fdb0ff">
		<path fill="#F2FDB0" stroke="#F2FDB0" stroke-width="0.0938" d="M1146.74,705.92c3.42,1.29,6.5701,3.17,9.75,4.98
			c0,2.59,0,5.19-0.01,7.8c-3.16-2.03-6.49-3.77-9.58-5.87C1146.61,710.54,1146.75,708.21,1146.74,705.92z"/>
	</g>
	<g id="_x23_aafeb3ff">
		<path fill="#AAFEB3" stroke="#AAFEB3" stroke-width="0.0938" d="M1238.64,720.98c0.14-5.25-0.73-10.7,1.04-15.76
			c2.7999,0.14,5.63,0.23,8.46,0.34c-0.46,20.58,0.29,41.15-0.38,61.72c-3.11,0.1-6.22,0.1-9.3101,0.1
			C1238.87,751.92,1238.54,736.45,1238.64,720.98z"/>
	</g>
	<g id="_x23_f4f5f7ff">
		<path fill="#F4F5F7" stroke="#F4F5F7" stroke-width="0.0938" d="M1250.26,708.92c3.04,0.94,6.04,2.04,8.97,3.31
			c-3.02,0.17-6.04,0.17-9.04,0.17C1250.1899,711.23,1250.22,710.07,1250.26,708.92z"/>
	</g>
	<g id="_x23_f2fea8ff">
		<path fill="#F2FEA8" stroke="#F2FEA8" stroke-width="0.0938" d="M1158.61,711.37c2.9-0.04,5.8201-0.03,8.74,0.04
			c-0.0399,18.65,0,37.3-0.02,55.95c-2.9199,0-5.83,0-8.73,0.01C1158.59,748.7,1158.5601,730.03,1158.61,711.37z"/>
	</g>
	<g id="_x23_f9f6f3ff">
		<path fill="#F9F6F3" stroke="#F9F6F3" stroke-width="0.0938" d="M1207.47,710.9c3.27,1.29,6.49,2.71,9.66,4.2599
			c-3.25,0.08-6.48,0.05-9.72,0.09C1207.41,713.79,1207.42,712.34,1207.47,710.9z"/>
	</g>
	<g id="_x23_f2feaaff">
		<path fill="#F2FEAA" stroke="#F2FEAA" stroke-width="0.0938" d="M1224.28,712.21c4.0499-0.32,8.12-0.42,12.1799-0.04
			c0.0601,18.18-0.1499,36.37,0.1001,54.55l0.0299,0.6201c-4.1,0.05-8.1899,0.0099-12.2799,0.04
			C1224.26,748.99,1224.29,730.6,1224.28,712.21z"/>
	</g>
	<g id="_x23_f2feabff">
		<path fill="#F2FEAB" stroke="#F2FEAB" stroke-width="0.0938" d="M1186.21,734.03c0.1001-6.75-0.1-13.4901,0.11-20.2401
			c2.7401,0.02,5.4801,0.01,8.2401-0.0099c0.0599,17.86,0.09,35.73-0.01,53.59c-2.75-0.01-5.49-0.02-8.2201,0.02
			c-0.11-3.13-0.11-6.26-0.11-9.39c0.03-6.68,0.03-13.36-0.01-20.04C1186.1899,736.64,1186.1899,735.33,1186.21,734.03z"/>
	</g>
	<g id="_x23_878029ff">
		<path fill="#878029" stroke="#878029" stroke-width="0.0938" d="M1250.22,714.38c3.9601,0.19,8.12-0.62,11.98,0.5
			c0.3,15.72-0.0399,31.45,0.15,47.17c-0.21,1.71,0.42,3.89-1.11,5.15c-3.62,0.29-7.24,0.09-10.85,0.19
			C1249.9301,749.73,1250.28,732.05,1250.22,714.38z"/>
	</g>
	<g id="_x23_e4e5e7ff">
		<path fill="#E4E5E7" stroke="#E4E5E7" stroke-width="0.0938" d="M1146.62,715.27c2.28,1.26,4.49,2.65,6.63,4.18
			c-2.13-0.02-4.25,0.1-6.34-0.19C1146.71,717.93,1146.67,716.59,1146.62,715.27z"/>
	</g>
	<g id="_x23_aaffb2ff">
		<path fill="#AAFFB2" stroke="#AAFFB2" stroke-width="0.0938" d="M1207.39,717.36c4.92-0.01,9.85,0.02,14.78,0
			c0.0299,16.67-0.02,33.33,0.0299,50c-4.96,0.02-9.9199,0.02-14.87,0l0.02-1.1C1207.45,749.96,1207.35,733.66,1207.39,717.36z"/>
	</g>
	<g id="_x23_5b1421ff">
		<path fill="#5B1421" stroke="#5B1421" stroke-width="0.0938" d="M1147.13,721.31c3.16-0.32,6.34-0.38,9.52-0.15
			c0.0399,11.95,0.09,23.89-0.01,35.84c-0.02,2.57,0.28,5.14,0.66,7.69c-0.4,0.92-0.79,1.85-1.16,2.79c-3.05,0.09-6.1,0.15-9.13,0.2
			c-0.8201-10.54-0.21-21.12-0.39-31.68C1146.62,731.1,1146.33,726.17,1147.13,721.31z"/>
	</g>
	<g id="_x23_ffc6cfff">
		<path fill="#FFC6CF" stroke="#FFC6CF" stroke-width="0.0938" d="M1426.0699,725.27c8.5-1.41,17.2001-0.31,25.75-1.39
			c7.7201-0.36,15.4701-0.14,23.2101-0.06c7.27,1.04,14.6599,0.44,21.98,1.01c4.9,1.1,10.01,0.24,14.91,1.4
			c2.98,0.23,6.0199,0.25,8.97,0.94c31.0699,3.25,61.83,9.99,91.24,20.63c1.23,0.48,2.48,0.95,3.75,1.44
			c1.66,0.61,3.3199,1.25,4.99,1.92c2.0699,0.85,4.14,1.75,6.23,2.63c10.0801,4.5,19.55,10.23,28.47,16.7
			c3.2001,2.49,6.8601,4.46,9.63,7.47c0.3201,16.88,0.1801,33.78,0.29,50.67c-8.52,0.17-17.04,0.1-25.55,0.17
			c-3.0699,0.16-5.8799-1.5-8.9399-1.27c-105.34,0.18-210.6801,0.15-316.02,0.25c-8.34-0.26-16.65,0.64-24.99,0.49
			c-9.9399,0.02-19.88,0.33-29.8099,0.52c0.12-12.94,0.2799-25.87,0.46-38.81c0.09-4.5-0.3101-9.11,0.95-13.49
			c10.4701-8.1,21.48-15.68,33.54-21.26c2.54-1.18,5.1-2.3,7.6801-3.41c3.0699-1.21,6.1299-2.46,9.25-3.6
			c24.85-9.21,50.7799-15.49,77.0299-19.08C1401.34,727.26,1413.6801,725.77,1426.0699,725.27z"/>
		<path fill="#FFC6CF" stroke="#FFC6CF" stroke-width="0.0938" d="M1260.53,927.29c0.4099,0.03,1.23,0.11,1.64,0.15
			c11.89,13.5,24.1699,26.65,36.1799,40.06c-12.51-0.02-25.0399,0.1-37.5399-0.3C1260.4,953.9,1260.86,940.59,1260.53,927.29z"/>
	</g>
	<g id="_x23_fdd2daff">
		<path fill="#FDD2DA" stroke="#FDD2DA" stroke-width="0.0938" d="M1139.46,784.78c0.28-0.35,0.8401-1.05,1.12-1.4
			c0.3101,16.86-0.09,33.73,0.0601,50.6c0.1799,4.99-0.3101,10.03,0.52,14.99c0.6899,16.6201,0.4,33.25,0.4299,49.8701
			c-3.1-3.47-5.6599-7.36-8.4-11.1c-1.35-1.36-0.58-3.27-0.37-4.86c1.04-5.94,1.7001-11.94,2.03-17.95
			c1.15-7.58,1.34-15.28,2.34-22.87c0.4701-5.33,0.3501-10.68,0.79-16c1.04-6.95,0.46-14.04,0.8201-21.04
			C1139.9301,798.34,1139.15,791.51,1139.46,784.78z"/>
	</g>
	<g id="_x23_b1727dff">
		<path fill="#B1727D" stroke="#B1727D" stroke-width="0.0938" d="M1147.3,785.3c31.0599,0.55,62.11,1.49,93.1799,1.3
			c-0.01,16.39-0.1699,32.77-0.0499,49.16c-10.55,0.75-21.17,0.49-31.7201-0.15c-4.2-4.25-8.59-8.3-12.76-12.56
			c-1.63-1.57-3.4099-3.51-5.88-3.32c-14.1799-0.2-28.37,0.21-42.5399-0.2C1147.22,808.12,1147.37,796.7,1147.3,785.3z"/>
	</g>
	<g id="_x23_6760fbff">
		<path fill="#6760FB" stroke="#6760FB" stroke-width="0.0938" d="M832.42,786.25c10.79,0.47,21.53,1.62,32.35,0.97
			c-0.03,14.27-0.28,28.53-0.38,42.8c-0.16,5.79,0.21,11.62-0.76,17.37c-10.06-0.04-20.11,0-30.17,0.13
			c-0.9901-5.11-1.05-10.34-0.22-15.46C833.91,816.77,832.22,801.54,832.42,786.25z"/>
	</g>
	<g id="_x23_e49ca9ff">
		<path fill="#E49CA9" stroke="#E49CA9" stroke-width="0.0938" d="M1245.71,786.6c3.64-0.06,7.29-0.05,10.9501-0.05
			c0.08,16.63-0.89,33.23-1.0901,49.85c-3.08-0.35-6.1699-0.62-9.2599-0.62C1246.0699,819.39,1246.67,802.97,1245.71,786.6z"/>
	</g>
	<g id="_x23_cfde75ff">
		<path fill="#CFDE75" stroke="#CFDE75" stroke-width="0.0938" d="M1150.62,821.75c13.29-0.07,26.59,0.02,39.89-0.05
			c0.15,7.88,0.17,15.77,0,23.66c-6.67-0.04-13.34-0.11-20.01,0.04c-5.17-4.82-9.22-10.6801-13.9301-15.92
			C1154.41,827.04,1152.3101,824.54,1150.62,821.75z"/>
	</g>
	<g id="_x23_cedd77ff">
		<path fill="#CEDD77" stroke="#CEDD77" stroke-width="0.0938" d="M1192.72,823.48c7.74,6.22,14.25,13.83,21.85,20.24
			c0.01,0.42,0.04,1.25,0.05,1.67c-6.9399-0.25-13.89,0.13-20.8199-0.17c-0.26-0.25-0.79-0.74-1.0601-0.98
			C1192.53,837.32,1192.66,830.4,1192.72,823.48z"/>
	</g>
	<g id="_x23_f3feadff">
		<path fill="#F3FEAD" stroke="#F3FEAD" stroke-width="0.0938" d="M1147.5,822.22c6.96,7.6,13.22,15.8101,20.08,23.4901
			c0.25,18.63,0.2201,37.28,0.02,55.91c-5.89-8.25-11.3199-16.82-17.1-25.14c-0.83-1.39-2.13-2.73-1.9399-4.45
			C1148.39,855.41,1147.55,838.83,1147.5,822.22z"/>
	</g>
	<g id="_x23_fb616bff">
		<path fill="#FB616B" stroke="#FB616B" stroke-width="0.0938" d="M1259.83,833.29c28.0601,0.25,56.11,0.89,84.16,0.9
			c55.98,0.03,111.96,0.04,167.9401,0.09c51.87,0.16,103.7799-0.23,155.63,0.4399c14.58,8.32,28.7,17.54,43.0699,26.27
			c0.11,49.22,0.04,98.43,0.03,147.65c-44.2201-0.2-88.4401-0.1-132.65-0.52c-8.66-0.83-17.37-0.18-26.04-0.4
			c-5.85,0.23-11.8099-0.6899-17.5599,0.69c-0.16,12.64,0.15,25.28,0.0499,37.92c-14.11-10.1-27.5299-21.1599-41.3199-31.7
			C1415.34,954.22,1337.85,893.42,1259.83,833.29z"/>
		<path fill="#FB616B" stroke="#FB616B" stroke-width="0.0938" d="M1260.51,838.67c14.45,10.72,28.23,22.34,42.47,33.34
			c75.47,59.79,151.21,119.22,226.65,179.04c1.77,1.6399,4.74,3,4.14,5.9199c-0.15,26.0601-0.15,52.12-0.38,78.1801
			c-0.25-4.99-0.3201-9.98-0.89-14.9301c-1.5601,9.17-0.84,18.54-1.15,27.8101c-0.15,14.3199,0.1901,28.65-0.11,42.98
			c0.03,5.3099,0.17,10.65-0.72,15.91c-3.3201-2.9-5.9-6.4601-8.5801-9.91c-2.23-2.89-5.5199-4.58-8.6799-6.2
			c-2.5601-1.79-4.34-4.4301-6.45-6.67c-49.63-53.36-98.91-107.04-148.8-160.16c-32.41-34.6-64.83-69.18-97.4401-103.6
			C1260.6,893.14,1260.4301,865.9,1260.51,838.67z"/>
	</g>
	<g id="_x23_fec3bbff">
		<path fill="#FEC3BB" stroke="#FEC3BB" stroke-width="0.0938" d="M693.72,867.06c44.6201-10.94,89.3701-21.4,133.96-32.46
			c1.68,5.44,1.58,11.19,1.87,16.83c6.06,1.22,12.26,0.82,18.41,0.89c7.5099-0.09,15.09,0.55,22.54-0.83
			c-0.07-3.38-0.12-6.75-0.09-10.11c2.86,0.59,5.73,1.16,8.59,1.81c32.3,6.06,64.5,12.65,96.78,18.85c-0.3,0.27-0.9,0.81-1.2,1.08
			c-40.5,12.76-80.81,26.11-121.25,39.06c-4.69,1.23-9.44,4.24-14.4,2.63c-38.99-9.57-78.1-18.65-117.09-28.21
			c-10.73-2.53-21.41-5.3199-32.19-7.61C690.95,868.23,692.27,867.5,693.72,867.06z"/>
		<path fill="#FEC3BB" stroke="#FEC3BB" stroke-width="0.0938" d="M647,918.43c24.34-6.28,48.6-12.82,72.91-19.21
			c0.46-0.12,1.38-0.36,1.84-0.48c25.85,5.87,51.56,12.39,77.47,18.06l0.6801,0.38c15.27,3.2,30.36,7.21,45.61,10.46
			c0.08-0.7,0.22-2.11,0.3-2.82c8.43-2.88,16.93-5.57,25.36-8.46c5.72-2.12,11.88-0.63,17.79-0.52c4.71,0.77,9.5099,0.95,14.28,0.78
			c0.03,0.85,0.1,2.53,0.14,3.38c-18.64,5.64-37.11,11.8-55.71,17.57c-23,7.18-45.97,14.44-68.89,21.85
			c-3.15,0.74-6.27,2.92-9.58,1.71c-7.69-2.04-15.37-4.14-23.07-6.12c-29.64-7.9-59.31-15.72-88.98-23.55
			c-9.78-2.83-19.78-4.92-29.39-8.28C634.26,921.97,640.6,920.06,647,918.43z"/>
	</g>
	<g id="_x23_d4987cff">
		<path fill="#D4987C" stroke="#D4987C" stroke-width="0.0938" d="M1211.78,838.33c14.5699-0.14,29.14-0.06,43.71-0.08
			c-0.02,4.77,0.03,9.55,0.03,14.33c-12.03,0.06-24.0601,0.1-36.09-0.01c0-2.31,0.0199-4.61,0.0299-6.91
			C1216.85,843.26,1214.29,840.81,1211.78,838.33z"/>
	</g>
	<g id="_x23_f3ffadff">
		<path fill="#F3FFAD" stroke="#F3FFAD" stroke-width="0.0938" d="M1170.26,847.41c15.71-0.15,31.42-0.05,47.14-0.06
			c-0.01,18.37,0,36.7401,0,55.11c-15.73-0.45-31.4601,0.38-47.1801,0.42C1170.27,884.39,1170.1899,865.9,1170.26,847.41z"/>
	</g>
	<g id="_x23_ffc5adff">
		<path fill="#FFC5AD" stroke="#FFC5AD" stroke-width="0.0938" d="M1219.49,902.47c-0.02-15.93-0.05-31.85,0.01-47.77
			c11.98,0.02,23.97-0.02,35.95,0.02c0.01,16.2-0.09,32.4-0.08,48.59C1243.41,902.94,1231.45,902.62,1219.49,902.47z"/>
	</g>
	<g id="_x23_1e0b03ff">
		<path fill="#1E0B03" stroke="#1E0B03" stroke-width="0.0938" d="M853.33,902.18c40.44-12.95,80.75-26.3,121.25-39.06
			c0.55,0.36,1.66,1.09,2.21,1.45c-44.14,14.44-88.41,28.51-132.56,42.94c0.04,3.15,0.05,6.32,0.11,9.48l-2.06-0.11
			c-0.07-3.08-0.34-6.14-0.61-9.2c-49.05-11.74-98.09-23.51-147.12-35.33c-2.31-0.73-4.58-1.55-6.9-2.19c0.5-0.29,1.5-0.8799,2-1.17
			c10.78,2.29,21.46,5.08,32.19,7.61c38.99,9.56,78.1,18.64,117.09,28.21C843.89,906.42,848.64,903.41,853.33,902.18z"/>
	</g>
	<g id="_x23_fec4bbff">
		<path fill="#FEC4BB" stroke="#FEC4BB" stroke-width="0.0938" d="M976.79,864.57c0.31-0.07,0.91-0.2,1.22-0.26
			c-0.28,1.1-0.54,2.2-0.81,3.32c-1.06,4.07-2.17,8.14-3.02,12.28c-42.75,14.23-85.55,28.35-128.23,42.79
			c-0.92-1.78-1.65-3.68-1.61-5.71c-0.06-3.16-0.07-6.33-0.11-9.48C888.38,893.08,932.65,879.01,976.79,864.57z"/>
		<path fill="#FEC4BB" stroke="#FEC4BB" stroke-width="0.0938" d="M685.59,870.93c2.98,0.47,5.98,0.92,8.96,1.42
			c49.03,11.82,98.07,23.59,147.12,35.33c0.27,3.06,0.54,6.12,0.61,9.2c0.06,2.62-0.2,5.23-0.55,7.83
			c-37.71-8.9-75.51-17.46-113.13-26.73c-12.54-4.17-25.98-5.22-38.22-10.26C688.75,882.13,687.11,876.55,685.59,870.93z"/>
		<path fill="#FEC4BB" stroke="#FEC4BB" stroke-width="0.0938" d="M852.49,938.26c19.54-5.99,38.88-12.6,58.48-18.37
			c-0.8199,4.76-1.93,9.47-2.87,14.22c-7.41,4.05-15.27,7.06-23.3,9.62c-21.34,7.49-42.6,15.23-64,22.55
			c-15.58,5.37-31.07,10.99-46.6,16.5c-0.02-6.6201,0.28-13.23,0.53-19.84c2.14-0.7,4.25-1.44,6.4-2.15
			C804.93,953.35,828.67,945.65,852.49,938.26z"/>
		<path fill="#FEC4BB" stroke="#FEC4BB" stroke-width="0.0938" d="M627.02,925.67c18.33,4.76,36.62,9.73,54.94,14.54
			c20.62,5.35,41.18,10.88,61.74,16.45c9.55,2.78,19.28,4.8701,28.77,7.83c-0.2599,5.64-0.6899,11.28-0.8,16.94
			c-0.07,0.79-0.19,2.37-0.25,3.16c-4.18-0.6801-8.24-1.9-12.31-2.9901c-41.38-11.31-82.85-22.29-124.25-33.5099
			C631.32,940.97,629.4,933.21,627.02,925.67z"/>
	</g>
	<g id="_x23_2c0c12ff">
		<path fill="#2C0C12" stroke="#2C0C12" stroke-width="0.0938" d="M974.18,879.91c0.85-4.14,1.96-8.21,3.02-12.28
			c0.41,0.75,1.23,2.26,1.63,3.01c-0.57,2.21-1.16,4.41-1.72,6.64C976.19,878.22,975.22,879.1,974.18,879.91z"/>
	</g>
	<g id="_x23_f7a3c4ff">
		<path fill="#F7A3C4" stroke="#F7A3C4" stroke-width="0.0938" d="M1071.97,868.73c13.61-0.15,27.23-0.37,40.85-0.37
			c2.88,3.36,6.26,6.29,8.7201,10.02c6.83,9.76,14.1899,19.15,20.76,29.09c11.1899,0.88,22.4199,0.97,33.6399,1.14
			c15.3601,0.01,30.7301,1.41,46.0801,0.26c11.11-0.18,22.22-0.33,33.33-0.49c0.02,19.53-0.12,39.07-0.09,58.61
			c0.25,1.35-0.36,3.64,1.5,4.02c1.3199,0.46,2.77,0.34,4.1799,0.43c13.04,0.04,26.0801,0.09,39.1101,0.3
			c2.51-0.29,3.95,2.08,5.5599,3.6c26.14,28.55,52.24,57.14,78.4,85.67c49.33,53.38,98.71,106.71,148.0599,160.08
			c1.62,1.87,0.9601,4.61,1.16,6.91c-0.76,15.98-0.35,32-0.5699,48c-0.3201,10.34,0.61,20.65,0.95,30.99
			c0.28,0.38,0.85,1.16,1.13,1.55c31.41-0.4301,62.83,0.1599,94.24,0.12c27.26,0.26,54.54-0.2201,81.79,0.49
			c0.1,15.95-0.29,31.91,0.53,47.85H203.34c0.03-87.4-0.04-174.8,0.03-262.1899C263.23,1056.83,322.89,1018.56,382.76,980.6
			c0.18-15.2-0.01-30.4,0.07-45.6c0.1-7.34-0.35-14.7,0.47-22.01c22.47-11.7,44.72-23.83,67.04-35.81c2.62-1.53,5.76-1.05,8.67-1.12
			c75.11,0.94,150.24,0.94,225.36,0.2c1.3,4.98,3.04,9.84,4.23,14.85c0.4,4.74-0.25,9.5-0.14,14.26
			c-20.52,5.49-41.11,10.71-61.6,16.25c-0.88,0.8-1.74,1.6-2.61,2.41c1.38,4.75,2.92,9.46,4.47,14.16
			c1.32,4.17,3.26,8.3,2.9301,12.79c-0.35,14,0.03,28.03-0.91,42.01c-0.14,22.48-0.61,44.96-0.21,67.4301
			c2.93,1.7799,6.02,3.62,9.5099,3.95c2.21-0.34,4.23-1.37,6.31-2.14c-0.15-8.4199-0.0099-16.85-0.52-25.25
			c-0.14-16.31-0.2-32.61-0.39-48.92c-0.32-11.68,0.3-23.41-0.81-35.06c14.6,3.81,29.18,7.71,43.72,11.77
			c-0.93,6.04-0.5699,12.15-0.63,18.24c-0.05,15.33-0.04,30.66-0.15,46c0.12,1.42-0.28,3.1799,0.99,4.25
			c1.98,1.04,4.24,1.3,6.45,1.58l0.34,0.04c2.32-0.1,4.65-0.27,6.98-0.47c0.17-22.03-0.18-44.0601-0.02-66.09
			c22.3,6.26,44.72,12.07,67.03,18.29c-1.1201,15.08-0.65,30.23-1.08,45.35c-0.62,23.78-0.73,47.5801-0.52,71.38
			c5.33,2.3101,11.33,2.7101,16.9,1.02c1.31-6.42-0.03-12.9,0.05-19.36c-0.17-26.67-0.32-53.35-0.41-80.03
			c0.17-7.73-0.83-15.43-0.66-23.16c12.51-4.38,24.97-8.9,37.48-13.3c0.65,6.63-0.53,13.25-0.49,19.89
			c4.53,2.62,9.86,2.0699,14.82,3.08c0.22,27.4-0.12,54.79-0.11,82.1901c4.29,3.73,10.11,3.73,15.1,1.45
			c0.58-24.71,0.08-49.4301,0.23-74.14c-0.01-14.32-0.05-28.63-0.21-42.94c15.15-5.12,30.14-10.71,45.26-15.93
			c0.06,34.34-0.27,68.68-0.27,103.02c2.18,1.47,4.25,3.3199,6.86,4.02c3.31,0.3199,6.18-1.76,9.07-3.03
			c-0.06-24.06,0.35-48.15-0.57-72.2c-0.07-8.97-0.23-17.93-0.45-26.9c0.06-5.33-0.71-10.75,0.5-16c1.02-4.5,1.71-9.11,3.43-13.41
			c0.13-0.35,0.39-1.06,0.52-1.41l0.17-0.44c-11.21-0.36-22.35-1.72-33.52-2.55c22.85-8.07,45.93-15.51,68.93-23.17
			c4.55-1.43,8.98-3.47,13.77-3.98c-0.74,26.6-0.57,53.25-0.84,79.88c0.11,18.11-1.05,36.22-0.54,54.33
			c2.47,3.07,6.49,4.65,10.28,5.36c3.51-0.39,6.01-3.42,8.69-5.47c0-13.06-0.33-26.12-1.03-39.15c-0.35-10.38-0.18-20.77-1-31.13
			c-0.08-15.31-0.99-30.59-1.36-45.89c-0.54-8.88-2.51-17.82-1.23-26.71c0.56-2.23,1.15-4.4301,1.72-6.64
			c12.73-0.02,25.46-0.27,38.19-0.35C1035.3,868.85,1053.6899,870.16,1071.97,868.73z"/>
	</g>
	<g id="_x23_826662ff">
		<path fill="#826662" stroke="#826662" stroke-width="0.0938" d="M684.31,869.39c1.11,0.24,2.22,0.48,3.34,0.77
			c2.3199,0.64,4.59,1.46,6.9,2.19c-2.98-0.5-5.98-0.95-8.96-1.42c1.52,5.62,3.16,11.2,4.79,16.79
			c12.24,5.04,25.68,6.09,38.22,10.26c-2.33-0.38-4.64,0.1-6.85,0.76c-0.46,0.12-1.38,0.36-1.84,0.48c1.04-0.61,2.08-1.23,3.11-1.87
			c-8.71-2.08-17.43-4.0699-26.15-6.09c-2.59-0.56-4.95-1.76-7.31-2.88C687.82,882.05,685.75,875.8,684.31,869.39z"/>
	</g>
	<g id="_x23_fdd2d8ff">
		<path fill="#FDD2D8" stroke="#FDD2D8" stroke-width="0.0938" d="M1147.42,875.84c6.1899,9.04,12.5399,17.98,18.26,27.33
			c-5.9901,0.17-11.9801,0.24-17.9601,0.45C1147.58,894.36,1147.34,885.1,1147.42,875.84z"/>
		<path fill="#FDD2D8" stroke="#FDD2D8" stroke-width="0.0938" d="M694.94,965.15c0.84,2.85,0.69,5.85,0.69,8.8
			c-0.18,20.31-0.07,40.62-0.28,60.93l-0.34-0.04c-1.02-3.87-0.74-7.89-0.76-11.83c-0.01-14.01-0.05-28.01-0.02-42.02
			C694.38,975.7,693,970.27,694.94,965.15z"/>
	</g>
	<g id="_x23_030000ff">
		<path fill="#030000" stroke="#030000" stroke-width="0.0938" d="M974.18,879.91c1.04-0.81,2.01-1.69,2.93-2.6299
			c-1.28,8.89,0.69,17.83,1.23,26.71c0.37,15.3,1.28,30.58,1.36,45.89c0.82,10.36,0.65,20.75,1,31.13
			c0.7,13.03,1.03,26.09,1.03,39.15c-2.68,2.05-5.18,5.08-8.69,5.47c-3.79-0.71-7.81-2.29-10.28-5.36
			c-0.51-18.11,0.65-36.22,0.54-54.33c0.27-26.63,0.1-53.28,0.84-79.88c-4.79,0.51-9.22,2.55-13.77,3.98
			c-23,7.66-46.08,15.1-68.93,23.17c11.17,0.83,22.31,2.19,33.52,2.55l-0.17,0.44c-3.86-0.04-7.71,0.13-11.55,0.42
			c-4.77,0.17-9.57-0.01-14.28-0.78c-5.91-0.11-12.07-1.6-17.79,0.52c-8.43,2.89-16.93,5.58-25.36,8.46
			c-0.08,0.71-0.22,2.12-0.3,2.82c-15.25-3.25-30.34-7.26-45.61-10.46l-0.6801-0.38c-25.91-5.67-51.62-12.19-77.47-18.06
			c2.21-0.66,4.52-1.14,6.85-0.76c37.62,9.27,75.42,17.83,113.13,26.73c0.35-2.6,0.61-5.21,0.55-7.83l2.06,0.11
			c-0.04,2.03,0.69,3.93,1.61,5.71C888.63,908.26,931.43,894.14,974.18,879.91 M967.55,884.44c0.34,9.86-0.16,19.75,0.7,29.59
			c0.24,30.66,0.33,61.33,0.52,91.99c0.44,5.16,0.64,10.35,0.51,15.54c2.06,0.07,4.1299,0.14,6.21,0.18
			c-0.28-6.24,0.05-12.51-0.62-18.72c-0.82-17.15,0.02-34.37-1.33-51.49c-0.13-8.19-0.13-16.38-0.39-24.5601
			c-1.4-14.62,0.09-29.41-1.59-44.02C970.21,883.43,968.87,883.93,967.55,884.44z"/>
		<path fill="#030000" stroke="#030000" stroke-width="0.0938" d="M286.02,912.07c5.36-1.63,12.28-3.36,16.57,1.4
			c-0.09,2.03-0.34,4.07-1.04,6.01c-5.54,5.79-13.54,9.46-21.6,9.27c-3.62,0.04-7.15-2.84-6.44-6.72c0.31-0.55,0.93-1.64,1.24-2.19
			C277.63,916.15,281.81,913.89,286.02,912.07 M278.71,923.58c5.7,0.49,11.3-1.48,15.99-4.62c1.27-0.84,1.88-2.28,2.65-3.52
			C290.49,915.16,282.57,917.54,278.71,923.58z"/>
	</g>
	<g id="_x23_fac4bdff">
		<path fill="#FAC4BD" stroke="#FAC4BD" stroke-width="0.0938" d="M967.55,884.44c1.32-0.51,2.66-1.01,4.01-1.49
			c1.68,14.61,0.19,29.4,1.59,44.02c0.2599,8.1801,0.2599,16.3701,0.39,24.5601c1.35,17.12,0.51,34.34,1.33,51.49
			c0.67,6.21,0.34,12.48,0.62,18.72c-2.08-0.04-4.15-0.11-6.21-0.18c0.1299-5.19-0.07-10.38-0.51-15.54
			c-0.19-30.66-0.28-61.33-0.52-91.99C967.39,904.19,967.89,894.3,967.55,884.44z"/>
	</g>
	<g id="_x23_f2c5c5ff">
		<path fill="#F2C5C5" stroke="#F2C5C5" stroke-width="0.0938" d="M693.5,903.91c-0.2-4.0099-0.42-8.0099-0.24-12.0099
			c0.94,0.3,2.82,0.9,3.76,1.2c0.66,3.27-0.32,6.79-0.37,10.14C695.59,903.46,694.54,903.67,693.5,903.91z"/>
	</g>
	<g id="_x23_eea5c3ff">
		<path fill="#EEA5C3" stroke="#EEA5C3" stroke-width="0.0938" d="M700.56,894.1c5.64,0.58,11.11,2.17,16.54,3.71
			c-5.45,1.26-10.77,3.09-16.29,4.05C700.71,899.27,700.63,896.68,700.56,894.1z"/>
	</g>
	<g id="_x23_c77282ff">
		<path fill="#C77282" stroke="#C77282" stroke-width="0.0938" d="M278.71,923.58c3.86-6.04,11.78-8.42,18.64-8.14
			c-0.77,1.24-1.38,2.68-2.65,3.52C290.01,922.1,284.41,924.07,278.71,923.58z"/>
	</g>
	<g id="_x23_020002ff">
		<path fill="#020002" stroke="#020002" stroke-width="0.0938" d="M903.24,916.62c3.84-0.29,7.69-0.46,11.55-0.42
			c-0.13,0.35-0.39,1.06-0.52,1.41c-1.72,4.3-2.41,8.91-3.43,13.41c-1.21,5.25-0.44,10.67-0.5,16c0.22,8.97,0.3799,17.93,0.45,26.9
			c0.92,24.05,0.51,48.14,0.57,72.2c-2.89,1.27-5.76,3.35-9.07,3.03c-2.61-0.7001-4.68-2.55-6.86-4.02
			c0-34.34,0.33-68.68,0.27-103.02c-15.12,5.22-30.11,10.81-45.26,15.93c0.16,14.31,0.2,28.62,0.21,42.94
			c-0.15,24.71,0.35,49.4301-0.23,74.14c-4.99,2.28-10.81,2.28-15.1-1.45c-0.01-27.4,0.33-54.79,0.11-82.1901
			c-4.96-1.01-10.29-0.46-14.82-3.08c-0.04-6.64,1.14-13.26,0.49-19.89c-0.0699-0.56-0.23-1.67-0.3-2.23
			c21.4-7.32,42.66-15.0601,64-22.55c8.03-2.56,15.89-5.57,23.3-9.62c0.94-4.75,2.05-9.46,2.87-14.22
			c-19.6,5.77-38.9399,12.38-58.48,18.37c-23.82,7.39-47.56,15.09-71.36,22.53l-2.35-1.37c22.92-7.41,45.89-14.67,68.89-21.85
			c18.6-5.77,37.07-11.93,55.71-17.57C903.34,919.15,903.27,917.47,903.24,916.62 M907.96,917.12c-0.4901,1.64,0.06,2.19,1.68,1.64
			C910.12,917.1,909.56,916.55,907.96,917.12 M900.67,940.91c-0.11,9.71,0.09,19.42,0.56,29.11c0.19,25.55,0.08,51.1,0.36,76.64
			c1.25-0.3201,2.5099-0.65,3.78-0.98c-0.7-5.2101-0.66-10.4501-0.6-15.6801c0.17-10-0.33-20.02,0.27-30
			c0.56-20.92,0.27-41.87,1.21-62.76C904.32,938.3,901.78,938.81,900.67,940.91 M840.8,961.65c0.72,8.09,0.29,16.22,0.46,24.34
			c0.13,29.23,0.12,58.47,0.34,87.71c0.98,0.04,1.97,0.1001,2.97,0.17c-0.07-37.92-0.05-75.84,0.18-113.76
			C843.42,960.6,842.11,961.12,840.8,961.65 M835.39,962.53c-0.55,6.7599,0.14,13.54,0.09,20.31
			C835.32,976.07,836.42,969.25,835.39,962.53 M826.19,966.57c0.16,6.68,0.34,13.36,0.32,20.05c1.4,0.43,4.21,1.63,4.59-0.64
			c0.45-6.97,0.17-13.98,0.4301-20.97C829.72,965.48,827.96,966.02,826.19,966.57z"/>
	</g>
	<g id="_x23_3b3534ff">
		<path fill="#3B3534" stroke="#3B3534" stroke-width="0.0938" d="M907.96,917.12c1.6-0.57,2.16-0.02,1.68,1.64
			C908.02,919.31,907.47,918.76,907.96,917.12z"/>
	</g>
	<g id="_x23_f8c6bfff">
		<path fill="#F8C6BF" stroke="#F8C6BF" stroke-width="0.0938" d="M900.67,940.91c1.11-2.1,3.65-2.61,5.58-3.67
			c-0.94,20.89-0.65,41.84-1.21,62.76c-0.6,9.98-0.1,20-0.27,30c-0.06,5.23-0.1,10.47,0.6,15.6801c-1.27,0.33-2.53,0.6599-3.78,0.98
			c-0.28-25.54-0.17-51.09-0.36-76.64C900.76,960.33,900.56,950.62,900.67,940.91z"/>
	</g>
	<g id="_x23_f8c5bfff">
		<path fill="#F8C5BF" stroke="#F8C5BF" stroke-width="0.0938" d="M635.38,950.39c2.08,0.54,4.17,1.1,6.27,1.61
			c-1.6,10.24-0.77,20.65-1.13,30.97c-0.39,21.34,0.27,42.72-0.77,64.03c-0.06,4.88-0.05,9.77-0.27,14.66
			c-0.76-0.3-2.28-0.9-3.04-1.2001c0.36-22.1699,0.05-44.35-0.23-66.52c-0.67-3.61-0.48-7.28-0.51-10.92
			C635.65,972.14,635.49,961.26,635.38,950.39z"/>
	</g>
	<g id="_x23_24120cff">
		<path fill="#24120C" stroke="#24120C" stroke-width="0.0938" d="M746.13,955.01c7.7,1.98,15.38,4.08,23.07,6.12
			c3.31,1.21,6.43-0.97,9.58-1.71l2.35,1.37c-2.15,0.71-4.26,1.45-6.4,2.15c-0.25,6.61-0.55,13.22-0.53,19.84
			c15.53-5.51,31.02-11.13,46.6-16.5c0.07,0.56,0.23,1.67,0.3,2.23c-12.5099,4.4-24.97,8.92-37.48,13.3
			c-1.09-0.31-2.18-0.61-3.25-0.89c1,12.03-0.46,24.07-0.35,36.11c0.09,5.08-0.18,10.1699-0.68,15.24
			c-0.17-16.28,0.09-32.56,0.22-48.83c-1.94,0.51-3.88,1.03-5.83,1.5c-0.67-1.18-1.38-2.37-2.06-3.51c0.11-5.66,0.54-11.3,0.8-16.94
			c-9.49-2.96-19.22-5.05-28.77-7.83C744.31,956.25,745.53,955.43,746.13,955.01z"/>
	</g>
	<g id="_x23_f0c0bbff">
		<path fill="#F0C0BB" stroke="#F0C0BB" stroke-width="0.0938" d="M840.8,961.65c1.31-0.53,2.62-1.05,3.95-1.54
			c-0.23,37.92-0.25,75.84-0.18,113.76c-1-0.0699-1.99-0.13-2.97-0.17c-0.22-29.24-0.21-58.48-0.34-87.71
			C841.09,977.87,841.52,969.74,840.8,961.65z"/>
	</g>
	<g id="_x23_f9c5c1ff">
		<path fill="#F9C5C1" stroke="#F9C5C1" stroke-width="0.0938" d="M826.19,966.57c1.77-0.55,3.53-1.09,5.34-1.56
			c-0.26,6.99,0.02,14-0.4301,20.97c-0.38,2.27-3.19,1.07-4.59,0.64C826.53,979.93,826.35,973.25,826.19,966.57z"/>
	</g>
	<g id="_x23_cd6f83ff">
		<path fill="#CD6F83" stroke="#CD6F83" stroke-width="0.0938" d="M293.44,979.27c3.32-1.22,6.99-2.09,10.5-1.09
			c-0.91,3.21-4.32,4.66-7.07,5.99c-3.51,1.7-7.46,1.6-11.26,1.44C286.72,982.1,290.28,980.52,293.44,979.27z"/>
	</g>
	<g id="_x23_f9c5bdff">
		<path fill="#F9C5BD" stroke="#F9C5BD" stroke-width="0.0938" d="M773.73,984.94c1.95-0.47,3.89-0.99,5.83-1.5
			c-0.13,16.27-0.39,32.55-0.22,48.83c-1.1201,23.3199-0.5,46.6799-0.89,70.03c-0.86,0.24-1.71,0.51-2.54,0.7699l-1.3-0.3199
			c-0.19-26.25,0.34-52.53-0.87-78.76C773.99,1010.98,772.85,997.92,773.73,984.94z"/>
	</g>
	<g id="_x23_fec5ceff">
		<path fill="#FEC5CE" stroke="#FEC5CE" stroke-width="0.0938" d="M1538.61,1086.98c0.42-25.11-0.16-50.2-0.13-75.31
			c9.1801,0.11,18.36-0.03,27.54,0.15c9.9199,0.98,19.95,0.24,29.9199,0.52c38.2301,0.06,76.4501,0.2599,114.67,0.3
			c0.1801,97.37,0.02,194.74,0.17,292.11c-57.39-0.15-114.78-0.35-172.17-0.51c1-9.05,0.9401-18.17,0.9401-27.26
			c-0.12-30.97-0.29-61.95-0.3601-92.9199c0-3.7001-0.4299-7.38-0.36-11.0701C1538.8199,1144.3199,1538.73,1115.65,1538.61,1086.98z
			"/>
	</g>
	<g id="_x23_815464ff">
		<path fill="#815464" stroke="#815464" stroke-width="0.0938" d="M775.91,1103.0699c0.83-0.2599,1.6801-0.5299,2.54-0.7699
			c-0.01,0.5299-0.02,1.6-0.03,2.1399c2.06-0.0499,4.14-0.09,6.22-0.08c-5.57,1.6901-11.57,1.29-16.9-1.02
			c1.99,0.13,4,0.3401,6.01,0.36C774.29,1103.54,775.37,1103.23,775.91,1103.0699z"/>
	</g>
	<g id="_x23_dd686eff">
		<path fill="#DD686E" stroke="#DD686E" stroke-width="0.0938" d="M1531.35,1148.03c0.3101-9.27-0.41-18.64,1.15-27.8101
			c0.5699,4.9501,0.64,9.9401,0.89,14.9301c0.03,25.65,0.11,51.3199-0.3,76.97c-7.0499-6.66-13.58-13.9-19.83-21.3099
			c3.16,1.62,6.45,3.3099,8.6799,6.2c2.6801,3.45,5.26,7.01,8.5801,9.91c0.89-5.26,0.75-10.6001,0.72-15.91
			C1531.54,1176.6801,1531.2,1162.35,1531.35,1148.03z"/>
	</g>
	<g id="_x23_ebccd2ff">
		<path fill="#EBCCD2" stroke="#EBCCD2" stroke-width="0.0938" d="M0,1121.53c45.99,0.25,91.98-0.03,137.95,0.71
			c-0.13,0.9401-0.26,1.89-0.39,2.86c-12.06,6.98-23.7,14.65-35.53,22C68.04,1168.84,33.94,1190.42,0,1212.23V1121.53z"/>
	</g>
	<g id="_x23_d7919cff">
		<path fill="#D7919C" stroke="#D7919C" stroke-width="0.0938" d="M109,1203.8199c9.68-6.5699,19.13-13.46,28.82-20
			c0.46,4.3601,0.44,8.76,0.4,13.15c0,53.3401,0,106.6901,0,160.03h-32.47c-0.09-28.02-0.23-56.04-0.36-84.05
			c-0.21-11.1599,0.27-22.33-0.64-33.45c-0.02-10.17-0.2-20.34-0.18-30.5C104.25,1206.27,107.3,1205.27,109,1203.8199z"/>
	</g>
</g>
</svg>
