<?xml version="1.0" encoding="UTF-8"?>
<svg id="Objects" xmlns="http://www.w3.org/2000/svg" xmlns:xlink="http://www.w3.org/1999/xlink" viewBox="0 0 116.88 199.29">
  <defs>
    <style>
      .cls-1 {
        fill: #fff;
      }

      .cls-2 {
        filter: url(#drop-shadow-1);
      }

      .cls-3 {
        fill: #323232;
        filter: url(#drop-shadow-2);
      }

      .cls-4 {
        fill: none;
        stroke: #fff;
        stroke-linecap: round;
        stroke-miterlimit: 10;
        stroke-width: .5px;
      }
    </style>
    <filter id="drop-shadow-1" filterUnits="userSpaceOnUse">
      <feOffset dx="10" dy="7"/>
      <feGaussianBlur result="blur" stdDeviation="8"/>
      <feFlood flood-color="#000" flood-opacity=".7"/>
      <feComposite in2="blur" operator="in"/>
      <feComposite in="SourceGraphic"/>
    </filter>
    <filter id="drop-shadow-2" filterUnits="userSpaceOnUse">
      <feOffset dx="10" dy="7"/>
      <feGaussianBlur result="blur-2" stdDeviation="8"/>
      <feFlood flood-color="#000" flood-opacity=".7"/>
      <feComposite in2="blur-2" operator="in"/>
      <feComposite in="SourceGraphic"/>
    </filter>
  </defs>
  <g class="cls-2">
    <g>
      <g>
        <path class="cls-1" d="M14.55,32.7c-3.16-1.21,.79-5.25,10.08-8.98,9.28-3.73,12.89-5.2,18.01-9.36,2.31-1.88,5.87-1.9,5.87-1.9v4.6s-4.6,.04-7.54,2.42c-2.94,2.38-10.47,4.17-18.45,7.2-6.12,2.33-5.98,6.78-7.97,6.02Z"/>
        <path class="cls-1" d="M20.17,32.61c-.86,0-1.64-.47-2.14-1.1-.74-.93-.96-2.33,.04-3.2,.18-.15,.44-.13,.59,.04,.15,.17,.13,.44-.04,.59-.63,.55-.41,1.44,.07,2.04,.52,.66,1.49,1.15,2.52,.41,.87-.63,.89-1.26,.63-1.64-.24-.34-.74-.53-1.2-.22-.19,.13-.46,.08-.59-.12-.13-.19-.08-.46,.12-.59,.88-.59,1.89-.24,2.36,.44,.51,.73,.45,1.89-.83,2.81-.51,.37-1.04,.53-1.53,.53Z"/>
        <path class="cls-1" d="M82.47,32.7c3.16-1.21-.79-5.25-10.08-8.98-9.28-3.73-12.89-5.2-18.01-9.36-2.31-1.88-5.87-1.9-5.87-1.9v4.6s4.6,.04,7.54,2.42c2.94,2.38,10.47,4.17,18.45,7.2,6.12,2.33,5.98,6.78,7.97,6.02Z"/>
        <path class="cls-1" d="M76.85,32.61c.86,0,1.64-.47,2.14-1.1,.74-.93,.96-2.33-.04-3.2-.18-.15-.44-.13-.59,.04-.15,.17-.13,.44,.04,.59,.63,.55,.41,1.44-.07,2.04-.52,.66-1.49,1.15-2.52,.41-.87-.63-.89-1.26-.63-1.64,.24-.34,.74-.53,1.2-.22,.19,.13,.46,.08,.58-.12,.13-.19,.08-.46-.12-.59-.88-.59-1.89-.24-2.36,.44-.51,.73-.45,1.89,.83,2.81,.51,.37,1.04,.53,1.53,.53Z"/>
      </g>
      <path class="cls-1" d="M48.51,15.15c-.53,0-.95-.43-.95-.95,0-2.17,1.56-3.38,2.93-4.44,1.32-1.02,2.46-1.9,2.54-3.52,.08-1.7-.55-2.74-1.1-3.32-.61-.64-1.43-1.03-2.2-1.03-1.89,0-3.63,.49-3.63,4.08,0,.53-.43,.95-.95,.95s-.95-.43-.95-.95c0-3.97,1.86-5.99,5.53-5.99,1.3,0,2.6,.59,3.58,1.62,1.14,1.2,1.71,2.87,1.62,4.73-.12,2.49-1.87,3.84-3.27,4.93-1.36,1.05-2.19,1.75-2.19,2.93,0,.53-.43,.95-.95,.95Z"/>
    </g>
    <line class="cls-4" x1="21.21" y1="31.4" x2="29.48" y2="49.15"/>
    <line class="cls-4" x1="75.71" y1="31.4" x2="67.45" y2="49.15"/>
  </g>
  <path class="cls-3" d="M68.75,84.42c-6.14-16.28,10.86-27.37,4.01-33.27-6.84-5.9-17.46,0-24.31,0s-17.46-5.9-24.31,0c-6.84,5.9,10.15,16.99,4.01,33.27-6.14,16.28-14.39,27.85-13.92,50.74,.47,22.89,4.01,33.04,4.01,33.04,0,0,0-3.23,30.21-3.23s30.21,3.23,30.21,3.23c0,0,3.54-10.15,4.01-33.04,.47-22.89-7.79-34.45-13.92-50.74Z"/>
</svg>